<?xml version="1.0" standalone="no"?>
<!DOCTYPE svg PUBLIC "-//W3C//DTD SVG 20010904//EN"
 "http://www.w3.org/TR/2001/REC-SVG-20010904/DTD/svg10.dtd">
<svg version="1.0" xmlns="http://www.w3.org/2000/svg"
 width="600.000000pt" height="600.000000pt" viewBox="0 0 600.000000 600.000000"
 preserveAspectRatio="xMidYMid meet">
<metadata>
Created by potrace 1.16, written by Peter Selinger 2001-2019
</metadata>
<g transform="translate(0.000000,600.000000) scale(0.100000,-0.100000)"
fill="#000000" stroke="none">
<path d="M2694 5990 c-145 -15 -325 -49 -479 -91 -394 -107 -733 -277 -1075
-539 -122 -94 -406 -378 -500 -500 -303 -395 -492 -805 -584 -1266 -76 -379
-76 -813 0 -1193 15 -76 24 -101 24 -64 0 11 7 36 15 54 l15 34 -6 -40 c-3
-22 -10 -53 -15 -70 -5 -18 -5 -42 0 -60 6 -18 10 -23 10 -11 2 41 73 230 127
337 73 146 211 376 332 554 53 77 137 201 187 275 50 74 110 163 134 198 23
35 41 68 39 74 -2 6 -30 -28 -62 -75 -31 -48 -59 -87 -60 -87 -2 0 49 123 114
273 64 149 125 293 135 320 10 26 19 46 21 44 2 -1 -12 -63 -31 -137 -38 -148
-44 -194 -15 -113 10 29 35 87 55 130 20 43 57 129 82 191 37 92 53 119 86
147 22 19 45 35 50 35 5 0 31 11 58 25 27 13 49 20 49 14 0 -23 -33 -84 -98
-181 -187 -280 -266 -464 -260 -606 l3 -67 24 65 c14 36 40 97 58 135 l33 70
-7 -65 c-3 -36 -12 -77 -19 -92 -22 -42 -122 -342 -154 -460 -37 -133 -67
-306 -74 -418 -3 -47 -3 -76 0 -65 3 11 33 130 65 265 123 505 238 791 466
1156 80 129 252 367 275 380 7 4 6 -1 -3 -12 -43 -51 -24 -42 40 21 98 95 192
214 215 272 28 70 84 141 183 230 87 77 243 206 330 271 55 41 47 62 -10 23
-23 -15 -58 -36 -77 -45 l-35 -17 25 21 c14 12 86 62 160 112 274 186 603 311
933 354 160 21 545 15 622 -9 78 -26 64 -12 -24 22 -174 67 -414 129 -646 166
-116 19 -600 29 -731 15z m66 -297 c-8 -3 -49 -29 -90 -58 -138 -95 -180 -117
-282 -151 -109 -36 -142 -38 -62 -3 47 21 144 78 144 86 0 7 -74 -9 -108 -23
-18 -7 -30 -9 -27 -4 10 16 -1 12 -65 -20 -33 -17 -60 -28 -60 -26 0 18 221
123 338 161 74 24 266 58 212 38z m-551 -167 c-10 -9 -149 -76 -149 -71 0 6
131 74 144 75 5 0 7 -2 5 -4z m71 -21 c0 -2 -10 -9 -22 -15 -22 -11 -22 -10
-4 4 21 17 26 19 26 11z m-180 -109 c0 -2 -8 -10 -17 -17 -16 -13 -17 -12 -4
4 13 16 21 21 21 13z m-150 -11 c0 -2 -10 -9 -22 -15 -22 -11 -22 -10 -4 4 21
17 26 19 26 11z m105 -25 c-3 -5 -20 -19 -38 -30 -32 -22 -32 -22 3 9 37 32
45 37 35 21z m-195 -24 c0 -2 -8 -10 -17 -17 -16 -13 -17 -12 -4 4 13 16 21
21 21 13z m-40 -29 c0 -2 -21 -19 -47 -38 -27 -18 -76 -57 -110 -87 -35 -29
-63 -49 -63 -45 0 9 39 42 144 121 67 50 76 56 76 49z m50 -100 c0 -2 -15 -16
-32 -33 l-33 -29 29 33 c28 30 36 37 36 29z m-336 -147 c-157 -164 -311 -412
-437 -705 -25 -58 -90 -220 -244 -605 -105 -263 -122 -290 -46 -75 19 55 44
119 54 142 11 23 19 45 19 48 0 4 6 21 14 38 47 105 90 207 102 242 7 22 25
72 39 110 14 39 30 81 34 95 20 59 123 260 195 380 83 136 308 411 324 396 2
-3 -22 -33 -54 -66z m-137 -243 c-77 -118 -197 -353 -277 -545 -24 -56 -45
-101 -47 -99 -7 7 89 237 147 351 59 118 177 316 187 316 3 0 -1 -10 -10 -23z
m-643 -1324 c-10 -40 -79 -164 -130 -233 -68 -93 -266 -388 -314 -470 -40 -66
-159 -207 -160 -188 0 4 25 35 55 70 31 35 74 95 97 133 65 110 202 315 292
435 27 36 51 72 54 80 3 8 20 38 37 65 17 28 39 69 49 93 22 48 29 54 20 15z
m-664 -938 c0 -2 -10 -9 -22 -15 -22 -11 -22 -10 -4 4 21 17 26 19 26 11z m44
-62 c-5 -19 -9 -20 -25 -10 -18 11 -18 12 4 23 27 15 28 14 21 -13z"/>
<path d="M2371 5574 c-18 -8 -31 -17 -28 -20 5 -6 67 23 67 31 0 6 3 7 -39
-11z"/>
<path d="M4200 5745 c14 -8 30 -14 35 -14 6 0 -1 6 -15 14 -14 8 -29 14 -35
14 -5 0 1 -6 15 -14z"/>
<path d="M3530 5721 c-19 -10 -87 -33 -150 -50 -253 -71 -531 -179 -656 -257
-40 -24 -76 -44 -81 -44 -5 0 -15 11 -21 25 -6 14 -15 25 -20 25 -10 0 -133
-86 -174 -122 -15 -13 -49 -53 -75 -89 -27 -36 -54 -64 -60 -62 -21 7 -132
-129 -178 -219 -26 -49 -45 -91 -43 -93 2 -2 17 12 33 33 41 50 119 130 109
112 -4 -8 -41 -64 -82 -125 -92 -136 -108 -169 -165 -325 -39 -110 -69 -224
-54 -210 3 3 28 64 56 135 62 158 128 279 185 334 l42 41 -22 -87 c-13 -49
-23 -104 -23 -123 0 -31 3 -27 30 40 30 77 33 67 6 -30 -8 -30 -17 -80 -21
-110 l-6 -55 21 53 c21 51 39 69 21 21 -11 -28 -27 -136 -19 -129 3 3 17 32
31 65 33 72 28 50 -13 -65 -17 -47 -46 -166 -66 -265 -33 -167 -35 -192 -34
-360 l1 -180 24 155 c67 426 183 706 421 1013 29 38 53 74 53 80 0 6 3 8 6 5
3 -3 -17 -54 -45 -113 -28 -60 -51 -111 -51 -114 1 -19 195 264 216 316 8 18
21 68 28 111 7 42 24 99 37 127 44 93 238 272 414 382 28 17 112 54 188 81 75
28 152 60 170 71 40 26 15 27 -33 2z"/>
<path d="M4335 5684 c78 -40 168 -122 247 -226 52 -69 75 -85 63 -47 -6 16 9
10 67 -31 40 -28 72 -56 70 -62 -1 -5 2 -7 8 -3 14 9 46 -10 130 -78 115 -92
159 -138 185 -188 52 -102 160 -390 191 -513 30 -114 34 -145 33 -246 l-2
-115 -8 80 c-22 213 -62 388 -98 423 -10 9 -24 40 -31 67 -19 70 -75 207 -111
270 -44 78 -149 172 -249 224 -47 24 -106 59 -132 77 -58 41 -66 22 -11 -26
31 -27 33 -31 12 -25 -92 29 -188 106 -223 180 -30 63 -37 69 -70 54 -32 -15
-32 -21 -3 -34 29 -13 50 -58 84 -180 27 -100 28 -101 28 -418 0 -330 6 -354
25 -107 6 80 13 161 15 180 2 19 5 46 5 60 1 22 3 21 14 -10 8 -20 25 -58 39
-85 51 -102 82 -231 94 -388 7 -94 23 -129 23 -50 0 26 5 55 10 63 6 10 10
-49 10 -176 0 -206 -12 -299 -54 -413 l-23 -64 -39 47 c-100 119 -234 386
-234 466 0 17 -11 74 -25 127 -14 54 -33 148 -41 208 -26 182 -22 737 4 721 4
-2 8 16 8 40 1 24 0 44 -3 44 -2 0 -31 -56 -63 -123 -71 -149 -109 -274 -116
-382 -3 -44 -9 -96 -15 -115 -5 -19 -13 -53 -18 -75 -19 -85 -11 90 9 208 17
101 18 119 5 143 l-14 27 -5 -34 c-49 -312 -54 -390 -35 -554 9 -81 21 -123
61 -220 27 -66 63 -142 80 -170 17 -27 31 -56 31 -63 0 -6 2 -10 5 -8 2 3 24
-21 47 -52 48 -63 105 -121 105 -106 0 5 -17 32 -38 59 -55 73 -79 114 -112
195 -44 106 -37 103 21 -7 29 -57 76 -127 110 -165 33 -38 57 -68 53 -68 -4 0
0 -6 9 -12 15 -12 15 -18 3 -63 -21 -79 -59 -155 -126 -255 -34 -50 -59 -94
-57 -97 11 -10 148 176 194 263 l47 91 56 -43 c30 -24 61 -44 68 -44 6 0 12
-3 12 -6 0 -3 -25 -51 -56 -105 -31 -55 -54 -102 -52 -105 3 -2 24 25 48 61
23 36 44 65 47 65 2 0 3 -3 1 -7 -11 -24 -28 -62 -39 -92 -19 -50 -98 -169
-184 -274 -111 -136 -150 -194 -186 -272 -10 -22 -19 -32 -19 -23 0 9 32 78
70 154 72 141 86 187 29 95 -18 -28 -34 -49 -36 -47 -9 9 51 165 94 244 51 96
52 130 2 58 -99 -143 -202 -231 -394 -337 l-60 -33 50 44 c120 105 230 239
250 305 4 14 -1 11 -17 -10 -13 -16 -39 -45 -58 -65 -19 -20 -26 -26 -16 -13
28 33 13 28 -54 -17 -32 -22 -62 -40 -67 -40 -4 0 4 7 17 17 60 40 127 115
135 150 2 10 19 52 38 93 19 41 44 107 55 145 21 75 36 195 24 195 -4 0 -20
-39 -36 -88 -15 -48 -35 -95 -43 -104 -15 -16 -18 -14 -49 30 -19 26 -32 54
-29 62 4 8 3 11 -1 8 -4 -4 -24 21 -45 55 -99 158 -152 300 -206 552 -25 120
-28 148 -28 355 0 205 2 231 23 305 30 105 85 187 191 286 80 75 141 149 141
172 0 5 -18 -7 -39 -26 -22 -20 -91 -61 -154 -92 -151 -74 -178 -98 -215 -187
-16 -40 -33 -89 -36 -108 -7 -33 -6 -34 9 -16 8 11 15 16 15 10 0 -5 9 9 19
31 10 22 26 49 35 60 15 20 15 20 16 -3 0 -13 -7 -52 -16 -87 -13 -52 -14 -74
-6 -107 7 -27 8 -58 2 -83 -5 -22 -14 -74 -20 -115 -7 -41 -25 -111 -40 -155
-36 -103 -53 -170 -48 -186 2 -7 15 18 29 56 30 87 54 98 64 31 10 -63 2 -120
-29 -201 -40 -108 -57 -208 -58 -340 -1 -127 -7 -122 -28 23 -9 58 -8 94 4
178 19 123 18 114 8 114 -12 0 -30 -63 -38 -132 -4 -32 -10 -58 -14 -58 -12 0
-69 31 -76 41 -6 10 9 148 27 249 28 164 142 492 164 473 4 -5 5 -3 2 4 -4 6
-3 23 3 38 21 55 -11 11 -61 -85 -47 -89 -111 -177 -208 -283 -100 -109 -260
-405 -282 -522 -7 -37 -6 -38 8 -20 9 11 36 63 61 115 47 99 138 210 172 210
9 0 35 16 58 36 23 19 42 33 42 29 0 -3 -7 -38 -16 -78 -15 -67 -22 -78 -93
-157 -131 -144 -287 -353 -360 -482 l-30 -52 5 115 c3 63 9 151 15 196 8 72
18 111 60 243 6 19 36 88 66 153 31 65 53 120 51 123 -6 6 -70 -98 -96 -156
-58 -131 -139 -395 -162 -530 -17 -97 -17 -381 0 -538 9 -82 11 -179 7 -290
-6 -156 -13 -204 -46 -286 -18 -45 -22 -26 -6 27 15 49 33 317 21 306 -3 -3
-11 -46 -17 -95 -19 -151 -102 -306 -214 -398 l-45 -37 19 45 c65 151 84 266
98 583 4 113 -3 251 -12 218 -2 -5 -6 -23 -10 -39 -5 -22 -9 -26 -15 -16 -5 8
-11 -12 -15 -56 -4 -38 -14 -86 -21 -108 -8 -21 -14 -55 -15 -75 0 -33 -3 -30
-25 34 -14 39 -31 111 -39 160 -28 187 -45 514 -27 542 4 6 15 -46 25 -116 10
-70 21 -140 26 -156 4 -17 7 104 7 275 -1 208 3 330 12 385 41 250 157 551
293 760 34 53 59 98 57 101 -8 8 -125 -129 -161 -188 -17 -29 -65 -117 -106
-195 -41 -78 -77 -140 -81 -138 -4 2 -7 -1 -7 -8 0 -7 -21 -49 -46 -93 -26
-45 -47 -84 -47 -88 0 -3 -12 -25 -27 -49 -45 -72 -139 -268 -166 -347 -15
-42 -40 -152 -57 -244 -26 -149 -30 -191 -30 -358 0 -146 4 -205 18 -261 l17
-72 7 205 c6 216 14 277 46 375 l20 60 1 -105 c2 -128 14 -116 32 30 6 58 19
121 27 140 16 35 16 35 23 -80 4 -67 13 -130 22 -150 9 -20 27 -76 41 -125 22
-80 24 -98 15 -165 -9 -73 -45 -188 -81 -259 -10 -19 -18 -29 -18 -21 0 24 49
250 56 262 5 7 3 8 -6 3 -10 -6 -12 -2 -6 16 20 72 15 79 -14 19 -60 -126
-100 -375 -80 -509 11 -78 9 -96 -9 -63 -20 38 -41 147 -42 222 0 51 -3 69 -9
55 -15 -36 -10 -148 11 -230 16 -63 21 -121 25 -275 2 -107 2 -190 -1 -185
-14 30 -41 134 -34 129 16 -9 10 5 -46 123 -30 63 -47 109 -38 102 14 -12 -54
125 -78 157 -20 25 -69 201 -80 281 -6 48 -14 90 -16 93 -3 3 -3 -35 0 -84 3
-58 2 -84 -5 -75 -14 21 0 -101 22 -196 11 -44 22 -102 25 -130 4 -27 15 -83
26 -124 11 -40 18 -75 16 -77 -8 -8 -88 177 -122 281 -49 150 -66 276 -66 473
0 271 -28 251 -34 -23 -2 -66 -4 -122 -4 -125 -5 -15 -64 169 -85 264 -49 222
-60 335 -61 596 0 135 4 272 8 305 5 40 4 56 -2 50 -6 -6 -17 -82 -25 -170 -9
-88 -23 -186 -31 -218 -36 -133 -55 -269 -49 -351 7 -98 -14 -232 -55 -356
-16 -47 -32 -101 -35 -120 -6 -33 -5 -32 19 15 88 177 147 318 136 324 -9 6
-8 11 3 20 12 10 18 6 35 -27 17 -33 18 -42 7 -58 -7 -10 -57 -98 -111 -194
-53 -96 -103 -182 -109 -190 -34 -41 -128 -416 -152 -602 -13 -98 -14 -144 -7
-205 6 -43 9 -80 7 -81 -6 -8 -65 194 -74 256 -18 124 -12 287 14 392 14 52
25 84 26 70 2 -21 3 -22 7 -5 61 255 92 367 124 446 43 106 53 156 18 100 -11
-18 -33 -66 -49 -105 -38 -93 -38 -68 -1 32 48 126 129 410 145 507 40 247 28
267 -27 46 -20 -79 -45 -160 -55 -180 -46 -91 -127 -227 -205 -347 -97 -150
-130 -210 -165 -309 -22 -61 -25 -90 -28 -220 -2 -108 0 -133 6 -90 12 95 25
136 71 244 24 55 44 99 45 98 1 -1 -16 -71 -37 -155 -28 -111 -43 -198 -53
-315 -21 -228 -24 -296 -12 -300 14 -5 -18 -56 -129 -212 -178 -249 -339 -522
-410 -696 -24 -60 -47 -95 -83 -133 l-51 -51 21 -25 c20 -24 20 -24 35 -5 14
19 15 18 9 -10 -5 -25 0 -39 26 -73 l33 -43 12 28 c12 28 12 28 13 -14 0 -29
7 -50 23 -69 l24 -27 -4 84 c-2 46 -9 94 -15 106 -9 17 -5 33 21 85 17 35 29
52 26 38 -4 -14 -9 -63 -12 -110 -9 -135 43 -308 91 -304 9 1 13 -3 10 -8 -6
-9 102 -115 165 -162 l26 -20 -21 25 c-35 39 -64 92 -64 117 0 31 21 70 94
171 34 47 82 124 106 170 l44 85 12 -60 c17 -81 28 -107 78 -183 24 -36 58
-94 76 -128 18 -34 40 -69 50 -78 12 -11 7 5 -15 47 -52 99 -68 174 -63 309
l4 115 44 72 c25 39 47 71 50 72 10 0 80 -97 80 -112 0 -12 -27 -98 -55 -173
-16 -42 33 18 68 82 l33 62 160 -167 c89 -92 188 -197 222 -234 34 -37 111
-114 171 -171 60 -57 154 -150 208 -207 54 -56 141 -138 193 -181 144 -117
310 -283 310 -310 l0 -22 228 6 c265 6 430 28 659 87 620 160 1174 512 1572
1000 353 432 563 903 653 1464 20 124 23 177 23 446 0 336 -12 452 -75 708
-192 787 -682 1453 -1375 1869 -103 62 -259 143 -272 143 -5 -1 24 -17 62 -36z
m904 -1104 c12 -40 17 -70 12 -64 -8 9 -41 121 -41 139 0 20 10 -5 29 -75z
m-1385 -297 c48 -159 97 -261 191 -393 25 -36 57 -85 71 -110 l26 -45 -49 50
c-45 48 -136 157 -252 304 -28 36 -49 72 -47 80 2 9 7 39 11 66 14 110 26 122
49 48z m-223 -21 c15 -11 15 -18 4 -56 -7 -23 -16 -78 -21 -122 -7 -70 -8 -75
-15 -44 -5 19 -11 87 -15 150 -8 127 -12 121 47 72z m-65 -172 c7 -52 16 -112
20 -132 l6 -36 -43 10 c-51 12 -193 5 -229 -11 -21 -9 -16 -10 30 -6 l55 5
-57 -19 c-31 -10 -77 -30 -102 -45 -50 -29 -138 -123 -142 -152 -2 -14 3 -12
18 10 l21 28 16 -29 c17 -31 91 -121 91 -110 0 3 -11 23 -25 43 -51 75 -22
139 89 196 55 29 70 32 151 32 124 1 139 -5 168 -62 27 -54 113 -177 103 -147
-42 118 -49 145 -43 151 4 5 23 -8 42 -26 27 -28 40 -56 63 -137 27 -91 32
-153 13 -153 -4 0 -16 -7 -27 -16 -12 -10 -14 -14 -4 -11 8 2 25 0 38 -4 20
-8 23 -6 17 11 -3 11 -3 25 0 30 11 17 35 -9 35 -36 0 -17 6 -24 20 -24 19 0
28 15 12 22 -21 9 -54 73 -62 125 -23 131 -28 122 38 67 60 -51 60 -50 -4 31
-24 31 -29 42 -15 30 21 -18 24 -18 18 -2 -6 16 -5 16 21 0 18 -11 10 1 -24
38 -62 66 -102 129 -82 129 25 0 102 -56 166 -120 34 -35 62 -67 62 -72 0 -5
-8 -11 -17 -14 -45 -15 -46 -17 -8 -25 78 -15 84 -13 78 26 -6 39 1 43 30 18
20 -18 20 -18 2 12 l-19 30 36 -34 36 -33 -23 -52 c-39 -84 -117 -163 -199
-201 -39 -18 -80 -35 -91 -38 -18 -4 -18 -5 3 -6 19 -1 111 15 200 34 40 9 24
-20 -47 -88 -44 -42 -97 -79 -143 -101 -40 -20 -66 -36 -57 -36 40 0 137 39
284 114 l160 81 -6 -100 c-3 -57 -13 -119 -23 -145 -20 -52 -38 -208 -26 -230
5 -9 10 5 15 40 4 30 13 69 20 85 13 29 13 28 14 -36 2 -119 51 -263 105 -308
20 -17 20 -8 0 30 -22 44 -34 133 -27 201 7 68 29 101 88 132 43 24 51 17 60
-54 8 -60 62 -230 81 -255 15 -19 16 -18 10 15 -3 19 6 1 20 -40 14 -41 29
-79 34 -84 23 -23 17 6 -15 87 -40 98 -50 151 -41 202 l7 35 49 -52 c26 -29
51 -50 55 -46 4 3 -8 19 -25 35 -40 35 -100 158 -100 204 0 28 4 35 20 35 11
0 20 -4 20 -8 0 -4 -5 -8 -12 -8 -6 0 -4 -8 7 -20 9 -10 20 -18 24 -17 3 1 24
-16 46 -36 54 -51 156 -123 141 -99 -3 6 2 15 11 21 16 9 14 10 -10 11 -40 0
-88 27 -81 45 4 8 14 15 23 15 11 1 9 5 -9 16 l-25 15 26 -4 c19 -3 25 1 27
17 0 11 -7 29 -16 40 -17 18 -16 19 38 12 67 -9 93 -24 110 -67 13 -30 12 -33
-16 -55 -16 -13 -26 -24 -22 -24 3 0 14 -3 24 -7 12 -4 15 -3 10 5 -4 8 -2 10
7 6 8 -3 18 -1 22 5 3 6 11 11 17 11 17 0 0 -61 -30 -105 -44 -66 -53 -85 -35
-78 33 13 -87 -151 -132 -179 -27 -18 -28 -19 -5 -13 14 4 49 23 78 42 30 19
55 33 57 31 7 -7 -51 -136 -79 -174 -16 -21 -47 -52 -68 -67 -67 -47 -33 -43
47 6 l75 46 0 -79 c0 -68 -6 -96 -50 -220 -100 -285 -181 -408 -533 -819 -59
-69 -120 -146 -134 -171 -57 -98 -156 -241 -174 -250 -27 -15 -140 5 -193 35
-54 30 -84 33 -38 4 18 -12 31 -24 28 -26 -5 -5 -146 84 -146 92 0 3 10 1 23
-5 41 -20 -34 37 -87 66 -80 44 -278 181 -475 328 -99 74 -181 129 -181 122 0
-7 7 -19 15 -26 8 -7 15 -17 15 -22 0 -6 -31 19 -69 54 -38 34 -156 142 -261
237 -245 223 -290 277 -319 379 -12 42 -29 92 -37 110 -17 39 -17 45 -4 37 6
-4 18 -23 27 -43 21 -47 29 -21 10 33 -17 48 -66 85 -114 85 -47 0 -88 23
-153 86 -30 30 -71 59 -90 65 -83 28 -156 101 -214 217 -41 81 -44 129 -12
198 39 85 139 264 148 264 16 0 7 -45 -14 -67 -12 -13 -17 -23 -11 -23 20 0
62 40 65 63 3 19 7 16 30 -23 31 -54 54 -117 46 -126 -4 -3 -22 -1 -41 5 -19
6 -41 9 -49 6 -22 -9 -64 -89 -84 -163 -19 -69 -29 -67 -43 11 l-7 42 -8 -53
c-9 -60 3 -86 77 -174 46 -55 73 -72 130 -82 23 -4 54 -22 78 -43 21 -19 39
-31 39 -26 0 21 -47 79 -74 92 -20 9 -25 16 -17 24 7 7 22 5 50 -8 34 -15 44
-27 67 -81 15 -35 31 -64 36 -64 11 0 10 13 -1 26 -5 5 -17 34 -26 64 -23 72
-38 93 -85 124 -47 31 -49 46 -20 138 39 124 38 147 -11 234 -23 43 -58 95
-77 116 -29 32 -32 39 -17 44 31 12 71 -45 119 -168 26 -65 57 -155 71 -202
67 -231 176 -453 278 -564 49 -52 69 -56 28 -4 -45 56 -97 168 -120 257 -30
114 -26 120 23 28 23 -45 62 -107 86 -139 51 -67 73 -121 91 -223 11 -62 14
-70 22 -50 13 36 20 325 10 402 l-10 69 26 -34 c44 -56 104 -119 109 -113 3 2
-7 22 -22 44 -33 48 -45 95 -46 179 0 55 5 73 37 130 48 88 114 192 122 192
11 0 53 -69 77 -127 29 -72 30 -121 3 -209 -34 -111 -64 -169 -108 -209 -65
-61 -52 -78 18 -22 130 102 167 136 212 195 27 36 49 62 49 58 0 -10 -56 -115
-81 -155 -22 -33 -22 -33 -2 -22 52 27 141 151 182 251 9 24 10 24 11 -10 l2
-35 9 30 c18 56 22 265 8 395 -18 170 -16 205 21 355 23 93 43 149 71 196 88
152 244 336 334 395 l50 32 14 -31 c7 -18 19 -75 27 -127z m114 -10 c7 -30 21
-75 32 -99 l18 -43 -22 6 c-13 3 -31 6 -40 6 -16 0 -18 12 -18 102 0 109 8
117 30 28z m106 7 c8 -50 8 -50 13 -18 l6 34 82 -105 c44 -58 89 -118 98 -132
l17 -26 -113 40 c-62 23 -115 42 -116 44 -7 7 -23 123 -23 167 0 80 24 77 36
-4z m-61 -171 c11 -8 25 -27 31 -43 l11 -29 -51 25 c-28 14 -52 26 -52 26 -1
0 -5 11 -9 24 -7 22 -5 23 21 17 16 -4 38 -13 49 -20z m439 -110 c-6 -15 -9
-13 -23 11 -34 56 -34 70 -1 37 21 -21 29 -36 24 -48z m701 -143 c-67 -127
-147 -254 -196 -308 -66 -74 -303 -254 -293 -223 5 17 3 20 -10 15 -9 -4 -16
-4 -16 -1 0 13 42 85 66 113 25 30 144 118 144 107 0 -11 -63 -76 -69 -71 -4
2 -8 -2 -8 -10 0 -8 3 -15 7 -15 15 0 124 107 206 202 49 56 97 112 107 123
10 11 32 41 49 68 17 26 33 47 35 47 2 0 -8 -21 -22 -47z m581 -108 c8 -92
-13 -387 -28 -396 -8 -5 -57 -139 -132 -367 -16 -46 -30 -82 -32 -79 -2 2 10
44 26 93 88 257 130 496 135 769 1 50 3 99 5 110 4 33 19 -42 26 -130z m-557
-90 c-12 -148 -28 -208 -67 -251 -15 -17 -22 -23 -16 -15 32 43 54 104 54 146
0 33 -3 44 -12 39 -8 -5 -9 -2 -4 12 4 10 12 42 17 69 10 56 32 136 36 132 1
-2 -2 -61 -8 -132z m-503 -162 c-41 -81 -69 -172 -72 -230 -1 -34 -5 -67 -8
-72 -3 -5 -7 -54 -8 -108 l-1 -98 -13 50 c-17 70 -17 220 1 285 17 64 56 145
87 177 28 30 32 29 14 -4z m142 -167 c-9 -56 -13 -65 -20 -46 -9 25 -1 88 15
108 16 20 17 10 5 -62z m-3018 27 c-11 -17 -11 -17 -6 0 3 10 6 24 7 30 0 9 2
9 5 0 3 -7 0 -20 -6 -30z m3907 -65 c-3 -7 -5 -2 -5 12 0 14 2 19 5 13 2 -7 2
-19 0 -25z m-477 -51 c0 -10 -4 -15 -10 -12 -5 3 -10 18 -10 33 0 21 2 24 10
12 5 -8 10 -23 10 -33z m467 11 c-3 -8 -6 -5 -6 6 -1 11 2 17 5 13 3 -3 4 -12
1 -19z m-3988 -59 c-12 -41 -29 -279 -30 -409 0 -114 -12 -197 -46 -308 -26
-87 -64 -147 -173 -272 -72 -83 -154 -188 -169 -218 -24 -45 -22 -14 3 52 30
80 76 165 166 306 84 131 121 201 95 180 -17 -14 -18 -13 -13 15 36 218 70
420 77 462 9 47 89 238 97 230 2 -2 -1 -19 -7 -38z m461 -16 c19 -24 21 -36
15 -81 -5 -44 -3 -57 11 -73 15 -17 16 -24 6 -39 -7 -11 -12 -31 -12 -46 0
-22 -4 -25 -27 -22 -21 2 -33 16 -60 68 -32 62 -33 67 -23 119 11 61 33 101
55 101 7 0 23 -12 35 -27z m3370 -449 c-42 -78 -97 -159 -118 -176 -9 -7 -1
10 19 37 19 28 55 85 79 127 52 88 67 98 20 12z m-3231 -427 c39 -116 73 -160
144 -183 28 -9 86 -33 127 -54 41 -20 91 -43 110 -50 40 -15 208 -128 260
-175 20 -17 58 -46 84 -64 l49 -34 -24 34 c-13 19 -32 44 -43 57 -11 12 -15
22 -9 22 6 0 16 -7 23 -15 7 -8 16 -13 20 -10 12 8 127 -124 149 -170 11 -22
38 -58 60 -80 40 -38 41 -41 41 -105 0 -36 6 -98 14 -138 8 -42 11 -86 6 -105
-10 -46 -38 -102 -61 -123 -35 -32 -25 -47 29 -40 26 3 79 9 117 11 l70 5
-105 -30 c-58 -16 -118 -30 -133 -30 -30 0 -97 -25 -97 -36 0 -3 9 -4 21 -1
11 3 38 -1 60 -8 36 -13 41 -12 84 11 25 14 43 29 40 33 -2 5 25 16 60 26 36
9 68 21 71 26 3 5 58 9 122 9 l117 -1 -95 -90 c-136 -129 -303 -270 -390 -330
-82 -56 -146 -113 -162 -144 -6 -11 12 1 39 28 62 60 74 60 28 0 -19 -25 -38
-58 -41 -72 -8 -39 -36 -101 -45 -101 -4 0 -119 110 -256 244 -276 271 -264
254 -316 456 -37 141 -51 267 -50 441 0 124 4 166 19 210 25 73 26 211 2 236
-10 9 -19 15 -22 12 -2 -2 -7 -80 -11 -174 -3 -93 -10 -219 -15 -280 -6 -60
-10 -190 -10 -287 0 -97 -3 -183 -6 -192 -5 -14 -11 -12 -38 10 -42 36 -304
331 -373 421 l-55 72 20 54 c11 30 28 89 36 133 36 179 46 202 61 153 13 -39
135 -217 170 -248 20 -17 50 -38 68 -47 30 -16 31 -16 18 -1 -7 10 -11 17 -8
17 3 0 -21 27 -54 60 -95 97 -159 262 -159 409 0 54 23 93 101 170 56 56 90
104 92 131 3 39 16 19 46 -73z m-437 -684 c-8 -13 -15 -7 -42 32 l-32 47 30
66 c17 37 34 78 39 92 5 17 9 -15 11 -98 1 -67 -1 -130 -6 -139z m1374 75 l29
-33 -32 29 c-31 28 -38 36 -30 36 2 0 16 -15 33 -32z m110 -79 c13 -22 -25 -6
-52 22 l-29 31 38 -22 c20 -12 40 -26 43 -31z m-921 -631 c4 -10 4 -18 1 -18
-11 0 -36 72 -29 84 4 6 10 -2 14 -19 4 -17 10 -38 14 -47z"/>
<path d="M3335 3824 c-93 -48 -125 -147 -69 -213 22 -27 23 -31 8 -31 -40 0 5
-18 70 -28 55 -9 83 -21 138 -57 69 -46 104 -57 54 -17 -22 16 -25 25 -20 51
5 22 11 30 20 27 27 -10 13 14 -16 29 -49 25 -38 45 13 26 25 -10 25 -10 23
50 -1 32 -1 59 1 59 1 0 7 -15 13 -32 l10 -33 -5 39 c-12 105 -148 178 -240
130z"/>
<path d="M3160 3642 c0 -12 49 -56 55 -50 3 2 -8 17 -25 31 -16 15 -30 23 -30
19z"/>
<path d="M3985 3630 c3 -5 15 -10 25 -10 10 0 22 5 25 10 4 6 -7 10 -25 10
-18 0 -29 -4 -25 -10z"/>
<path d="M3155 3580 c-3 -5 1 -10 9 -10 9 0 16 5 16 10 0 6 -4 10 -9 10 -6 0
-13 -4 -16 -10z"/>
<path d="M3200 3549 c0 -5 5 -7 10 -4 6 3 10 8 10 11 0 2 -4 4 -10 4 -5 0 -10
-5 -10 -11z"/>
<path d="M3450 3446 c28 -17 50 -21 35 -7 -6 5 -21 12 -35 15 l-25 7 25 -15z"/>
<path d="M3570 3440 c-23 -7 -22 -8 11 -9 20 -1 48 -10 62 -21 40 -31 56 -23
19 10 -33 31 -48 34 -92 20z"/>
<path d="M3545 3390 c-19 -8 -19 -9 2 -9 12 -1 28 -8 37 -16 13 -14 66 -22 66
-10 0 3 -8 14 -17 25 -18 21 -53 25 -88 10z"/>
<path d="M3877 3326 c-21 -13 -59 -26 -85 -30 -26 -4 -67 -10 -92 -15 -41 -8
-38 -9 38 -10 53 -1 81 -5 77 -11 -16 -26 21 -6 63 34 54 51 54 65 -1 32z"/>
<path d="M3640 3330 c0 -6 7 -10 15 -10 8 0 15 2 15 4 0 2 -7 6 -15 10 -8 3
-15 1 -15 -4z"/>
<path d="M3758 3183 c7 -3 16 -2 19 1 4 3 -2 6 -13 5 -11 0 -14 -3 -6 -6z"/>
<path d="M4550 3077 c0 -16 38 -53 45 -45 3 3 1 17 -4 32 -11 27 -41 36 -41
13z"/>
<path d="M4637 3009 c12 -12 25 -20 28 -17 3 3 -7 13 -22 23 l-28 17 22 -23z"/>
<path d="M4845 2940 c3 -5 8 -10 11 -10 2 0 4 5 4 10 0 6 -5 10 -11 10 -5 0
-7 -4 -4 -10z"/>
<path d="M4816 2925 c4 -8 8 -15 10 -15 2 0 4 7 4 15 0 8 -4 15 -10 15 -5 0
-7 -7 -4 -15z"/>
<path d="M3189 2611 l-44 -38 18 -57 c20 -62 32 -74 23 -23 -5 24 -4 27 3 12
5 -11 10 -29 10 -41 1 -29 31 -127 38 -121 2 3 -1 40 -8 81 -6 42 -9 79 -6 82
3 4 34 -20 69 -53 99 -93 270 -225 361 -277 36 -22 63 -29 115 -31 l67 -3 -55
22 c-80 33 -158 74 -166 88 -5 7 -2 10 7 6 64 -23 151 -49 155 -45 2 2 -33 18
-78 36 -149 57 -173 86 -29 36 40 -14 100 -32 134 -40 34 -8 91 -24 126 -35
36 -10 66 -18 68 -16 9 8 -139 61 -284 101 -89 24 -178 51 -199 60 -67 28
-200 115 -244 160 l-45 46 16 44 c21 57 7 59 -52 6z"/>
<path d="M4550 2558 c-30 -28 -78 -66 -107 -86 -42 -27 -53 -40 -53 -61 1 -24
1 -25 12 -6 14 26 38 45 57 45 11 0 10 -4 -5 -14 -17 -13 -18 -15 -2 -21 33
-13 105 50 143 126 22 43 31 69 23 69 -7 -1 -38 -24 -68 -52z"/>
<path d="M4290 2556 c0 -3 13 -11 29 -19 26 -13 30 -13 35 0 9 22 8 23 -29 23
-19 0 -35 -2 -35 -4z"/>
<path d="M4016 2191 c-3 -4 36 -28 87 -52 l92 -44 -55 -4 -55 -3 70 -19 c39
-10 87 -18 108 -18 43 -1 42 -20 -1 -22 -21 -1 -17 -4 17 -12 31 -7 52 -7 75
1 18 7 42 12 54 12 12 0 22 5 22 10 0 6 -13 10 -30 10 -31 0 -73 17 -230 93
-101 48 -145 62 -154 48z"/>
<path d="M4120 2195 c0 -4 175 -95 182 -95 2 0 3 12 3 28 1 34 -12 43 -50 36
-19 -3 -50 2 -83 15 -29 11 -52 19 -52 16z"/>
<path d="M3938 2113 c7 -3 16 -2 19 1 4 3 -2 6 -13 5 -11 0 -14 -3 -6 -6z"/>
<path d="M4008 2103 c7 -3 16 -2 19 1 4 3 -2 6 -13 5 -11 0 -14 -3 -6 -6z"/>
<path d="M4048 2093 c7 -3 16 -2 19 1 4 3 -2 6 -13 5 -11 0 -14 -3 -6 -6z"/>
<path d="M4077 1809 c-44 -17 -58 -18 -139 -8 -49 6 -92 8 -95 5 -4 -3 1 -6
11 -6 14 0 112 -44 125 -56 3 -3 -14 -23 -38 -45 -48 -46 -48 -58 -1 -34 18 9
29 12 26 6 -15 -24 44 -10 68 17 143 158 145 161 43 121z"/>
<path d="M2431 4554 c-21 -26 -73 -155 -85 -209 -4 -16 23 23 59 88 36 65 65
124 65 132 0 23 -16 18 -39 -11z"/>
<path d="M4501 3825 c-12 -31 -32 -78 -47 -106 -14 -28 -24 -53 -21 -55 5 -6
61 65 80 102 21 41 33 114 19 114 -6 0 -20 -25 -31 -55z"/>
<path d="M2756 3741 c-6 -9 31 -231 40 -240 9 -9 4 124 -8 185 -11 60 -20 75
-32 55z"/>
<path d="M928 3413 c-108 -246 -219 -448 -295 -535 -32 -36 -93 -98 -135 -138
-136 -125 -217 -255 -268 -428 -34 -116 -24 -110 59 38 23 41 50 86 60 99 34
44 -12 -110 -48 -162 -39 -57 -111 -200 -112 -224 -2 -34 -17 30 -19 82 -2 41
-3 45 -10 25 -14 -45 -10 -126 9 -183 26 -76 112 -279 117 -275 2 2 -8 40 -22
83 -20 60 -27 106 -29 185 -2 96 0 109 23 153 27 51 63 90 48 52 -20 -48 -15
-56 8 -15 30 53 31 51 10 -15 -16 -53 -19 -140 -7 -215 6 -40 8 -33 20 73 14
133 36 197 104 300 l44 68 3 -95 c2 -65 -4 -125 -18 -194 -23 -116 -26 -283
-5 -407 11 -72 13 -76 15 -35 l2 45 8 -48 c5 -27 12 -52 16 -55 4 -4 4 11 0
33 -13 78 -18 369 -8 395 9 21 11 16 12 -35 2 -162 44 -380 97 -497 l26 -58
-45 -77 c-25 -43 -43 -84 -40 -92 8 -21 35 20 93 139 67 138 65 134 93 220 81
246 220 609 287 750 48 101 38 95 -24 -12 -24 -43 -47 -75 -52 -70 -4 4 -5 -2
-1 -13 4 -11 4 -16 0 -12 -9 9 -43 -30 -59 -67 -12 -28 -13 -25 -20 55 -4 47
-2 139 5 209 6 69 13 142 15 163 2 21 0 35 -6 32 -5 -4 -9 -12 -9 -19 0 -7 -9
-42 -21 -77 -12 -38 -23 -107 -27 -169 -9 -152 -22 -71 -20 130 1 129 5 171
26 253 22 87 24 122 7 105 -4 -3 -24 -52 -46 -109 -85 -224 -147 -502 -150
-679 -2 -82 17 -339 25 -347 2 -3 7 35 11 84 7 100 13 126 14 68 1 -22 5 -56
10 -76 5 -21 3 -66 -4 -113 -7 -43 -11 -86 -8 -95 2 -9 -7 -46 -20 -81 l-24
-65 -17 53 c-42 126 -58 234 -63 437 -10 358 25 614 117 850 27 72 50 134 50
139 0 5 42 98 94 205 90 189 142 311 130 311 -3 0 -15 -21 -26 -47z m-347
-770 c-12 -20 -14 -14 -5 12 4 9 9 14 11 11 3 -2 0 -13 -6 -23z m-25 -104 c-8
-41 -21 -112 -28 -159 -9 -59 -14 -75 -16 -52 -6 57 41 302 55 288 2 -2 -2
-37 -11 -77z"/>
</g>
</svg>
