<?xml version="1.0" standalone="no"?>
<!DOCTYPE svg PUBLIC "-//W3C//DTD SVG 20010904//EN"
 "http://www.w3.org/TR/2001/REC-SVG-20010904/DTD/svg10.dtd">
<svg version="1.0" xmlns="http://www.w3.org/2000/svg"
 width="1981.000000pt" height="1868.000000pt" viewBox="0 0 1981.000000 1868.000000"
 preserveAspectRatio="xMidYMid meet">
<metadata>
Created by potrace 1.16, written by Peter Selinger 2001-2019
</metadata>
<g transform="translate(0.000000,1868.000000) scale(0.100000,-0.100000)"
fill="#000000" stroke="none">
<path d="M14199 18250 c-621 -60 -1147 -449 -1555 -1150 -387 -666 -639 -1613
-730 -2735 -21 -271 -30 -1083 -15 -1400 58 -1175 266 -2363 622 -3535 134
-443 347 -1024 504 -1380 25 -58 54 -123 63 -145 9 -22 35 -80 59 -128 24 -48
43 -90 43 -93 0 -8 221 -448 232 -461 6 -7 8 -20 4 -28 -3 -9 -2 -14 3 -11 4
3 34 -43 66 -102 32 -59 67 -120 78 -136 13 -19 15 -26 6 -21 -7 4 -5 -3 7
-16 11 -13 31 -41 43 -62 20 -32 21 -40 9 -55 -11 -15 -11 -16 3 -4 14 11 20
8 38 -23 12 -20 18 -41 15 -47 -4 -6 -3 -8 3 -5 5 3 17 -7 27 -24 9 -16 13
-29 7 -29 -5 0 -11 5 -13 10 -2 7 -11 5 -23 -4 -20 -15 -20 -15 3 -9 12 3 22
1 22 -5 0 -5 8 -9 17 -8 11 1 59 -63 147 -195 304 -454 520 -724 824 -1032
235 -238 424 -398 648 -550 828 -561 1628 -593 2300 -91 110 81 300 269 400
393 540 672 885 1730 998 3061 30 345 39 645 33 1085 -6 425 -12 544 -42 905
-203 2383 -1039 4803 -2203 6370 -215 289 -384 485 -626 725 -531 525 -1073
838 -1596 919 -123 20 -312 27 -421 16z m571 -701 c212 -26 379 -77 595 -183
448 -220 903 -629 1324 -1191 899 -1198 1589 -2955 1905 -4850 349 -2092 168
-4045 -482 -5173 -242 -421 -569 -732 -907 -863 -477 -185 -994 -97 -1531 260
-360 239 -710 584 -1046 1032 -422 563 -807 1269 -1133 2079 -85 210 -195 509
-195 527 0 6 10 13 23 16 12 2 78 21 147 41 132 39 474 139 725 211 205 59
490 142 545 159 25 7 135 39 245 71 110 32 204 62 210 66 5 5 -18 9 -52 9 -63
0 -182 33 -258 71 -87 44 -141 75 -153 86 -7 7 -16 13 -20 13 -4 0 -29 20 -55
45 -49 45 -67 54 -67 34 0 -8 -4 -8 -15 1 -16 14 -175 4 -175 -10 0 -5 -41
-12 -90 -16 -50 -3 -93 -11 -96 -15 -3 -5 -16 -9 -30 -9 -13 0 -24 -4 -24 -10
0 -5 -18 -10 -40 -10 -29 0 -40 -4 -40 -15 0 -11 -11 -15 -40 -15 -22 0 -40 5
-40 10 0 12 -73 -16 -78 -30 -2 -6 -21 -10 -43 -10 -21 0 -39 -4 -39 -9 0 -5
-37 -12 -82 -16 -46 -4 -98 -13 -117 -21 -18 -8 -53 -14 -77 -14 -24 0 -44 -4
-44 -10 0 -5 -21 -10 -47 -10 -27 0 -57 -7 -67 -15 -12 -9 -42 -15 -73 -15
-29 0 -53 -4 -53 -9 0 -4 -24 -11 -52 -15 -29 -3 -65 -9 -79 -12 -24 -5 -27
-2 -36 33 -6 21 -34 118 -62 216 -117 401 -251 1000 -325 1447 -299 1808 -206
3530 256 4695 200 505 475 903 790 1140 302 228 651 328 998 284z m-2550
-2715 c-20 -171 -29 -279 -24 -296 3 -10 1 -18 -4 -18 -5 0 -12 -69 -16 -152
-4 -84 -9 -178 -11 -208 -10 -132 -14 -891 -5 -960 5 -41 12 -147 15 -235 7
-213 26 -499 34 -505 3 -3 6 -18 7 -35 0 -29 12 -175 18 -225 2 -14 9 -74 15
-135 7 -60 17 -141 22 -180 6 -38 15 -104 20 -145 6 -41 12 -86 15 -100 2 -14
12 -85 23 -158 11 -73 25 -155 31 -182 6 -27 9 -54 5 -60 -4 -6 -1 -18 6 -26
7 -8 18 -52 25 -97 7 -45 20 -120 29 -167 9 -47 20 -110 25 -140 4 -30 12 -68
18 -85 10 -27 24 -88 82 -345 37 -166 150 -606 166 -644 8 -22 19 -58 24 -80
5 -23 18 -68 29 -101 11 -33 32 -100 47 -150 31 -106 102 -321 115 -350 5 -11
16 -42 23 -70 17 -60 62 -189 81 -230 15 -33 39 -98 60 -160 20 -63 61 -162
106 -263 10 -23 19 -47 19 -52 0 -6 14 -40 32 -77 17 -37 31 -74 31 -82 0 -9
5 -23 12 -31 7 -8 25 -44 40 -80 33 -79 75 -169 125 -270 21 -41 41 -86 45
-100 4 -14 18 -41 30 -60 12 -19 28 -53 36 -75 7 -22 19 -47 26 -55 24 -30 63
-112 58 -121 -4 -5 -2 -9 4 -9 6 0 13 -11 17 -25 3 -14 10 -25 15 -25 5 0 9
-6 9 -12 0 -7 9 -24 20 -38 11 -14 20 -33 20 -42 0 -10 3 -18 8 -18 14 0 33
-53 22 -64 -6 -6 -12 1 -16 23 -4 18 -13 35 -20 38 -6 2 -18 19 -25 36 -7 18
-21 44 -32 60 -56 82 -350 674 -444 897 -8 19 -32 73 -53 120 -21 47 -43 101
-50 120 -11 30 -33 85 -71 175 -27 65 -62 154 -70 180 -6 17 -14 39 -19 50
-41 102 -69 183 -138 390 -44 132 -97 294 -117 360 -20 66 -47 156 -60 200
-14 44 -40 141 -60 215 -19 74 -42 158 -50 185 -8 28 -22 82 -31 120 -8 39
-29 126 -45 195 -17 69 -37 154 -44 190 -26 126 -55 266 -70 345 -9 44 -20
100 -25 125 -5 25 -19 99 -29 165 -91 552 -111 721 -160 1365 -38 483 -36
1171 5 1620 16 181 24 266 33 340 5 47 15 135 22 195 6 61 14 114 16 118 12
21 13 -7 3 -89z m961 -5140 c4 -10 8 -28 8 -39 -1 -11 -6 -2 -14 20 -7 22 -13
32 -14 23 -1 -9 -6 -20 -12 -24 -8 -4 -9 1 -4 16 5 15 4 20 -4 16 -6 -4 -11
-2 -11 3 0 18 43 5 51 -15z m-18 -39 c-3 -9 -8 -14 -10 -11 -3 3 -2 9 2 15 9
16 15 13 8 -4z m651 -2610 c9 -19 21 -37 26 -40 6 -3 10 -16 10 -28 -1 -22 -1
-22 -12 -2 -6 11 -14 22 -17 25 -8 7 -41 67 -41 74 0 18 20 1 34 -29z m66
-115 c6 -11 8 -20 6 -20 -3 0 -10 9 -16 20 -6 11 -8 20 -6 20 3 0 10 -9 16
-20z m40 -60 c0 -5 -2 -10 -4 -10 -3 0 -8 5 -11 10 -3 6 -1 10 4 10 6 0 11 -4
11 -10z m7 -42 c-3 -8 -6 -5 -6 6 -1 11 2 17 5 13 3 -3 4 -12 1 -19z m43 -46
c0 -15 -2 -15 -10 -2 -13 20 -13 33 0 25 6 -3 10 -14 10 -23z m90 -142 c0 -5
-2 -10 -4 -10 -3 0 -8 5 -11 10 -3 6 -1 10 4 10 6 0 11 -4 11 -10z"/>
<path d="M14810 12281 c-44 -14 -103 -57 -148 -106 -62 -69 -102 -155 -72
-155 6 0 10 6 9 13 -1 6 -1 19 0 27 1 13 2 13 12 0 8 -11 9 -8 5 15 -6 27 -5
28 6 10 7 -11 13 -42 13 -70 l1 -50 -35 -3 c-19 -1 -36 -4 -38 -5 -1 -2 -4
-25 -4 -51 -2 -28 -5 -42 -10 -34 -6 8 -8 2 -9 -17 0 -160 2 -210 8 -215 4 -3
5 -36 1 -75 l-6 -70 -3 75 -3 75 -7 -60 c-4 -33 -7 -53 -8 -45 -2 13 -3 13
-12 0 -8 -13 -10 -12 -10 3 0 9 4 17 9 17 12 0 22 118 15 173 -11 78 -19 53
-18 -55 1 -91 1 -95 -5 -38 l-8 65 -1 -85 c-1 -47 1 -110 5 -140 6 -49 8 -52
14 -25 5 24 7 19 8 -25 0 -42 -2 -51 -10 -40 -8 11 -9 6 -4 -20 4 -19 7 -42 7
-50 0 -62 84 -362 121 -435 11 -22 18 -40 17 -40 -2 0 13 -31 34 -70 109 -198
225 -327 354 -391 67 -34 86 -38 147 -38 87 0 147 25 208 86 178 179 239 557
156 973 -34 170 -122 403 -200 533 -46 76 -122 171 -132 165 -6 -3 -7 -1 -3 5
9 16 -89 97 -168 139 -58 30 -82 37 -141 39 -38 2 -81 0 -95 -5z m12 -23 c14
14 42 16 33 2 -4 -7 6 -9 27 -7 37 5 93 -15 81 -28 -5 -4 1 -5 12 -1 13 5 16
4 10 -2 -5 -6 -59 -12 -118 -14 -59 -2 -100 0 -90 4 16 6 16 7 -2 7 -12 1 -26
-4 -33 -11 -9 -9 -15 -9 -23 -1 -8 8 -7 13 2 18 8 5 10 4 5 -3 -11 -18 8 -14
26 6 34 35 43 40 50 28 5 -8 11 -7 20 2z m-104 -76 c2 -7 -2 -10 -12 -6 -21 8
-20 -6 2 -22 14 -11 15 -15 3 -26 -10 -9 -12 -9 -7 0 9 15 -6 16 -21 1 -14
-14 -43 -5 -42 13 0 10 2 10 6 1 2 -7 9 -13 15 -13 6 0 8 7 4 15 -3 8 -2 15 3
15 5 0 11 9 14 21 6 22 28 22 35 1z m364 -38 c-30 -23 -42 -17 -39 19 l2 34
27 -20 c25 -19 26 -21 10 -33z m54 -18 c3 -8 1 -23 -6 -33 -10 -15 -10 -14 -5
11 6 27 5 28 -22 22 -21 -5 -24 -4 -13 4 21 14 40 12 46 -4z m-496 -21 c0 -8
-2 -15 -4 -15 -2 0 -6 7 -10 15 -3 8 -1 15 4 15 6 0 10 -7 10 -15z m547 -51
c-4 -4 -20 -8 -37 -9 l-29 -2 17 29 c16 28 16 28 36 8 11 -11 17 -23 13 -26z
m28 -14 c-4 -6 -1 -18 6 -26 10 -12 9 -13 -5 -8 -16 6 -21 25 -9 37 10 11 15
8 8 -3z m83 -125 c-3 -3 -9 2 -12 12 -6 14 -5 15 5 6 7 -7 10 -15 7 -18z m21
-43 c-1 -15 -2 -15 -6 1 -2 9 -9 14 -15 11 -7 -4 -8 -2 -4 5 10 15 26 4 25
-17z m-762 -89 c-3 -10 -5 -4 -5 12 0 17 2 24 5 18 2 -7 2 -21 0 -30z m0 -85
c-3 -8 -6 -5 -6 6 -1 11 2 17 5 13 3 -3 4 -12 1 -19z m-20 -255 c-3 -10 -5 -4
-5 12 0 17 2 24 5 18 2 -7 2 -21 0 -30z m10 -80 c-3 -10 -5 -4 -5 12 0 17 2
24 5 18 2 -7 2 -21 0 -30z m0 -95 c-3 -8 -6 -5 -6 6 -1 11 2 17 5 13 3 -3 4
-12 1 -19z m90 -320 c-3 -8 -6 -5 -6 6 -1 11 2 17 5 13 3 -3 4 -12 1 -19z m77
-184 c3 -8 2 -12 -4 -9 -6 3 -10 10 -10 16 0 14 7 11 14 -7z"/>
<path d="M14782 12229 c16 -11 95 -12 101 -1 3 4 -22 7 -55 8 -35 1 -54 -2
-46 -7z"/>
<path d="M14900 12230 c0 -5 10 -10 23 -10 18 0 19 2 7 10 -19 13 -30 13 -30
0z"/>
<path d="M15050 12160 c0 -5 5 -10 10 -10 6 0 10 5 10 10 0 6 -4 10 -10 10 -5
0 -10 -4 -10 -10z"/>
<path d="M15150 12065 c0 -8 5 -15 10 -15 6 0 10 7 10 15 0 8 -4 15 -10 15 -5
0 -10 -7 -10 -15z"/>
<path d="M14606 12038 c3 -5 0 -15 -6 -23 -6 -8 -10 -22 -8 -32 3 -14 8 -10
21 16 21 42 21 48 2 48 -8 0 -12 -4 -9 -9z"/>
<path d="M14557 11998 c-8 -29 -4 -32 11 -8 6 10 8 21 3 24 -5 3 -11 -4 -14
-16z"/>
<path d="M14525 11888 c-10 -43 -16 -81 -12 -85 11 -11 20 4 22 39 1 18 5 40
9 50 4 9 6 29 4 45 -3 21 -8 8 -23 -49z"/>
<path d="M14520 10090 c0 -5 5 -10 11 -10 5 0 7 5 4 10 -3 6 -8 10 -11 10 -2
0 -4 -4 -4 -10z"/>
<path d="M14550 10063 c1 -15 30 -47 37 -40 3 4 -3 16 -15 27 -12 12 -22 17
-22 13z"/>
<path d="M15529 9913 c-13 -16 -12 -17 4 -4 9 7 17 15 17 17 0 8 -8 3 -21 -13z"/>
<path d="M5161 10364 c0 -11 3 -14 6 -6 3 7 2 16 -1 19 -3 4 -6 -2 -5 -13z"/>
<path d="M5091 10074 c0 -11 3 -14 6 -6 3 7 2 16 -1 19 -3 4 -6 -2 -5 -13z"/>
<path d="M5082 9960 c0 -19 2 -27 5 -17 2 9 2 25 0 35 -3 9 -5 1 -5 -18z"/>
<path d="M5053 9855 c0 -33 2 -45 4 -27 2 18 2 45 0 60 -2 15 -4 0 -4 -33z"/>
<path d="M5067 9756 c-4 -57 -9 -112 -13 -122 -5 -17 -4 -17 5 -2 11 16 28
228 19 228 -3 0 -8 -47 -11 -104z"/>
<path d="M4921 9629 c0 -30 4 -76 9 -104 6 -35 6 -19 3 50 -6 108 -14 142 -12
54z"/>
<path d="M5071 9545 c-1 -48 -7 -90 -16 -105 l-14 -25 -1 31 c0 30 -2 32 -44
36 l-44 3 -7 -66 c-4 -39 -3 -75 3 -86 6 -10 8 -31 5 -46 -7 -36 19 -208 47
-317 5 -19 16 -66 25 -105 9 -38 19 -77 22 -85 3 -8 7 -22 9 -31 8 -39 106
-325 115 -334 14 -14 11 -35 -6 -35 -8 0 -15 -2 -15 -5 0 -13 76 -171 87 -183
7 -8 25 -39 40 -70 27 -57 61 -112 77 -123 5 -4 9 -18 9 -33 0 -15 5 -26 13
-26 13 0 17 -10 12 -27 -2 -5 -25 -6 -52 -4 -30 2 -51 -1 -56 -9 -5 -8 -61
-14 -166 -19 -88 -5 -140 -9 -116 -9 53 -2 56 -22 2 -22 -22 0 -40 -4 -40 -10
0 -6 -33 -10 -79 -10 -45 0 -81 -4 -83 -10 -2 -6 -55 -13 -121 -17 -88 -5
-117 -9 -117 -20 0 -10 -20 -13 -80 -13 -47 0 -80 -4 -80 -10 0 -6 -33 -10
-80 -10 -79 0 -80 0 -80 -25 0 -22 -4 -25 -40 -25 -22 0 -40 5 -40 10 0 6 -18
10 -40 10 -29 0 -40 -4 -40 -15 0 -12 -16 -15 -80 -15 -47 0 -80 -4 -80 -10 0
-6 -33 -10 -80 -10 -64 0 -80 -3 -80 -15 0 -13 -25 -15 -162 -17 -90 -1 -144
-3 -120 -5 53 -5 55 -23 2 -23 -22 0 -40 -4 -40 -10 0 -6 -33 -10 -80 -10 -44
0 -80 -4 -80 -9 0 -5 -36 -12 -80 -16 -58 -5 -80 -11 -80 -21 0 -11 -24 -14
-120 -14 -73 0 -120 -4 -120 -10 0 -5 -18 -10 -40 -10 -29 0 -40 -4 -40 -15 0
-13 -25 -15 -162 -17 -90 -1 -144 -3 -120 -5 73 -7 46 -23 -38 -23 -47 0 -80
-4 -80 -10 0 -6 -33 -10 -80 -10 l-80 0 -1 -32 c0 -20 -3 -27 -7 -18 -9 19
-44 20 -50 1 -3 -9 0 -11 8 -6 9 5 11 4 6 -3 -11 -18 4 -37 16 -21 6 10 7 7 3
-9 -4 -13 -1 -28 7 -36 7 -7 20 -24 28 -36 14 -21 39 -54 91 -123 28 -36 224
-235 269 -273 19 -16 52 -40 72 -54 21 -14 38 -28 38 -32 0 -5 5 -8 11 -8 6 0
31 -14 56 -31 55 -38 277 -149 298 -149 8 0 15 -4 15 -9 0 -4 15 -11 33 -15
119 -23 210 -44 197 -46 -11 -1 -9 -4 5 -11 16 -7 13 -8 -12 -4 -18 2 -33 1
-33 -4 0 -20 63 -18 150 5 52 13 112 24 134 24 51 0 185 24 251 45 55 18 186
45 215 45 13 0 55 -59 147 -207 71 -115 143 -230 160 -258 18 -27 54 -86 81
-130 27 -44 86 -141 132 -215 46 -74 122 -198 169 -275 116 -190 131 -210 143
-193 6 9 7 6 3 -10 -4 -15 -1 -30 8 -40 8 -9 30 -44 48 -77 44 -82 50 -89 62
-73 6 9 7 8 3 -4 -3 -10 -3 -25 0 -33 6 -14 8 -13 20 2 16 21 18 10 4 -17 -10
-18 -6 -22 115 -118 23 -18 32 -20 45 -10 12 8 11 8 -5 3 -15 -5 -17 -3 -8 6
17 17 37 1 21 -18 -10 -13 -8 -19 17 -39 30 -24 51 -32 41 -16 -3 5 5 7 17 6
12 -1 33 -3 46 -3 36 -1 19 -11 -22 -13 -20 -1 -34 -4 -32 -8 2 -4 30 -27 62
-51 32 -24 93 -72 136 -106 44 -35 83 -61 88 -57 5 3 6 -3 2 -12 -4 -12 -3
-15 5 -10 7 4 12 1 12 -9 0 -32 42 -115 59 -115 10 0 12 -3 5 -8 -8 -5 -3 -23
16 -61 18 -34 30 -48 34 -40 3 8 3 4 0 -8 -4 -16 2 -26 21 -39 14 -9 25 -21
24 -28 0 -7 -2 -6 -6 2 -2 6 -9 12 -14 12 -6 0 0 -18 12 -40 20 -36 23 -38 36
-22 13 15 13 15 4 -5 -12 -24 -6 -48 17 -75 8 -10 12 -18 8 -18 -3 0 1 -14 9
-30 9 -17 20 -28 25 -25 6 4 7 -1 3 -11 -4 -11 -3 -15 5 -10 6 3 14 1 18 -5 4
-8 3 -9 -4 -5 -17 10 -15 0 12 -49 13 -25 27 -41 31 -37 5 4 5 2 1 -5 -8 -15
182 -395 195 -388 5 3 6 0 3 -8 -8 -21 64 -160 78 -151 7 4 8 3 4 -4 -9 -14
47 -135 58 -125 4 4 7 1 5 -7 -3 -18 9 -44 1107 -2205 106 -209 198 -379 204
-377 6 1 9 -2 5 -7 -8 -15 91 -208 114 -220 40 -22 571 -59 695 -49 101 9 142
37 361 250 222 216 591 589 710 718 168 181 242 314 260 464 11 90 -9 135
-146 326 -176 246 -252 351 -334 460 -96 128 -300 404 -410 555 -339 463 -429
587 -492 675 -360 505 -533 781 -533 849 0 9 30 60 67 112 202 286 223 320
223 368 0 25 -20 124 -44 221 -24 96 -43 188 -41 205 1 16 -13 62 -32 103 -18
40 -33 81 -33 90 0 10 -11 60 -24 112 -13 52 -68 266 -121 475 -53 209 -106
412 -118 450 -19 63 -22 94 -22 310 l0 240 -80 0 c-44 0 -163 -3 -265 -6 -166
-6 -193 -9 -265 -34 -262 -90 -522 -67 -800 71 -49 25 -133 75 -185 112 -118
84 -306 269 -393 387 -37 50 -71 95 -76 102 -6 6 -25 35 -43 65 -105 170 -202
370 -263 545 -10 29 -21 50 -24 48 -3 -2 -6 9 -7 23 0 15 -13 67 -28 117 -15
49 -36 137 -47 195 -11 58 -24 113 -30 123 -5 10 -8 21 -5 26 3 4 0 39 -5 77
-6 38 -14 123 -18 189 -8 113 -8 116 -10 40z m5 -162 c-3 -3 -13 3 -23 13 -17
17 -17 17 0 11 13 -5 17 -1 18 16 2 16 3 15 6 -6 3 -16 2 -31 -1 -34z m-119 0
c-3 -10 -5 -4 -5 12 0 17 2 24 5 18 2 -7 2 -21 0 -30z m100 -75 c-2 -13 -4 -5
-4 17 -1 22 1 32 4 23 2 -10 2 -28 0 -40z m33 -18 c0 -50 -10 -77 -21 -58 -5
7 -8 20 -8 28 0 10 3 9 10 -5 7 -15 8 -6 6 32 -2 29 0 50 5 47 4 -3 8 -23 8
-44z m-43 -82 c-3 -7 -5 -2 -5 12 0 14 2 19 5 13 2 -7 2 -19 0 -25z m-50 -95
c-3 -10 -5 -2 -5 17 0 19 2 27 5 18 2 -10 2 -26 0 -35z m30 10 c-3 -10 -5 -4
-5 12 0 17 2 24 5 18 2 -7 2 -21 0 -30z m100 -65 c-3 -8 -6 -5 -6 6 -1 11 2
17 5 13 3 -3 4 -12 1 -19z m10 -50 c-3 -8 -6 -5 -6 6 -1 11 2 17 5 13 3 -3 4
-12 1 -19z m25 -82 c7 4 8 2 4 -5 -9 -13 -26 -5 -25 12 0 9 2 8 6 -1 2 -6 10
-9 15 -6z m28 -576 c0 -5 -4 -10 -10 -10 -5 0 -10 5 -10 10 0 6 5 10 10 10 6
0 10 -4 10 -10z m40 -71 c0 -6 -4 -7 -10 -4 -5 3 -10 11 -10 16 0 6 5 7 10 4
6 -3 10 -11 10 -16z m30 -62 c0 -18 -2 -19 -10 -7 -13 20 -13 43 0 35 6 -3 10
-16 10 -28z m350 -497 c0 -5 -5 -10 -11 -10 -5 0 -7 5 -4 10 3 6 8 10 11 10 2
0 4 -4 4 -10z m20 -30 c0 -5 -4 -10 -10 -10 -5 0 -10 5 -10 10 0 6 5 10 10 10
6 0 10 -4 10 -10z m25 -30 c3 -5 1 -10 -4 -10 -6 0 -11 5 -11 10 0 6 2 10 4
10 3 0 8 -4 11 -10z m66 -67 c13 -16 12 -17 -3 -4 -10 7 -18 15 -18 17 0 8 8
3 21 -13z m70 -70 c13 -16 12 -17 -3 -4 -10 7 -18 15 -18 17 0 8 8 3 21 -13z
m-3088 -60 c-13 -2 -33 -2 -45 0 -13 2 -3 4 22 4 25 0 35 -2 23 -4z m3225 -41
c2 -7 -2 -10 -12 -6 -9 3 -16 11 -16 16 0 13 23 5 28 -10z m106 -67 c11 -9 14
-15 7 -15 -7 0 -19 7 -27 15 -20 19 -5 19 20 0z m56 -29 c0 -11 -19 -15 -25
-6 -3 5 1 10 9 10 9 0 16 -2 16 -4z m106 -57 c15 -5 24 -12 21 -15 -5 -6 -107
43 -107 51 0 3 13 -1 30 -10 16 -8 42 -20 56 -26z m484 -439 c0 -5 -10 -15
-22 -21 -13 -7 -26 -17 -30 -23 -4 -6 -10 -7 -14 -4 -8 8 20 38 35 38 6 0 11
5 11 10 0 6 5 10 10 10 6 0 10 -4 10 -10z m13 -51 c4 -16 3 -18 -9 -8 -7 6
-11 15 -8 20 8 13 11 11 17 -12z m-93 -3 c0 -3 -4 -8 -10 -11 -5 -3 -10 -1
-10 4 0 6 5 11 10 11 6 0 10 -2 10 -4z m-66 -60 c-16 -14 -33 -25 -39 -25 -5
0 6 13 25 28 42 36 54 32 14 -3z m193 -8 c-3 -8 -6 -5 -6 6 -1 11 2 17 5 13 3
-3 4 -12 1 -19z m830 -3 c6 -14 7 -27 2 -31 -5 -3 -9 2 -9 10 0 9 -4 16 -10
16 -5 0 -10 7 -10 15 0 23 14 18 27 -10z m-107 -15 c8 -5 11 -10 5 -10 -5 0
-17 5 -25 10 -8 5 -10 10 -5 10 6 0 17 -5 25 -10z m-700 -22 c0 -5 6 -24 14
-41 19 -44 26 -77 15 -77 -5 0 -9 8 -9 18 0 11 -8 34 -17 53 l-17 34 -7 -25
c-9 -32 -11 -12 -3 29 6 28 24 35 24 9z m645 15 c-11 -2 -30 -6 -42 -9 -26 -5
-31 -24 -8 -24 8 0 15 -5 15 -10 0 -7 -13 -8 -37 -3 -45 9 -91 9 -100 -1 -10
-9 17 -26 42 -26 16 0 17 2 5 10 -8 5 -11 12 -7 16 3 4 12 2 19 -4 7 -5 29
-15 48 -20 34 -10 33 -10 -20 -10 -76 0 -110 7 -110 23 0 7 -6 15 -12 18 -14
4 79 22 98 19 6 -1 24 5 40 13 16 8 43 14 59 14 19 -1 23 -3 10 -6z m135 -2
c0 -5 -9 -7 -20 -4 -11 3 -20 7 -20 9 0 2 9 4 20 4 11 0 20 -4 20 -9z m-1080
-31 c-8 -5 -17 -7 -19 -4 -3 3 1 9 9 14 8 5 17 7 19 4 3 -3 -1 -9 -9 -14z
m1100 -10 c0 -11 -4 -20 -10 -20 -5 0 -10 9 -10 20 0 11 5 20 10 20 6 0 10 -9
10 -20z m26 -26 c-3 -8 -10 -14 -15 -14 -5 0 -4 13 2 31 8 21 13 26 15 14 2
-9 1 -23 -2 -31z m-441 6 c-11 -5 -31 -9 -45 -9 -23 0 -23 1 -5 9 11 5 31 9
45 9 23 0 23 -1 5 -9z m-735 -4 c0 -2 -12 -11 -27 -20 l-28 -17 24 20 c23 21
31 25 31 17z m666 -17 c5 -9 -1 -10 -20 -5 -31 8 -33 -2 -6 -32 11 -12 20 -26
20 -32 0 -6 7 -25 16 -42 12 -24 18 -28 25 -17 6 10 9 5 9 -18 0 -17 7 -38 15
-47 8 -8 15 -21 15 -30 0 -8 5 -18 11 -21 5 -4 15 -19 21 -33 l11 -27 8 25 c7
22 8 21 6 -9 -2 -34 -1 -34 38 -34 40 0 40 0 40 -38 -1 -51 -9 -56 -25 -14 -8
19 -17 35 -22 35 -13 0 -10 -13 17 -68 14 -29 25 -56 25 -61 0 -6 6 -14 13
-18 7 -4 28 -39 46 -78 19 -38 37 -72 41 -75 4 -3 22 -33 39 -67 18 -34 39
-64 47 -67 10 -4 13 -13 9 -26 -4 -11 -2 -20 4 -20 6 0 11 -7 11 -15 0 -8 5
-15 10 -15 16 0 12 21 -7 37 -17 13 -16 14 5 10 16 -4 22 0 23 11 0 11 2 12 6
5 2 -7 0 -28 -7 -47 -11 -34 2 -86 22 -86 4 0 8 -6 8 -14 0 -25 25 -63 39 -58
17 6 16 4 -38 -88 -69 -118 -71 -121 -80 -116 -4 3 -14 24 -21 48 -8 24 -20
54 -27 68 -7 14 -13 30 -13 36 0 6 -11 36 -24 66 -13 30 -38 92 -55 139 -16
46 -87 235 -157 419 -161 427 -155 410 -149 421 8 13 42 11 51 -2z m114 7 c0
-2 -15 -6 -34 -8 -19 -2 -32 0 -30 4 5 8 64 12 64 4z m-430 -20 c0 -8 -4 -18
-10 -21 -5 -3 -10 3 -10 14 0 12 5 21 10 21 6 0 10 -6 10 -14z m-350 -16 c0
-5 -4 -10 -10 -10 -5 0 -10 5 -10 10 0 6 5 10 10 10 6 0 10 -4 10 -10z m1236
-67 c22 -49 22 -54 9 -88 -16 -37 -20 -41 -29 -26 -3 4 3 19 14 31 24 28 24
29 -1 60 l-21 25 6 -33 c3 -18 2 -31 -3 -28 -5 3 -8 36 -8 73 0 37 3 60 5 52
2 -8 14 -37 28 -66z m-1281 56 c-4 -6 -13 -8 -21 -5 -8 3 -17 -1 -20 -9 -4 -8
-11 -15 -17 -15 -5 0 -2 9 8 20 19 21 62 29 50 9z m753 -22 c14 -38 15 -63 2
-32 -8 19 -9 19 -9 1 -1 -32 -15 -7 -17 30 -1 43 9 44 24 1z m-3669 -11 c-12
-10 -79 -16 -79 -6 0 5 19 10 42 10 23 0 39 -2 37 -4z m2861 -17 c0 -14 -17
-10 -23 5 -4 10 -1 13 9 9 7 -3 14 -9 14 -14z m507 -1 c-3 -8 -6 -5 -6 6 -1
11 2 17 5 13 3 -3 4 -12 1 -19z m-587 -38 c-37 -28 -50 -24 -15 4 17 13 32 22
35 19 3 -2 -6 -13 -20 -23z m603 -7 c-7 -3 -13 -12 -13 -20 0 -9 -2 -14 -5
-11 -4 3 -3 18 1 33 5 20 9 24 18 14 8 -8 8 -13 -1 -16z m-503 -13 c0 -5 -5
-10 -11 -10 -5 0 -7 5 -4 10 3 6 8 10 11 10 2 0 4 -4 4 -10z m525 -9 c3 -5 1
-12 -5 -16 -5 -3 -10 1 -10 9 0 18 6 21 15 7z m320 -11 c3 -5 -3 -10 -14 -10
-11 0 -23 5 -26 10 -3 6 3 10 14 10 11 0 23 -4 26 -10z m-1031 -34 c-16 -14
-35 -26 -42 -26 -7 0 -15 -7 -19 -15 -3 -9 -18 -22 -34 -30 -38 -20 -49 -19
-19 2 14 10 32 23 40 30 72 60 136 93 74 39z m1057 -7 c8 -15 8 -24 0 -32 -13
-13 -16 -10 -25 26 -8 32 8 36 25 6z m485 -6 c-10 -10 -19 5 -10 18 6 11 8 11
12 0 2 -7 1 -15 -2 -18z m-779 -70 c14 -29 13 -34 -2 -50 -17 -16 -17 -15 -11
14 4 19 3 34 -3 38 -6 3 -11 18 -10 33 0 15 3 21 6 12 3 -8 12 -29 20 -47z
m813 15 c1 -7 9 -31 20 -53 21 -44 25 -75 10 -75 -5 0 -12 17 -16 38 -3 20
-12 47 -20 59 -8 12 -14 27 -14 33 0 15 20 12 20 -2z m-1660 -38 c-8 -5 -22
-10 -30 -10 -13 0 -13 1 0 10 8 5 22 10 30 10 13 0 13 -1 0 -10z m-85 -30
c-10 -11 -23 -20 -30 -20 -7 0 -20 -9 -30 -20 -10 -11 -25 -20 -34 -20 -10 0
-8 5 9 17 14 10 30 21 35 25 45 36 61 46 64 42 2 -2 -4 -13 -14 -24z m1735 3
c0 -10 3 -28 6 -40 5 -17 2 -23 -9 -23 -10 0 -15 11 -15 40 0 22 3 40 9 40 5
0 9 -8 9 -17z m-770 -29 c0 -8 -4 -14 -10 -14 -5 0 -10 9 -10 21 0 11 5 17 10
14 6 -3 10 -13 10 -21z m20 -64 c12 -8 63 -130 57 -136 -8 -8 -85 159 -78 171
3 6 7 1 9 -10 3 -11 8 -22 12 -25z m823 -34 c-6 -10 -9 -1 -9 27 -1 38 0 40 8
15 5 -15 6 -34 1 -42z m-1954 15 c-13 -11 -28 -20 -34 -21 -5 0 4 11 20 24 36
29 49 25 14 -3z m1978 -24 c-3 -7 1 -24 9 -38 16 -29 18 -49 4 -49 -5 0 -7 6
-4 14 3 7 -2 21 -11 30 -15 14 -13 56 2 56 3 0 3 -6 0 -13z m-454 -33 c2 -10
7 -27 11 -36 5 -10 6 -23 3 -30 -3 -7 -6 -3 -6 9 -1 12 -5 25 -11 28 -5 3 -10
18 -10 32 0 29 7 28 13 -3z m-1588 -5 c11 -16 1 -19 -13 -3 -7 8 -8 14 -3 14
5 0 13 -5 16 -11z m2027 -36 c8 -10 6 -13 -6 -13 -12 0 -16 9 -15 33 1 21 3
25 6 12 3 -11 10 -26 15 -32z m-2042 6 c0 -14 -17 -10 -23 5 -4 10 -1 13 9 9
7 -3 14 -9 14 -14z m-50 -9 c-8 -5 -19 -10 -25 -10 -5 0 -3 5 5 10 8 5 20 10
25 10 6 0 3 -5 -5 -10z m-45 -40 c-10 -11 -24 -20 -32 -20 -14 0 -18 -16 -5
-23 4 -2 1 -2 -5 -1 -7 2 -24 -8 -39 -22 -14 -15 -28 -24 -31 -21 -8 8 108
107 126 107 2 0 -4 -9 -14 -20z m1389 -30 c-6 -5 -24 21 -24 34 0 6 6 1 14
-10 8 -10 12 -21 10 -24z m-44 -8 c0 -15 -2 -15 -10 -2 -13 20 -13 33 0 25 6
-3 10 -14 10 -23z m-1330 8 c0 -5 -4 -10 -10 -10 -5 0 -10 5 -10 10 0 6 5 10
10 10 6 0 10 -4 10 -10z m2212 -69 c-4 -10 -1 -12 8 -6 8 5 11 3 8 -6 -3 -8 1
-31 8 -53 8 -21 14 -41 14 -44 0 -15 -28 36 -33 58 -3 14 -5 6 -4 -17 2 -30
-1 -43 -11 -43 -9 0 -11 9 -6 35 7 41 8 53 5 80 -3 18 -4 17 -12 -5 -8 -23 -8
-22 -3 5 3 17 5 39 6 50 0 15 3 13 13 -10 7 -16 10 -36 7 -44z m-812 14 c8
-18 20 -47 48 -117 7 -17 8 -29 2 -33 -16 -10 -31 5 -25 25 3 10 1 21 -5 25
-5 3 -10 19 -10 36 0 34 -17 39 -23 7 -2 -13 -5 6 -5 42 0 36 2 58 5 50 2 -8
8 -24 13 -35z m370 26 c0 -17 -18 -21 -24 -6 -3 9 0 15 9 15 8 0 15 -4 15 -9z
m-1833 -33 c-3 -8 -6 -5 -6 6 -1 11 2 17 5 13 3 -3 4 -12 1 -19z m-33 -17 c2
-3 -7 -6 -20 -6 -13 0 -26 5 -28 11 -4 11 41 7 48 -5z m1873 -13 c-3 -7 -5 -2
-5 12 0 14 2 19 5 13 2 -7 2 -19 0 -25z m-1942 2 c-3 -5 -11 -10 -16 -10 -6 0
-7 5 -4 10 3 6 11 10 16 10 6 0 7 -4 4 -10z m2352 -32 c-3 -8 -6 -5 -6 6 -1
11 2 17 5 13 3 -3 4 -12 1 -19z m-2427 -28 c-37 -28 -50 -24 -15 5 16 13 32
22 34 19 3 -3 -5 -14 -19 -24z m2090 20 c0 -5 -11 -10 -25 -10 -14 0 -25 5
-25 10 0 6 11 10 25 10 14 0 25 -4 25 -10z m-463 -72 c-3 -8 -6 -5 -6 6 -1 11
2 17 5 13 3 -3 4 -12 1 -19z m-1689 -16 c2 -7 -2 -10 -12 -6 -12 5 -15 2 -10
-10 7 -19 -7 -21 -24 -4 -9 9 -7 14 6 24 19 15 34 13 40 -4z m2587 -63 c-5
-14 -10 -17 -18 -10 -7 5 -28 14 -47 20 -31 10 -32 10 -5 7 17 -3 38 -8 47
-11 15 -6 16 -3 8 27 -14 48 -11 58 6 20 8 -19 12 -43 9 -53z m-815 59 c0 -7
-5 -20 -10 -28 -8 -12 -10 -9 -10 13 0 15 5 27 10 27 6 0 10 -6 10 -12z
m-1871 -52 c-20 -18 -42 -36 -50 -39 -12 -5 -12 -7 1 -17 12 -9 11 -10 -7 -5
-16 4 -26 0 -35 -14 -7 -12 -17 -21 -22 -21 -6 0 -22 -12 -38 -27 -15 -14 -30
-24 -34 -21 -3 4 34 37 82 75 48 37 97 76 108 85 36 30 33 19 -5 -16z m1901
-30 c-1 -21 -1 -21 -15 -2 -8 11 -15 29 -15 40 1 21 1 21 15 2 8 -11 15 -29
15 -40z m400 34 c0 -5 -9 -10 -20 -10 -11 0 -20 5 -20 10 0 6 9 10 20 10 11 0
20 -4 20 -10z m40 0 c0 -5 -4 -10 -10 -10 -5 0 -10 5 -10 10 0 6 5 10 10 10 6
0 10 -4 10 -10z m239 6 c-11 -9 -69 -15 -64 -6 3 6 20 10 37 10 17 0 29 -2 27
-4z m51 -25 c23 -7 20 -9 -29 -25 -45 -15 -57 -16 -77 -5 -13 7 -24 17 -24 23
0 6 5 5 12 -2 14 -14 74 -16 83 -3 3 5 -7 12 -22 14 -28 4 -28 4 2 5 17 0 41
-3 55 -7z m-300 -31 c0 -40 -25 -40 -26 0 -1 19 4 30 12 30 9 0 14 -11 14 -30z
m-2330 0 c0 -5 -7 -10 -16 -10 -8 0 -12 5 -9 10 3 6 10 10 16 10 5 0 9 -4 9
-10z m1951 -98 c18 -38 27 -72 24 -83 -7 -20 -25 -27 -25 -9 0 6 4 10 10 10 6
0 5 10 -2 25 -6 14 -15 25 -21 25 -5 0 -6 11 -3 25 4 17 2 24 -5 23 -14 -3
-31 50 -22 66 4 6 8 4 11 -4 2 -8 17 -44 33 -78z m554 78 c-43 -17 -165 -47
-165 -40 0 4 8 11 18 15 16 7 15 8 -3 15 -16 7 -13 9 15 9 26 1 31 -2 20 -9
-13 -9 -13 -10 0 -9 8 0 38 6 65 14 56 15 81 18 50 5z m-2565 -30 c0 -5 -11
-17 -26 -26 -20 -14 -27 -15 -37 -4 -8 9 -8 11 -1 7 7 -4 23 2 35 13 28 23 29
23 29 10z m-183 -96 c-16 -14 -31 -24 -33 -21 -5 5 44 47 55 47 3 0 -7 -12
-22 -26z m18 -24 c-3 -5 -12 -10 -18 -10 -7 0 -6 4 3 10 19 12 23 12 15 0z
m-101 -45 c-25 -19 -40 -19 -24 0 7 8 20 15 28 15 13 0 12 -3 -4 -15z m2326
-10 c0 -14 -4 -25 -10 -25 -11 0 -14 33 -3 43 11 11 13 8 13 -18z m-2370 -19
c0 -3 -4 -8 -10 -11 -5 -3 -10 -1 -10 4 0 6 5 11 10 11 6 0 10 -2 10 -4z m65
-6 c3 -5 -1 -10 -9 -10 -9 0 -16 5 -16 10 0 6 4 10 9 10 6 0 13 -4 16 -10z
m2308 -29 c-2 -6 2 -11 7 -11 6 0 10 8 10 18 1 9 15 -19 33 -63 20 -48 31 -91
28 -109 -3 -24 -5 -26 -13 -12 -5 9 -6 25 -3 36 3 10 2 27 -4 37 -5 10 -17 34
-26 53 l-16 35 5 -45 6 -45 -15 47 c-9 26 -20 50 -25 53 -14 9 -12 27 3 22 6
-2 11 -10 10 -16z m-2393 -2 c0 -15 -18 -19 -23 -6 -3 8 1 14 9 14 8 0 14 -4
14 -8z m67 -83 c-3 12 1 21 8 21 10 0 11 -7 4 -24 -12 -33 -11 -52 2 -33 9 12
10 12 5 -3 -3 -10 -6 -24 -6 -29 0 -6 -3 -9 -6 -5 -3 3 -5 8 -5 11 1 3 -6 22
-14 42 -19 46 -19 56 1 24 13 -21 15 -22 11 -4z m2368 -46 c3 -5 1 -10 -4 -10
-6 0 -11 5 -11 10 0 6 2 10 4 10 3 0 8 -4 11 -10z m67 -65 c3 -13 1 -22 -3
-19 -9 5 -13 44 -5 44 2 0 6 -11 8 -25z m1 -102 c4 -6 2 -22 -3 -35 -10 -22
-10 -22 -5 5 3 15 1 27 -5 27 -5 0 -9 19 -9 43 l1 42 7 -35 c4 -20 10 -41 14
-47z m14 25 c-3 -7 -5 -2 -5 12 0 14 2 19 5 13 2 -7 2 -19 0 -25z m-2317 -38
c0 -5 -4 -10 -10 -10 -5 0 -10 5 -10 10 0 6 5 10 10 10 6 0 10 -4 10 -10z m36
-5 c-11 -8 -15 -19 -11 -27 7 -11 6 -11 -6 0 -12 11 -11 15 5 28 11 8 22 14
25 14 3 0 -2 -7 -13 -15z m2244 -21 c0 -3 -5 -14 -10 -25 -8 -13 -7 -19 0 -19
6 0 2 -13 -9 -29 -12 -16 -21 -33 -21 -38 0 -4 -6 -15 -13 -24 -10 -13 -12 -9
-12 27 0 31 3 40 12 33 13 -12 27 6 29 36 3 40 4 45 14 45 6 0 10 -3 10 -6z
m-75 -139 c-1 -19 -10 -45 -19 -57 -15 -20 -16 -20 -10 -3 4 11 8 29 9 40 1
19 14 55 20 55 1 0 1 -16 0 -35z m-1945 -35 c0 -5 -4 -10 -10 -10 -5 0 -10 5
-10 10 0 6 5 10 10 10 6 0 10 -4 10 -10z m88 -41 c-7 -5 -21 -6 -32 -3 -13 4
-16 2 -11 -6 6 -9 3 -9 -14 -1 -11 7 -21 13 -21 14 0 1 20 2 45 3 27 0 41 -3
33 -7z m1792 -15 c-16 -41 -11 -63 6 -25 8 19 17 32 20 28 6 -5 -33 -88 -46
-97 -4 -3 -18 -31 -33 -62 -14 -32 -28 -58 -31 -58 -7 0 12 51 26 67 8 10 7
12 -6 7 -9 -3 -16 -1 -16 5 0 6 6 11 13 11 17 0 32 30 48 90 11 46 17 60 24
60 3 0 0 -12 -5 -26z m-1770 -11 c0 -5 -12 -9 -27 -10 -19 -1 -22 1 -12 8 17
11 39 12 39 2z m14 -44 c20 -12 36 -16 36 -10 0 16 17 14 23 -3 8 -19 -37 -12
-76 13 -42 27 -28 27 17 0z m1667 -126 c-8 -15 -10 -15 -11 -2 0 17 10 32 18
25 2 -3 -1 -13 -7 -23z m-1531 -4 c0 -6 -4 -7 -10 -4 -5 3 -10 11 -10 16 0 6
5 7 10 4 6 -3 10 -11 10 -16z m40 -65 c0 -13 -31 0 -40 17 -11 20 -11 20 14 4
14 -10 26 -19 26 -21z m1480 -4 c0 -22 5 -40 10 -40 6 0 10 5 10 12 0 8 3 9
10 2 7 -7 7 -21 -1 -43 -6 -17 -13 -30 -15 -28 -3 2 0 17 6 33 9 25 8 27 -3
12 -13 -16 -15 -14 -25 21 -15 47 -15 71 -2 71 6 0 10 -18 10 -40z m-1440 -50
c0 -5 -2 -10 -4 -10 -3 0 -8 5 -11 10 -3 6 -1 10 4 10 6 0 11 -4 11 -10z
m1504 -42 l16 -31 -21 19 c-22 19 -22 19 -14 -6 4 -14 12 -26 16 -28 5 -2 9
-10 9 -18 0 -10 -8 -5 -23 12 -21 24 -22 32 -13 56 6 15 11 28 12 28 2 0 10
-14 18 -32z m-1514 12 c0 -5 -4 -10 -10 -10 -5 0 -10 5 -10 10 0 6 5 10 10 10
6 0 10 -4 10 -10z m9 -34 c-9 -8 -10 -7 -5 7 3 10 7 24 7 30 1 7 3 4 6 -7 3
-10 -1 -23 -8 -30z m1565 -110 c-9 -23 -19 -20 -33 12 -10 22 -10 25 0 15 7
-7 18 -13 24 -13 6 0 6 3 -1 8 -6 4 -14 18 -18 32 -7 22 -5 22 14 -6 11 -18
18 -39 14 -48z m-1494 -13 c-11 -17 -11 -17 -6 0 3 10 6 24 7 30 0 9 2 9 5 0
3 -7 0 -20 -6 -30z m1517 -19 c-1 -31 -2 -34 -10 -16 -5 12 -7 28 -4 36 10 26
15 18 14 -20z m40 -29 c19 -28 20 -32 6 -50 -15 -19 -15 -18 -9 10 7 29 7 29
-8 10 -12 -16 -15 -17 -16 -4 0 8 5 20 11 26 8 8 8 13 0 17 -6 4 -11 12 -11
18 0 13 -1 14 27 -27z m73 -110 c0 -7 7 -18 15 -25 8 -7 15 -16 15 -21 0 -5
-7 -6 -15 -3 -8 4 -15 1 -15 -5 0 -6 5 -11 10 -11 6 0 10 -4 10 -10 0 -19 -17
-10 -28 15 -14 31 -15 46 -2 25 6 -9 10 -10 10 -3 0 19 -12 43 -22 43 -5 0 -6
-4 -3 -10 3 -5 1 -10 -6 -10 -7 0 -9 10 -7 24 4 19 1 22 -15 18 -17 -4 -18 -3
-6 15 12 20 13 20 36 -5 12 -14 23 -30 23 -37z m-1545 15 c2 -21 1 -22 -12 -5
-9 13 -13 14 -13 5 0 -7 -2 -11 -5 -8 -9 9 7 39 18 35 6 -2 11 -14 12 -27z
m85 -90 c0 -5 -4 -10 -10 -10 -5 0 -10 5 -10 10 0 6 5 10 10 10 6 0 10 -4 10
-10z m1507 -24 c-1 -33 -2 -34 -15 -15 -11 16 -11 23 -2 34 17 21 18 19 17
-19z m-1547 14 c0 -5 -2 -10 -4 -10 -3 0 -8 5 -11 10 -3 6 -1 10 4 10 6 0 11
-4 11 -10z m1594 -55 c17 -31 18 -38 6 -45 -18 -11 -40 6 -39 29 1 13 2 13 6
-1 2 -10 9 -18 14 -18 5 0 2 16 -6 36 -25 60 -13 59 19 -1z m-1563 -38 c-10
-9 -11 -8 -5 6 3 10 9 15 12 12 3 -3 0 -11 -7 -18z m1608 -50 c-10 -18 -12
-19 -21 -4 -11 21 -2 38 17 31 12 -5 12 -10 4 -27z m50 -49 c18 -27 28 -48 23
-48 -5 0 -15 11 -22 25 -14 26 -30 33 -30 14 0 -6 7 -17 15 -25 8 -8 19 -23
25 -32 8 -14 11 -14 18 -4 7 10 18 -1 43 -39 18 -29 34 -58 34 -64 0 -5 3 -10
7 -10 9 0 57 -68 52 -74 -4 -5 -30 22 -37 39 -5 13 -6 13 -6 0 -1 -13 16 -45
36 -70 2 -2 9 2 14 10 8 11 9 9 4 -9 -6 -19 -4 -23 7 -18 21 7 50 -27 35 -42
-6 -6 -7 -14 -3 -18 4 -4 12 -1 17 7 7 11 8 6 4 -17 -6 -32 8 -48 18 -20 2 6
2 2 0 -10 -2 -13 1 -23 6 -23 5 0 12 -13 16 -30 4 -16 11 -30 16 -30 12 0 12
17 -1 25 -5 3 -10 14 -10 23 1 14 2 14 12 -3 6 -11 14 -22 17 -25 20 -15 81
-110 72 -110 -6 0 -11 5 -11 10 0 6 -4 10 -10 10 -5 0 -6 -8 -3 -17 6 -15 5
-16 -9 -3 -9 8 -12 17 -7 18 12 5 12 32 0 32 -5 0 -12 -6 -14 -12 -3 -7 -4 0
-4 16 1 17 -4 31 -12 34 -10 3 -12 0 -7 -14 7 -17 6 -17 -13 0 -11 10 -27 32
-36 49 -9 18 -27 47 -41 66 -15 22 -21 37 -14 41 6 4 8 14 4 24 -5 14 -9 15
-15 5 -6 -10 -14 -6 -33 15 -13 16 -30 41 -37 55 -7 14 -24 41 -36 58 -17 23
-19 31 -8 27 8 -3 15 -1 15 5 0 6 -5 11 -11 11 -5 0 -17 16 -25 35 -16 40 -26
46 -21 13 2 -13 2 -17 0 -10 -3 6 -8 12 -13 12 -9 0 -70 89 -70 102 0 5 5 6
10 3 7 -4 8 3 4 22 -8 33 -7 32 35 -29z m-1576 -59 c-5 -5 -9 -1 -9 9 -1 9 -4
26 -8 37 -4 11 0 7 9 -9 10 -16 13 -32 8 -37z m67 -110 c0 -5 4 -8 8 -5 5 3 6
-9 3 -27 -5 -29 -6 -30 -9 -7 -2 14 -9 31 -14 38 -7 8 -7 12 1 12 6 0 11 -5
11 -11z m97 -151 c-3 -8 -6 -5 -6 6 -1 11 2 17 5 13 3 -3 4 -12 1 -19z m-23
-4 c3 -8 2 -12 -4 -9 -6 3 -10 10 -10 16 0 14 7 11 14 -7z m103 -156 c-3 -8
-6 -5 -6 6 -1 11 2 17 5 13 3 -3 4 -12 1 -19z m1727 -133 c-5 -19 -1 -30 15
-44 22 -19 28 -41 11 -41 -5 0 -10 5 -10 11 0 6 -11 24 -25 41 -28 33 -32 50
-10 42 8 -4 15 -1 15 5 0 6 2 11 5 11 3 0 3 -11 -1 -25z m36 -30 c14 -19 14
-19 -2 -6 -10 7 -18 18 -18 24 0 6 1 8 3 6 1 -2 9 -13 17 -24z m123 -180 c17
-27 36 -53 41 -57 6 -4 7 -10 4 -13 -4 -4 -17 9 -30 29 -24 38 -38 45 -38 21
0 -8 5 -15 10 -15 6 0 10 -7 10 -15 0 -8 4 -15 10 -15 12 0 35 -36 45 -70 4
-14 -13 5 -39 43 -32 47 -45 74 -41 90 3 12 -2 31 -10 42 -14 17 -17 18 -26 5
-7 -11 -8 -8 -3 13 4 17 2 27 -5 27 -6 0 -11 -4 -11 -10 0 -17 -14 -11 -28 11
-12 19 -11 20 9 14 21 -7 21 -6 5 16 -9 13 -16 28 -16 33 0 11 68 -79 113
-149z m-38 15 c3 -6 -1 -7 -9 -4 -18 7 -21 14 -7 14 6 0 13 -4 16 -10z m152
-187 c32 -49 61 -89 66 -91 4 -2 7 -10 7 -19 0 -9 -9 -3 -25 15 -14 17 -25 35
-25 41 0 6 -4 11 -10 11 -5 0 -7 -8 -3 -17 4 -13 0 -11 -15 6 -15 16 -20 31
-16 47 6 22 -9 34 -19 17 -2 -5 -2 -2 0 5 1 8 -4 23 -12 35 -15 21 -19 37 -11
37 2 0 30 -39 63 -87z m80 -161 c9 -12 13 -25 11 -28 -7 -6 -68 76 -68 90 0
11 25 -17 57 -62z m68 -72 c-2 -4 5 -25 16 -46 19 -36 21 -24 4 21 -5 11 8 -4
29 -34 20 -30 35 -59 32 -65 -2 -6 -5 -3 -5 7 -1 22 -21 23 -21 0 0 -14 -2
-15 -12 -4 -10 11 -10 14 0 18 6 3 12 9 12 15 0 6 -6 8 -14 5 -13 -5 -24 5
-62 59 -34 49 -36 54 -20 48 9 -3 16 -10 16 -16 0 -5 5 -6 11 -2 8 5 6 10 -6
16 -14 9 -45 65 -45 84 0 3 16 -17 35 -46 19 -29 33 -55 30 -60z m161 -240 c2
-21 22 -70 29 -70 2 0 0 12 -5 26 -15 39 -12 42 8 9 14 -22 16 -34 8 -47 -9
-15 -13 -13 -31 17 -11 18 -30 47 -43 64 -18 24 -20 29 -6 24 15 -6 15 -4 1
18 -32 51 -28 73 4 24 18 -27 34 -57 35 -65z m-66 70 c0 -5 -2 -10 -4 -10 -3
0 -8 5 -11 10 -3 6 -1 10 4 10 6 0 11 -4 11 -10z m150 -194 c0 -5 -7 -1 -15
10 -9 12 -14 14 -15 5 0 -7 11 -26 25 -43 23 -27 32 -48 20 -48 -3 0 -16 18
-31 39 -18 28 -24 46 -19 62 7 22 8 22 21 4 8 -10 14 -23 14 -29z m74 -120
c-4 -13 -2 -17 7 -14 18 6 60 -61 53 -85 -3 -10 5 -30 20 -48 14 -17 26 -35
26 -41 0 -6 7 -20 17 -30 9 -10 14 -21 11 -24 -3 -3 -27 27 -53 66 -38 58 -45
74 -34 81 9 6 10 12 4 17 -6 4 -16 18 -23 32 -12 25 -12 25 -6 -5 3 -16 4 -28
2 -25 -49 61 -77 109 -61 103 14 -5 16 -4 7 8 -27 35 -22 52 6 19 19 -23 27
-42 24 -54z m97 -126 c5 0 9 -5 9 -11 0 -8 -5 -8 -15 1 -8 7 -14 20 -14 29 1
13 2 13 6 -1 2 -10 9 -18 14 -18z m56 -88 c27 -32 28 -36 9 -51 -10 -8 -16 -9
-21 -1 -3 5 -1 10 4 10 18 0 12 20 -14 52 -14 16 -25 35 -24 41 0 7 6 4 12 -6
7 -10 22 -31 34 -45z m41 -88 c-3 -14 -5 -12 -10 9 -3 19 -2 25 4 19 6 -6 8
-18 6 -28z m-18 1 c0 -8 -2 -15 -4 -15 -2 0 -6 7 -10 15 -3 8 -1 15 4 15 6 0
10 -7 10 -15z m45 -100 c-4 -30 -19 -74 -39 -108 -27 -49 -34 -56 -45 -44 -7
9 -8 18 -2 21 5 3 12 0 15 -6 3 -7 4 -4 1 8 -3 12 3 39 13 62 16 35 20 38 29
24 10 -15 12 -14 12 9 1 14 -3 29 -8 35 -5 5 -12 25 -15 44 -6 34 -5 33 14
-10 l20 -45 -4 60 c-4 49 -3 55 5 30 5 -16 7 -53 4 -80z m-85 -183 c0 -15 -2
-15 -10 -2 -13 20 -13 33 0 25 6 -3 10 -14 10 -23z m-20 -12 c0 -5 -5 -10 -11
-10 -5 0 -8 -4 -5 -9 8 -12 -74 -102 -85 -95 -11 6 15 49 55 90 33 34 46 40
46 24z m-135 -160 c-16 -16 -30 -28 -33 -26 -2 3 -22 -15 -43 -40 -21 -24 -41
-44 -44 -44 -21 1 -25 -1 -20 -10 3 -5 1 -10 -4 -10 -19 0 -12 19 12 31 12 7
30 22 40 33 55 64 78 86 89 84 8 -2 12 5 10 17 -3 16 -1 18 9 8 10 -10 7 -19
-16 -43z m-204 -192 c-29 -28 -54 -48 -57 -46 -2 3 16 24 41 47 25 23 45 47
45 52 0 6 5 7 11 3 7 -4 -8 -25 -40 -56z m-62 -60 c-2 -2 -22 -19 -44 -38
l-40 -35 34 38 c19 20 39 37 45 37 5 0 7 -1 5 -2z m-140 -132 c-19 -18 -52
-48 -74 -66 -22 -18 -8 -2 30 36 39 38 72 68 74 66 3 -1 -11 -17 -30 -36z"/>
<path d="M8210 2870 c0 -5 5 -10 10 -10 6 0 10 5 10 10 0 6 -4 10 -10 10 -5 0
-10 -4 -10 -10z"/>
<path d="M8510 2430 c0 -5 5 -10 10 -10 6 0 10 5 10 10 0 6 -4 10 -10 10 -5 0
-10 -4 -10 -10z"/>
<path d="M8670 2190 c0 -5 5 -10 10 -10 6 0 10 5 10 10 0 6 -4 10 -10 10 -5 0
-10 -4 -10 -10z"/>
<path d="M8871 1702 c-6 -12 -11 -27 -11 -34 1 -7 8 0 16 15 9 16 13 31 11 34
-3 2 -10 -4 -16 -15z"/>
<path d="M8753 1535 c-7 -8 -9 -16 -4 -19 5 -3 12 1 15 10 8 22 4 25 -11 9z"/>
<path d="M8721 1487 c-13 -21 -12 -21 5 -5 10 10 16 20 13 22 -3 3 -11 -5 -18
-17z"/>
<path d="M5053 9520 c0 -25 2 -35 4 -22 2 12 2 32 0 45 -2 12 -4 2 -4 -23z"/>
<path d="M1207 9501 c-20 -15 -34 -31 -30 -35 9 -9 25 -7 19 2 -2 4 5 9 16 9
20 2 20 1 2 -16 -17 -16 -21 -16 -41 -3 -14 8 -23 10 -23 4 0 -6 8 -16 18 -22
14 -9 12 -10 -13 -5 -29 6 -29 6 -10 -9 16 -12 17 -15 5 -16 -9 0 -21 5 -27
11 -16 16 -50 -9 -65 -46 -6 -16 -14 -34 -16 -39 -3 -5 10 1 28 14 25 17 29
25 18 32 -9 6 -6 7 9 3 15 -4 38 5 77 30 56 38 73 60 55 71 -6 3 -3 11 8 19
10 7 15 16 12 19 -3 4 -22 -7 -42 -23z"/>
<path d="M1078 9172 c-97 -57 -102 -62 -114 -129 -3 -19 2 -17 103 40 71 40
92 56 89 70 -2 9 -1 17 4 17 7 0 22 52 16 57 -1 1 -45 -24 -98 -55z"/>
<path d="M1045 8804 c-44 -20 -88 -38 -97 -41 -14 -4 -18 -16 -18 -54 0 -27 3
-49 7 -49 3 0 50 16 105 37 l98 36 0 54 c0 29 -3 53 -7 53 -5 0 -44 -16 -88
-36z"/>
<path d="M1252 8600 c0 -14 2 -19 5 -12 2 6 2 18 0 25 -3 6 -5 1 -5 -13z"/>
<path d="M876 8545 c2 -27 6 -90 10 -140 l7 -90 13 45 c7 27 12 36 13 23 1
-25 17 -31 24 -10 2 6 3 5 3 -3 -1 -8 -9 -14 -18 -14 -69 5 35 -429 171 -711
102 -212 213 -375 361 -529 147 -153 271 -244 446 -328 92 -44 113 -50 228
-64 70 -8 134 -14 143 -12 11 2 -12 23 -62 58 -178 123 -445 423 -578 650 -53
91 -147 277 -176 350 -7 19 -19 49 -26 65 -16 37 -46 127 -75 228 -13 42 -27
77 -33 77 -5 0 -7 7 -3 15 8 23 -26 168 -37 153 -6 -9 -7 -7 -2 7 10 31 -16
207 -36 245 -11 19 -19 28 -20 20 0 -10 -3 -8 -9 5 -8 19 -9 19 -9 -2 -1 -15
-6 -20 -19 -16 -10 2 -79 -3 -153 -11 -169 -20 -157 -21 -162 12 -2 15 -3 5
-1 -23z m351 -57 c-3 -7 -5 -2 -5 12 0 14 2 19 5 13 2 -7 2 -19 0 -25z m-317
-52 c0 -3 -4 -8 -10 -11 -5 -3 -10 -1 -10 4 0 6 5 11 10 11 6 0 10 -2 10 -4z
m265 -6 c3 -5 -2 -10 -12 -10 -10 0 -58 -14 -107 -30 -102 -34 -96 -33 -96
-20 0 5 12 13 28 16 15 4 33 11 40 17 6 5 12 7 12 5 0 -3 24 3 53 13 62 21 74
22 82 9z m2 -146 c-3 -3 -12 -4 -19 -1 -8 3 -5 6 6 6 11 1 17 -2 13 -5z m125
-69 c3 -13 1 -22 -3 -19 -9 5 -13 44 -5 44 2 0 6 -11 8 -25z m-2 -45 c0 -5 -5
-10 -11 -10 -5 0 -7 5 -4 10 3 6 8 10 11 10 2 0 4 -4 4 -10z m-20 -228 c0 -10
-219 -37 -227 -28 -12 11 4 16 78 25 102 12 149 13 149 3z m-47 -349 c-7 -2
-19 -2 -25 0 -7 3 -2 5 12 5 14 0 19 -2 13 -5z"/>
<path d="M5121 8444 c0 -11 3 -14 6 -6 3 7 2 16 -1 19 -3 4 -6 -2 -5 -13z"/>
<path d="M3938 7713 c12 -2 32 -2 45 0 12 2 2 4 -23 4 -25 0 -35 -2 -22 -4z"/>
<path d="M2978 7553 c12 -2 32 -2 45 0 12 2 2 4 -23 4 -25 0 -35 -2 -22 -4z"/>
<path d="M2110 7491 c0 -6 4 -13 10 -16 6 -3 7 1 4 9 -7 18 -14 21 -14 7z"/>
<path d="M2130 7451 c0 -5 7 -15 17 -22 15 -13 15 -12 4 9 -12 23 -21 28 -21
13z"/>
<path d="M13273 6785 c0 -7 6 -11 14 -8 7 3 13 6 13 8 0 2 -6 5 -13 8 -8 3
-14 -1 -14 -8z"/>
<path d="M13646 6772 c-3 -5 1 -9 9 -9 8 0 12 4 9 9 -3 4 -7 8 -9 8 -2 0 -6
-4 -9 -8z"/>
<path d="M13558 6723 c7 -3 16 -2 19 1 4 3 -2 6 -13 5 -11 0 -14 -3 -6 -6z"/>
<path d="M13560 6696 c0 -2 9 -6 20 -9 11 -3 18 -1 14 4 -5 9 -34 13 -34 5z"/>
<path d="M13686 6688 c3 -5 10 -6 15 -3 13 9 11 12 -6 12 -8 0 -12 -4 -9 -9z"/>
<path d="M2690 6530 c8 -5 20 -10 25 -10 6 0 3 5 -5 10 -8 5 -19 10 -25 10 -5
0 -3 -5 5 -10z"/>
<path d="M3188 6533 c6 -2 18 -2 25 0 6 3 1 5 -13 5 -14 0 -19 -2 -12 -5z"/>
<path d="M3125 6520 c3 -5 13 -10 21 -10 8 0 14 5 14 10 0 6 -9 10 -21 10 -11
0 -17 -4 -14 -10z"/>
<path d="M2768 6503 c6 -2 18 -2 25 0 6 3 1 5 -13 5 -14 0 -19 -2 -12 -5z"/>
<path d="M3008 6493 c6 -2 18 -2 25 0 6 3 1 5 -13 5 -14 0 -19 -2 -12 -5z"/>
<path d="M3165 6490 l40 -6 -50 -8 c-29 -4 -107 -2 -179 4 -70 7 -129 10 -132
7 -2 -2 49 -10 115 -16 127 -14 305 -7 280 11 -9 6 3 7 36 4 32 -4 43 -3 30 3
-11 4 -56 8 -100 8 -58 0 -69 -2 -40 -7z"/>
</g>
</svg>
