<?xml version="1.0" standalone="no"?>
<!DOCTYPE svg PUBLIC "-//W3C//DTD SVG 20010904//EN"
 "http://www.w3.org/TR/2001/REC-SVG-20010904/DTD/svg10.dtd">
<svg version="1.0" xmlns="http://www.w3.org/2000/svg"
 width="600.000000pt" height="600.000000pt" viewBox="0 0 600.000000 600.000000"
 preserveAspectRatio="xMidYMid meet">
<metadata>
Created by potrace 1.16, written by Peter Selinger 2001-2019
</metadata>
<g transform="translate(0.000000,600.000000) scale(0.100000,-0.100000)"
fill="#000000" stroke="none">
<path d="M2695 5990 c-84 -7 -188 -22 -290 -43 l-60 -12 -3 -42 c-2 -23 -9
-46 -16 -52 -7 -6 -42 -14 -77 -17 -35 -4 -74 -12 -86 -20 -12 -8 -47 -13 -80
-13 -32 1 -78 -4 -103 -11 -48 -13 -179 -78 -220 -110 l-25 -19 44 -45 c25
-26 41 -50 38 -59 -3 -7 -40 -26 -84 -42 -137 -49 -216 -85 -241 -110 -14 -14
-31 -25 -40 -25 -19 0 -76 -35 -126 -77 -22 -18 -43 -33 -47 -33 -4 0 -49 -28
-101 -63 -103 -69 -233 -125 -311 -134 -56 -6 -74 -18 -138 -95 l-40 -46 51
-51 c27 -27 86 -76 130 -107 44 -32 80 -62 80 -68 0 -5 -35 -46 -77 -90 -110
-115 -223 -247 -223 -262 0 -7 -15 -24 -32 -39 -18 -14 -62 -59 -98 -100 -73
-82 -155 -147 -247 -195 -64 -32 -75 -48 -49 -69 25 -21 178 -92 251 -116 42
-14 71 -30 73 -39 2 -9 -2 -16 -9 -16 -24 0 -92 -55 -146 -118 -51 -61 -53
-65 -37 -83 9 -10 30 -21 48 -25 89 -19 282 -102 396 -172 41 -25 114 -65 162
-89 48 -24 90 -48 93 -53 10 -17 -15 -53 -93 -133 -65 -65 -75 -80 -66 -95 6
-9 22 -20 35 -24 13 -4 68 -21 121 -38 66 -20 119 -30 162 -30 92 0 108 -15
108 -105 0 -41 -7 -86 -16 -107 -27 -63 -22 -65 140 -70 81 -2 149 -9 155 -15
16 -16 14 -152 -5 -223 -23 -88 -44 -137 -83 -189 -37 -50 -42 -85 -14 -101
11 -5 50 -10 86 -10 84 0 134 -21 142 -61 3 -16 12 -34 19 -40 22 -18 17 -47
-11 -65 -21 -13 -23 -19 -13 -31 9 -12 6 -19 -17 -38 -16 -12 -35 -21 -41 -18
-6 2 -19 -13 -28 -34 -9 -21 -21 -45 -26 -53 -5 -8 -21 -38 -35 -67 -17 -34
-48 -70 -88 -104 -120 -102 -167 -152 -178 -192 -5 -21 -19 -47 -30 -58 -10
-10 -24 -40 -31 -67 -7 -26 -18 -54 -25 -63 -7 -8 -17 -38 -22 -65 -5 -27 -15
-62 -21 -79 -7 -16 -16 -82 -20 -145 -7 -102 -6 -117 10 -135 12 -14 16 -31
12 -58 -4 -35 -7 -38 -28 -33 -70 18 29 -85 162 -169 269 -169 460 -267 633
-324 66 -22 133 -47 150 -55 32 -17 76 -22 67 -7 -3 5 1 28 9 51 8 23 19 88
24 144 6 56 15 114 20 128 5 14 10 43 9 65 0 21 14 79 30 128 17 50 38 118 48
153 9 34 21 65 25 68 5 3 9 25 9 50 0 25 5 55 12 67 6 12 16 46 22 77 10 49
14 55 38 58 33 4 44 -24 29 -71 -12 -35 -51 -286 -56 -357 -2 -25 -5 -175 -7
-334 -3 -249 -1 -290 12 -296 8 -5 92 -19 185 -31 141 -19 215 -23 435 -23
301 0 441 16 700 80 132 33 501 155 525 174 6 4 64 36 130 70 271 142 442 261
674 469 101 92 325 339 392 435 l49 69 0 165 c0 91 -5 191 -10 221 -6 31 -14
81 -18 111 l-7 55 -225 74 c-124 40 -233 78 -244 83 -10 5 -39 13 -65 18 -25
4 -62 14 -81 21 -19 7 -54 19 -77 27 l-43 15 7 41 c4 22 7 71 8 108 0 62 -2
69 -32 100 -48 50 -143 200 -143 226 0 33 37 100 57 104 20 4 68 -12 176 -61
26 -11 54 -21 62 -21 18 0 37 34 29 53 -3 8 0 35 7 58 6 24 13 60 15 80 2 20
13 59 25 85 50 114 74 336 48 441 -13 49 -5 62 36 63 51 1 123 48 180 119 31
39 63 71 70 71 7 0 18 6 24 14 18 22 3 42 -98 126 -49 41 -91 82 -94 91 -2 9
20 42 54 79 33 35 59 68 59 73 0 6 11 25 25 42 29 39 75 140 75 166 0 10 -5
21 -11 24 -19 12 -141 27 -236 29 -133 3 -138 9 -148 173 -3 69 -11 137 -15
149 -5 13 -14 66 -19 119 l-10 96 80 99 c43 54 79 108 79 119 0 11 9 26 20 33
11 7 20 16 20 20 0 4 14 30 30 58 17 28 30 54 30 59 0 4 -26 29 -57 57 -57 49
-58 49 -145 55 -48 4 -95 12 -103 19 -10 9 -15 31 -15 74 0 48 -4 67 -20 84
-20 21 -180 129 -256 172 l-41 24 -30 -25 c-17 -13 -34 -33 -39 -43 -10 -22
-58 -39 -90 -31 -12 2 -34 23 -49 45 -16 23 -47 52 -69 65 -52 30 -269 107
-366 130 -41 10 -111 26 -155 37 -44 11 -92 20 -107 19 -16 -1 -45 6 -65 14
-20 9 -80 22 -132 30 -214 31 -346 62 -503 115 -47 17 -90 29 -95 28 -4 -1
-44 -4 -88 -8z m186 -734 c138 -22 192 -33 230 -49 19 -8 66 -27 104 -42 94
-37 181 -81 220 -111 17 -13 35 -24 40 -24 10 0 87 -61 102 -80 6 -9 31 -29
55 -45 24 -17 53 -41 65 -55 49 -54 53 -60 53 -69 0 -5 3 -11 8 -13 31 -13
162 -226 162 -264 0 -5 8 -25 19 -44 20 -38 50 -134 78 -245 12 -52 17 -111
16 -226 l0 -155 -47 -98 c-26 -54 -53 -114 -60 -135 -8 -20 -28 -58 -45 -86
-17 -27 -31 -53 -31 -58 0 -4 -19 -35 -42 -69 -24 -33 -48 -68 -53 -78 -17
-29 -73 -80 -87 -80 -7 0 -20 -10 -28 -21 -21 -31 -73 -79 -85 -79 -5 0 -35
-18 -65 -40 -30 -22 -66 -46 -80 -52 -13 -7 -35 -23 -48 -35 -13 -12 -41 -24
-62 -28 -21 -4 -44 -13 -51 -21 -6 -8 -16 -14 -21 -14 -5 0 -37 -14 -71 -31
-61 -30 -297 -99 -341 -99 -12 0 -32 -7 -45 -17 -14 -9 -41 -16 -63 -15 -88 4
-312 -18 -319 -30 -15 -23 36 -27 168 -13 239 26 421 63 529 108 32 14 76 28
97 32 21 4 41 13 44 21 2 7 28 21 56 30 29 9 56 23 60 30 8 13 126 74 144 74
5 0 20 11 33 25 26 28 65 33 74 10 7 -19 63 -12 156 20 126 44 202 66 208 60
4 -3 6 -64 6 -135 0 -128 1 -130 22 -130 21 0 94 64 94 83 0 4 5 7 12 7 7 0
31 21 54 46 23 25 55 49 70 53 26 7 29 12 29 47 0 22 8 51 17 66 9 14 20 54
24 89 4 35 13 73 20 84 20 28 18 154 -2 183 -11 16 -14 34 -10 57 5 25 0 52
-19 98 -35 90 -33 114 15 160 22 20 47 37 55 37 8 0 15 4 15 9 0 12 80 38 141
46 48 7 105 -11 129 -40 19 -22 50 -172 50 -238 0 -41 -5 -70 -16 -85 -10 -15
-17 -50 -19 -98 -4 -87 -30 -159 -88 -249 -44 -67 -144 -170 -176 -180 -12 -3
-21 -11 -21 -16 0 -5 -6 -9 -14 -9 -8 0 -16 -6 -19 -14 -8 -19 -53 -25 -76
-10 -17 12 -20 9 -40 -45 -11 -32 -21 -70 -21 -84 0 -14 -6 -32 -14 -39 -7 -8
-17 -24 -21 -37 -6 -20 -61 -78 -195 -207 -14 -13 -30 -24 -34 -24 -5 0 -24
-11 -42 -25 -18 -14 -37 -25 -43 -25 -6 0 -11 -2 -11 -4 0 -2 -3 -11 -6 -20
-9 -24 20 -20 47 8 13 13 34 27 47 30 42 14 50 -5 48 -125 -1 -112 -7 -128
-45 -129 -15 0 -112 -68 -124 -86 -4 -7 -20 -19 -35 -27 -15 -8 -45 -24 -66
-36 -22 -11 -42 -24 -45 -29 -8 -10 -106 -72 -115 -72 -7 0 -56 -33 -91 -63
-12 -10 -55 -41 -96 -69 -41 -28 -75 -55 -77 -59 -2 -5 -9 -9 -15 -9 -7 0 -32
-18 -57 -41 -25 -22 -58 -47 -75 -56 -16 -9 -36 -24 -43 -34 -7 -11 -19 -19
-27 -19 -7 0 -27 -11 -43 -25 -43 -36 -74 -33 -108 12 -16 21 -67 77 -114 124
-182 184 -226 243 -216 291 5 24 2 29 -22 34 -40 9 -124 34 -150 45 -13 5 -30
9 -39 9 -8 0 -45 14 -82 31 -36 16 -93 42 -126 56 -63 27 -68 29 -150 75 -27
16 -57 31 -66 34 -8 3 -20 17 -27 32 -6 15 -21 41 -32 57 -26 39 -50 91 -50
108 0 8 -7 20 -15 27 -8 7 -15 17 -15 23 0 18 -43 102 -56 110 -7 4 -16 24
-20 45 -4 20 -12 44 -19 52 -16 20 -27 65 -29 121 -1 43 -5 48 -57 91 -100 81
-179 157 -179 172 0 5 -18 24 -40 43 -22 19 -40 40 -40 48 0 7 -7 18 -15 25
-8 7 -15 19 -15 27 0 7 -8 22 -18 33 -10 11 -24 36 -31 57 -7 21 -26 65 -41
98 -66 142 -103 405 -78 544 10 55 14 72 42 181 22 88 84 219 142 300 13 19
30 44 37 54 6 10 22 31 35 46 12 15 22 32 22 37 0 5 15 20 33 33 17 13 41 35
52 49 41 52 63 70 180 148 22 14 47 34 55 43 20 21 87 60 105 60 7 0 15 4 17
8 2 5 28 21 58 36 30 14 75 37 100 51 25 13 52 24 61 24 8 1 53 16 100 35 46
19 102 37 124 41 22 4 45 10 50 14 18 11 197 28 306 30 58 0 148 -6 200 -13z
m527 -4169 c8 -9 9 -51 6 -123 -8 -153 -4 -428 9 -559 4 -35 -27 -26 -83 25
-30 27 -58 49 -62 50 -12 0 -68 62 -68 75 0 6 3 15 7 19 4 3 8 35 10 69 2 34
11 114 20 177 9 63 17 145 18 182 1 38 8 75 15 83 16 19 113 21 128 2z"/>
<path d="M3306 4162 c-2 -4 -7 -23 -11 -43 -6 -31 -3 -39 16 -53 53 -37 128
-2 114 52 -4 15 -11 33 -17 39 -11 14 -94 18 -102 5z"/>
<path d="M1587 3875 c-21 -21 -31 -73 -18 -89 14 -17 80 -28 120 -20 25 5 32
12 37 42 6 31 3 39 -20 59 -32 27 -96 31 -119 8z"/>
<path d="M3394 3636 c-20 -20 -41 -36 -46 -36 -4 0 -8 -7 -8 -15 0 -8 7 -15
15 -15 20 0 65 29 65 43 0 5 8 16 18 23 13 10 14 15 5 25 -9 9 -20 3 -49 -25z"/>
<path d="M3252 3510 c-23 -16 -46 -30 -50 -30 -5 0 -17 -9 -27 -20 -10 -11
-27 -22 -39 -26 -11 -3 -28 -12 -36 -19 -32 -28 -199 -75 -333 -95 -32 -4 -61
-11 -64 -14 -25 -24 91 -26 161 -2 26 9 59 16 75 16 16 0 34 7 41 15 7 8 23
15 36 15 23 0 72 24 122 60 15 10 45 24 67 29 39 11 129 83 118 95 -12 12 -31
6 -71 -24z"/>
<path d="M1700 3491 c0 -11 62 -41 84 -41 9 0 16 -3 16 -8 0 -9 30 -25 145
-78 46 -21 114 -36 180 -41 37 -3 64 -10 72 -20 15 -20 167 -32 178 -14 11 19
1 23 -77 32 -90 11 -175 26 -188 34 -6 3 -49 17 -98 31 -161 45 -191 55 -202
70 -26 31 -110 58 -110 35z"/>
<path d="M2410 3296 c0 -17 22 -26 66 -26 44 0 46 25 3 34 -49 9 -69 7 -69 -8z"/>
<path d="M2571 3294 c0 -11 3 -14 6 -6 3 7 2 16 -1 19 -3 4 -6 -2 -5 -13z"/>
<path d="M2643 3303 c-17 -6 -16 -33 1 -33 20 0 40 26 24 32 -7 3 -19 3 -25 1z"/>
<path d="M1690 2933 c0 -5 10 -13 23 -19 12 -7 62 -33 110 -58 83 -43 137 -58
137 -37 0 13 -21 28 -70 47 -25 10 -67 30 -93 46 -44 26 -107 38 -107 21z"/>
<path d="M1980 2800 c0 -5 21 -10 48 -9 35 0 42 3 27 9 -28 12 -75 12 -75 0z"/>
<path d="M2111 2760 c9 -5 54 -11 100 -12 46 -2 89 -7 94 -10 15 -9 39 7 31
21 -5 7 -49 11 -124 11 -77 -1 -112 -4 -101 -10z"/>
<path d="M3174 2756 c-6 -6 -22 -18 -34 -26 -13 -8 -30 -23 -39 -32 -8 -10
-21 -18 -28 -18 -7 0 -13 -4 -13 -9 0 -5 -8 -12 -17 -15 -10 -4 -30 -13 -46
-22 -41 -23 -167 -35 -192 -18 -11 8 -41 14 -68 14 -41 0 -56 -5 -84 -30 -18
-16 -37 -30 -42 -30 -4 0 -27 -18 -50 -39 -45 -42 -118 -81 -150 -81 -26 0
-71 55 -71 86 0 14 -6 32 -14 39 -11 12 -15 10 -25 -11 -11 -25 -8 -56 10
-104 10 -26 72 -60 110 -60 28 0 125 55 178 102 24 21 48 38 52 38 5 0 9 6 9
13 0 6 12 20 26 31 25 18 27 18 65 1 27 -12 65 -18 122 -18 78 -1 90 2 163 37
95 47 178 123 160 148 -8 11 -14 12 -22 4z"/>
<path d="M3737 2450 c-14 -11 -32 -20 -41 -20 -9 0 -16 -4 -16 -8 0 -4 -12
-13 -27 -20 -57 -26 -73 -37 -79 -54 -3 -10 -9 -18 -13 -18 -11 0 -119 -65
-141 -85 -9 -8 -20 -15 -24 -15 -4 0 -19 -12 -34 -26 -15 -14 -47 -34 -72 -46
-25 -11 -76 -43 -113 -72 -63 -48 -66 -51 -41 -54 30 -4 121 41 142 70 7 10
22 18 32 18 10 0 23 6 27 14 4 8 25 24 46 36 20 12 37 26 37 30 0 4 17 15 38
23 21 8 53 34 71 56 19 23 40 41 47 41 8 0 14 5 14 10 0 6 7 10 15 10 9 0 18
7 21 15 4 8 16 15 29 15 12 0 28 7 35 15 6 8 22 17 33 21 34 10 78 44 72 55
-10 14 -30 11 -58 -11z"/>
<path d="M2630 2070 c0 -5 8 -10 18 -10 10 0 27 -7 38 -15 12 -9 40 -14 74
-14 l55 1 -52 16 c-28 10 -55 20 -59 25 -11 11 -74 9 -74 -3z"/>
<path d="M2900 2016 c0 -13 13 -16 82 -16 100 0 94 16 -9 26 -64 6 -73 4 -73
-10z"/>
</g>
</svg>
