<?xml version="1.0" standalone="no"?>
<!DOCTYPE svg PUBLIC "-//W3C//DTD SVG 20010904//EN"
 "http://www.w3.org/TR/2001/REC-SVG-20010904/DTD/svg10.dtd">
<svg version="1.0" xmlns="http://www.w3.org/2000/svg"
 width="600.000000pt" height="600.000000pt" viewBox="0 0 600.000000 600.000000"
 preserveAspectRatio="xMidYMid meet">
<metadata>
Created by potrace 1.16, written by Peter Selinger 2001-2019
</metadata>
<g transform="translate(0.000000,600.000000) scale(0.100000,-0.100000)"
fill="#000000" stroke="none">
<path d="M2715 5994 c-33 -2 -85 -8 -115 -13 -30 -6 -86 -15 -125 -22 -155
-25 -501 -122 -552 -155 -13 -8 -23 -12 -23 -10 0 12 -206 -83 -348 -161 -145
-79 -382 -237 -382 -254 0 -5 -5 -9 -11 -9 -34 0 -395 -342 -383 -362 4 -6 3
-8 -3 -5 -19 12 -204 -223 -314 -398 -112 -178 -307 -581 -264 -545 9 7 18 10
21 8 3 -3 -6 -14 -19 -25 -29 -22 -70 -143 -116 -335 -46 -193 -50 -224 -32
-236 14 -10 14 -13 0 -24 -9 -7 -14 -19 -11 -27 3 -8 0 -11 -6 -7 -6 4 -13
-21 -17 -66 -5 -50 -4 -73 4 -76 17 -6 13 -32 -5 -32 -14 0 -15 -28 -11 -282
5 -241 10 -311 31 -428 1 -8 5 -22 9 -30 4 -8 8 -33 10 -56 2 -23 7 -46 11
-53 4 -7 5 -18 2 -26 -3 -8 0 -15 5 -15 6 0 9 -9 6 -20 -3 -11 -1 -23 4 -26 5
-3 9 -17 9 -31 0 -33 39 -174 52 -190 6 -7 7 -13 2 -13 -5 0 -3 -4 3 -8 7 -5
14 -20 15 -35 1 -15 6 -27 11 -27 5 0 7 -7 3 -15 -3 -8 0 -15 6 -15 6 0 8 -3
5 -7 -4 -3 -2 -12 4 -20 6 -7 8 -13 3 -13 -5 0 -3 -4 3 -8 7 -4 15 -19 17 -32
2 -14 5 -27 6 -30 2 -3 2 -8 1 -12 0 -5 4 -8 10 -8 5 0 7 -4 4 -10 -3 -5 -2
-10 3 -10 9 0 27 -47 24 -62 -1 -5 3 -8 9 -8 5 0 7 -5 4 -10 -3 -5 -1 -10 6
-10 7 0 10 -3 6 -6 -7 -7 30 -86 45 -95 5 -3 8 -8 6 -10 -5 -7 34 -89 44 -89
4 0 8 -7 8 -15 0 -8 5 -15 11 -15 5 0 7 -5 4 -10 -3 -5 -2 -10 3 -10 6 0 13
-11 16 -25 4 -14 11 -25 16 -25 6 0 10 -7 10 -15 0 -8 5 -15 11 -15 5 0 8 -4
4 -9 -3 -6 3 -14 12 -20 10 -6 15 -11 10 -11 -9 0 43 -80 52 -80 3 0 12 -12
18 -27 7 -16 26 -43 43 -61 16 -18 30 -36 30 -40 0 -4 23 -31 50 -61 28 -30
50 -58 50 -62 0 -4 27 -30 60 -59 33 -29 60 -58 60 -65 0 -8 15 -25 33 -39 17
-14 67 -59 109 -100 307 -294 790 -554 1244 -671 274 -71 331 -76 778 -74 375
2 409 3 531 26 230 42 478 117 642 194 35 17 64 29 65 28 7 -5 253 127 346
185 388 244 739 602 976 994 70 115 146 268 139 276 -4 3 -1 6 6 6 7 0 9 5 6
10 -3 6 -1 10 6 10 7 0 9 3 6 7 -4 3 2 20 13 38 11 18 17 35 13 38 -3 4 -1 7
6 7 7 0 10 4 7 9 -7 11 16 71 27 71 4 0 6 4 2 9 -3 5 -1 12 5 16 6 4 8 11 5
16 -4 5 -2 9 4 9 6 0 8 7 5 15 -4 8 -2 15 2 15 5 0 10 12 11 26 0 15 7 30 15
35 7 5 9 9 4 9 -5 0 -3 7 4 15 7 8 9 15 4 15 -4 0 -3 5 3 11 6 6 9 17 7 24 -3
7 -1 16 5 19 6 4 8 13 4 21 -3 8 0 15 7 15 6 0 8 5 5 10 -3 5 -3 15 1 22 4 7
9 23 10 36 2 14 6 32 10 41 4 9 6 24 5 34 -1 9 2 17 8 17 6 0 8 7 5 15 -4 8
-1 21 5 29 6 7 9 15 6 18 -2 2 2 40 11 84 8 43 15 92 14 107 0 16 3 33 7 40
10 16 12 68 11 352 -1 331 -2 355 -11 355 -5 0 -8 15 -6 33 1 17 -1 39 -4 47
-7 19 -28 146 -26 157 1 4 -1 15 -4 23 -9 22 -70 262 -71 280 -1 8 -4 17 -7
20 -11 9 -29 72 -23 81 3 5 0 9 -6 9 -7 0 -10 7 -6 15 3 8 1 15 -3 15 -12 0
-32 60 -24 73 3 6 1 7 -5 3 -11 -7 -16 8 -15 42 1 7 -2 11 -5 8 -3 -3 -14 13
-24 36 -10 22 -16 43 -13 46 2 3 -22 57 -55 121 -327 642 -870 1145 -1532
1420 -181 74 -457 154 -628 181 -41 6 -95 16 -120 22 -44 10 -567 19 -685 12z
m-285 -80 c0 -8 -4 -12 -10 -9 -5 3 -10 10 -10 16 0 5 5 9 10 9 6 0 10 -7 10
-16z m80 -4 c0 -5 -4 -10 -10 -10 -5 0 -10 5 -10 10 0 6 5 10 10 10 6 0 10 -4
10 -10z m30 -40 c0 -13 -28 -25 -38 -16 -3 4 0 11 8 16 20 13 30 12 30 0z
m-550 -142 c0 -18 -18 -6 -31 20 -22 45 -21 48 5 17 14 -16 26 -33 26 -37z
m-10 -54 c0 -8 -4 -14 -10 -14 -5 0 -10 9 -10 21 0 11 5 17 10 14 6 -3 10 -13
10 -21z m896 -121 c-10 -10 -19 5 -10 18 6 11 8 11 12 0 2 -7 1 -15 -2 -18z
m-916 7 c0 -5 -4 -10 -10 -10 -5 0 -10 5 -10 10 0 6 5 10 10 10 6 0 10 -4 10
-10z m-345 -40 c-3 -5 -10 -10 -16 -10 -5 0 -9 5 -9 10 0 6 7 10 16 10 8 0 12
-4 9 -10z m245 -64 c0 -3 -4 -8 -10 -11 -5 -3 -10 -1 -10 4 0 6 5 11 10 11 6
0 10 -2 10 -4z m310 -6 c0 -5 -7 -10 -15 -10 -8 0 -15 5 -15 10 0 6 7 10 15
10 8 0 15 -4 15 -10z m749 -33 c-1 -17 -2 -18 -6 -4 -2 9 -9 17 -14 17 -6 0
-7 5 -4 10 10 16 25 1 24 -23z m-1607 -59 c-7 -7 -12 -8 -12 -2 0 14 12 26 19
19 2 -3 -1 -11 -7 -17z m408 -28 c0 -5 -7 -10 -16 -10 -8 0 -12 5 -9 10 3 6
10 10 16 10 5 0 9 -4 9 -10z m-90 -10 c0 -5 -4 -10 -10 -10 -5 0 -10 5 -10 10
0 6 5 10 10 10 6 0 10 -4 10 -10z m755 -10 c3 -5 1 -10 -4 -10 -6 0 -11 5 -11
10 0 6 2 10 4 10 3 0 8 -4 11 -10z m-1265 -10 c0 -5 -2 -10 -4 -10 -3 0 -8 5
-11 10 -3 6 -1 10 4 10 6 0 11 -4 11 -10z m140 0 c0 -5 -5 -10 -11 -10 -5 0
-7 5 -4 10 3 6 8 10 11 10 2 0 4 -4 4 -10z m-150 -34 c0 -3 -4 -8 -10 -11 -5
-3 -10 -1 -10 4 0 6 5 11 10 11 6 0 10 -2 10 -4z m2085 -16 c-3 -5 -11 -10
-16 -10 -6 0 -7 5 -4 10 3 6 11 10 16 10 6 0 7 -4 4 -10z m-2050 -60 c3 -5 1
-10 -4 -10 -6 0 -11 5 -11 10 0 6 2 10 4 10 3 0 8 -4 11 -10z m-90 -26 c-7 -8
-21 -11 -29 -8 -22 9 -11 22 18 22 21 0 23 -3 11 -14z m859 -9 c3 -8 1 -15 -3
-15 -5 0 -11 7 -15 15 -3 8 -1 15 3 15 5 0 11 -7 15 -15z m-354 -55 c0 -5 -5
-10 -11 -10 -5 0 -7 5 -4 10 3 6 8 10 11 10 2 0 4 -4 4 -10z m670 -16 c0 -8
-4 -12 -10 -9 -5 3 -10 10 -10 16 0 5 5 9 10 9 6 0 10 -7 10 -16z m-1270 -16
c0 -18 -2 -20 -9 -8 -6 8 -7 18 -5 22 9 14 14 9 14 -14z m95 -18 c-3 -5 -11
-10 -16 -10 -6 0 -7 5 -4 10 3 6 11 10 16 10 6 0 7 -4 4 -10z m-105 -49 c0 -5
-9 -19 -21 -32 -11 -13 -18 -17 -15 -9 3 8 9 23 12 33 7 18 24 24 24 8z m17
-46 c-4 -8 -11 -15 -17 -15 -7 0 -7 6 0 21 13 23 26 19 17 -6z m303 15 c0 -5
-4 -10 -10 -10 -5 0 -10 5 -10 10 0 6 5 10 10 10 6 0 10 -4 10 -10z m-447
-110 c-3 -11 -7 -20 -9 -20 -2 0 -4 9 -4 20 0 11 4 20 9 20 5 0 7 -9 4 -20z
m-73 -99 c0 -12 -20 -25 -27 -18 -7 7 6 27 18 27 5 0 9 -4 9 -9z m400 -25 c0
-2 -8 -10 -17 -17 -16 -13 -17 -12 -4 4 13 16 21 21 21 13z m-470 -55 c0 -5
-7 -11 -15 -15 -15 -5 -20 5 -8 17 9 10 23 9 23 -2z m1005 -51 c3 -5 1 -10 -4
-10 -6 0 -11 5 -11 10 0 6 2 10 4 10 3 0 8 -4 11 -10z m-865 -12 c0 -24 -12
-58 -20 -58 -6 0 -6 46 -1 68 3 9 21 0 21 -10z m880 -28 c0 -5 -2 -10 -4 -10
-3 0 -8 5 -11 10 -3 6 -1 10 4 10 6 0 11 -4 11 -10z m230 -4 c0 -3 -4 -8 -10
-11 -5 -3 -10 -1 -10 4 0 6 5 11 10 11 6 0 10 -2 10 -4z m-40 -10 c0 -3 -4 -8
-10 -11 -5 -3 -10 -1 -10 4 0 6 5 11 10 11 6 0 10 -2 10 -4z m-60 -35 c0 -5
-7 -14 -15 -21 -13 -11 -18 -11 -28 0 -10 10 -9 12 6 7 11 -4 17 -1 17 8 0 8
5 15 10 15 6 0 10 -4 10 -9z m3420 -6 c0 -8 -6 -15 -14 -15 -20 0 -29 17 -14
23 22 9 28 7 28 -8z m-4580 1 c0 -11 -19 -15 -25 -6 -3 5 1 10 9 10 9 0 16 -2
16 -4z m60 -10 c0 -11 -19 -15 -25 -6 -3 5 1 10 9 10 9 0 16 -2 16 -4z m4450
-6 c0 -5 -5 -10 -11 -10 -5 0 -7 5 -4 10 3 6 8 10 11 10 2 0 4 -4 4 -10z
m-3415 -29 c-3 -6 -14 -11 -23 -11 -15 1 -15 2 2 15 21 16 32 13 21 -4z
m-1275 5 c0 -9 -40 -13 -46 -5 -3 5 6 9 20 9 14 0 26 -2 26 -4z m3380 -75 c0
-11 -50 -24 -58 -16 -8 8 19 25 41 25 9 0 17 -4 17 -9z m70 -21 c0 -5 -5 -10
-12 -10 -6 0 -19 -7 -29 -16 -16 -14 -17 -13 -15 10 1 21 6 26 29 26 15 0 27
-4 27 -10z m-2850 -30 c-27 -20 -36 -19 -27 5 4 8 17 15 29 15 l23 0 -25 -20z
m4563 4 c10 -10 -12 -44 -28 -44 -16 0 -18 9 -9 34 6 16 25 21 37 10z m-5031
-26 c-7 -7 -12 -8 -12 -2 0 14 12 26 19 19 2 -3 -1 -11 -7 -17z m738 7 c-7 -9
-15 -13 -17 -11 -7 7 7 26 19 26 6 0 6 -6 -2 -15z m2490 5 c0 -5 -4 -10 -9
-10 -6 0 -13 5 -16 10 -3 6 1 10 9 10 9 0 16 -4 16 -10z m-3483 -6 c-3 -3 -12
-4 -19 -1 -8 3 -5 6 6 6 11 1 17 -2 13 -5z m963 -67 c-19 -32 -86 -102 -79
-82 7 17 84 114 91 114 4 1 -1 -14 -12 -32z m1135 3 c3 -5 1 -10 -4 -10 -6 0
-11 5 -11 10 0 6 2 10 4 10 3 0 8 -4 11 -10z m-1845 -15 c0 -2 -9 -9 -20 -15
-12 -6 -20 -7 -20 -1 0 5 8 12 18 14 9 3 18 5 20 6 1 0 2 -1 2 -4z m187 -21
c-3 -3 -12 -4 -19 -1 -8 3 -5 6 6 6 11 1 17 -2 13 -5z m913 -4 c0 -5 -4 -10
-10 -10 -5 0 -10 5 -10 10 0 6 5 10 10 10 6 0 10 -4 10 -10z m-1155 -11 c-8
-11 -82 -12 -89 -1 -3 5 17 9 45 10 29 0 47 -3 44 -9z m225 -19 c0 -5 -10 -10
-22 -10 -19 0 -20 2 -8 10 19 13 30 13 30 0z m1460 -4 c0 -3 -4 -8 -10 -11 -5
-3 -10 -1 -10 4 0 6 5 11 10 11 6 0 10 -2 10 -4z m100 0 c0 -3 -4 -8 -10 -11
-5 -3 -10 -1 -10 4 0 6 5 11 10 11 6 0 10 -2 10 -4z m-1110 -50 c0 -3 -4 -8
-10 -11 -5 -3 -10 -1 -10 4 0 6 5 11 10 11 6 0 10 -2 10 -4z m1140 -10 c0 -15
-18 -31 -26 -23 -7 7 7 37 17 37 5 0 9 -6 9 -14z m-40 -66 c0 -5 -4 -10 -10
-10 -5 0 -10 5 -10 10 0 6 5 10 10 10 6 0 10 -4 10 -10z m-853 -16 c-3 -3 -12
-4 -19 -1 -8 3 -5 6 6 6 11 1 17 -2 13 -5z m-367 -18 c0 -3 -4 -8 -10 -11 -5
-3 -10 -1 -10 4 0 6 5 11 10 11 6 0 10 -2 10 -4z m-920 -205 c0 -12 -20 -25
-27 -18 -7 7 6 27 18 27 5 0 9 -4 9 -9z m880 -101 c0 -5 -2 -10 -4 -10 -3 0
-8 5 -11 10 -3 6 -1 10 4 10 6 0 11 -4 11 -10z m530 -150 c0 -5 -4 -10 -10
-10 -5 0 -10 5 -10 10 0 6 5 10 10 10 6 0 10 -4 10 -10z m-49 -23 c-1 -12 -15
-9 -19 4 -3 6 1 10 8 8 6 -3 11 -8 11 -12z m109 -41 c0 -8 -4 -17 -9 -21 -12
-7 -24 12 -16 25 9 15 25 12 25 -4z m50 4 c0 -5 -5 -10 -11 -10 -5 0 -7 5 -4
10 3 6 8 10 11 10 2 0 4 -4 4 -10z m-1498 -72 c-7 -7 -12 -8 -12 -2 0 14 12
26 19 19 2 -3 -1 -11 -7 -17z m1458 -37 c0 -6 -4 -13 -10 -16 -5 -3 -10 1 -10
9 0 9 5 16 10 16 6 0 10 -4 10 -9z m-105 -101 c-3 -5 -11 -10 -16 -10 -6 0 -7
5 -4 10 3 6 11 10 16 10 6 0 7 -4 4 -10z m-1405 -20 c0 -5 -2 -10 -4 -10 -3 0
-8 5 -11 10 -3 6 -1 10 4 10 6 0 11 -4 11 -10z m130 6 c0 -3 -4 -8 -10 -11 -5
-3 -10 -1 -10 4 0 6 5 11 10 11 6 0 10 -2 10 -4z m-220 -36 c0 -5 -4 -10 -10
-10 -5 0 -10 5 -10 10 0 6 5 10 10 10 6 0 10 -4 10 -10z m1425 -80 c3 -5 -1
-10 -9 -10 -9 0 -16 5 -16 10 0 6 4 10 9 10 6 0 13 -4 16 -10z m-1455 -10 c0
-5 -5 -10 -11 -10 -5 0 -7 5 -4 10 3 6 8 10 11 10 2 0 4 -4 4 -10z m1530 -70
c0 -5 -5 -10 -11 -10 -5 0 -7 5 -4 10 3 6 8 10 11 10 2 0 4 -4 4 -10z m-1503
-22 c-3 -8 -6 -5 -6 6 -1 11 2 17 5 13 3 -3 4 -12 1 -19z m53 8 c0 -8 -4 -18
-10 -21 -5 -3 -10 3 -10 14 0 12 5 21 10 21 6 0 10 -6 10 -14z m142 -41 c6
-27 0 -38 -13 -29 -12 7 -12 54 0 54 5 0 11 -11 13 -25z m68 15 c0 -5 -10 -10
-22 -10 -19 0 -20 2 -8 10 19 13 30 13 30 0z m50 -6 c0 -8 -5 -12 -10 -9 -6 4
-8 11 -5 16 9 14 15 11 15 -7z m780 1 c0 -8 -7 -15 -16 -15 -14 0 -14 3 -4 15
7 8 14 15 16 15 2 0 4 -7 4 -15z m545 -4 c3 -5 1 -12 -5 -16 -5 -3 -10 1 -10
9 0 18 6 21 15 7z m-1585 -50 c0 -12 -4 -21 -10 -21 -5 0 -10 5 -10 11 0 7 -8
18 -17 25 -15 11 -16 15 -4 23 18 12 41 -10 41 -38z m278 -26 c-3 -3 -9 2 -12
12 -6 14 -5 15 5 6 7 -7 10 -15 7 -18z m-103 5 c3 -5 1 -10 -4 -10 -6 0 -11 5
-11 10 0 6 2 10 4 10 3 0 8 -4 11 -10z m757 -12 c14 -12 14 -16 -1 -48 -13
-30 -21 -35 -49 -35 -29 0 -51 16 -52 37 0 7 69 56 81 57 3 1 12 -5 21 -11z
m-967 -17 c3 -5 1 -12 -5 -16 -5 -3 -10 1 -10 9 0 18 6 21 15 7z m-25 -137 c0
-8 -5 -12 -10 -9 -6 4 -8 11 -5 16 9 14 15 11 15 -7z m2250 -94 c0 -5 -5 -10
-11 -10 -5 0 -7 5 -4 10 3 6 8 10 11 10 2 0 4 -4 4 -10z m-260 -50 c0 -5 -4
-10 -10 -10 -5 0 -10 5 -10 10 0 6 5 10 10 10 6 0 10 -4 10 -10z m-1600 -40
c0 -5 -4 -10 -9 -10 -6 0 -13 5 -16 10 -3 6 1 10 9 10 9 0 16 -4 16 -10z
m5400 1 c0 -5 -7 -14 -15 -21 -16 -14 -18 -10 -9 14 6 17 24 22 24 7z m-3526
-22 c-3 -5 -10 -7 -15 -3 -5 3 -7 10 -3 15 3 5 10 7 15 3 5 -3 7 -10 3 -15z
m-254 -9 c0 -5 -4 -10 -10 -10 -5 0 -10 5 -10 10 0 6 5 10 10 10 6 0 10 -4 10
-10z m310 0 c0 -5 -7 -10 -16 -10 -8 0 -12 5 -9 10 3 6 10 10 16 10 5 0 9 -4
9 -10z m103 3 c4 -3 -1 -12 -11 -19 -11 -9 -13 -13 -4 -14 7 0 21 -7 29 -16 9
-9 26 -14 40 -11 12 2 23 0 23 -4 0 -13 -47 -22 -67 -14 -10 4 -29 9 -43 12
-34 6 -41 22 -22 49 17 23 42 31 55 17z m-103 -73 c0 -5 -6 -10 -14 -10 -8 0
-18 5 -21 10 -3 6 3 10 14 10 12 0 21 -4 21 -10z m-1650 -25 c0 -8 -4 -15 -10
-15 -5 0 -10 7 -10 15 0 8 5 15 10 15 6 0 10 -7 10 -15z m1689 -2 c7 -11 14
-14 18 -8 10 12 113 16 113 5 0 -13 -31 -20 -72 -16 -44 5 -48 -5 -13 -28 14
-9 25 -12 25 -6 0 5 7 10 15 10 23 0 18 -27 -6 -33 -23 -6 -79 22 -79 39 0 6
-7 17 -15 24 -8 7 -15 16 -15 21 0 15 19 10 29 -8z m-29 -29 c0 -8 5 -14 12
-14 6 0 8 -3 5 -7 -8 -7 -47 25 -47 38 0 5 7 6 15 3 8 -4 15 -12 15 -20z m-70
-4 c0 -5 -5 -10 -11 -10 -5 0 -7 5 -4 10 3 6 8 10 11 10 2 0 4 -4 4 -10z m134
-45 c19 -14 19 -16 2 -34 -23 -26 -42 -17 -40 17 1 15 2 28 3 30 3 6 17 0 35
-13z m106 5 c0 -5 -7 -10 -16 -10 -8 0 -12 5 -9 10 3 6 10 10 16 10 5 0 9 -4
9 -10z m-670 -30 c0 -5 -5 -10 -11 -10 -5 0 -7 5 -4 10 3 6 8 10 11 10 2 0 4
-4 4 -10z m484 -6 c8 -21 8 -24 -3 -24 -5 0 -11 9 -14 20 -6 24 8 27 17 4z
m232 1 c-11 -8 -22 -12 -25 -9 -6 6 19 24 34 24 6 -1 1 -7 -9 -15z m-101 -15
c3 -5 -1 -10 -9 -10 -9 0 -16 5 -16 10 0 6 4 10 9 10 6 0 13 -4 16 -10z
m-2145 -20 c13 -8 12 -12 -7 -25 -13 -9 -23 -23 -23 -32 0 -9 -3 -14 -6 -11
-7 8 6 78 15 78 3 0 13 -5 21 -10z m2120 -11 c0 -5 -7 -9 -15 -9 -15 0 -20 12
-9 23 8 8 24 -1 24 -14z m-68 -1 c5 -14 -15 -38 -31 -38 -6 0 -11 5 -11 10 0
6 5 10 10 10 6 0 10 7 10 15 0 18 17 20 22 3z m-2112 -28 c0 -5 -7 -10 -16
-10 -8 0 -12 5 -9 10 3 6 10 10 16 10 5 0 9 -4 9 -10z m2208 -18 c6 -19 -13
-14 -33 8 -18 20 -18 21 5 12 13 -5 26 -14 28 -20z m-188 -22 c0 -5 -2 -10 -4
-10 -3 0 -8 5 -11 10 -3 6 -1 10 4 10 6 0 11 -4 11 -10z m-2113 -32 c-3 -7 -5
-2 -5 12 0 14 2 19 5 13 2 -7 2 -19 0 -25z m185 0 c-9 -9 -12 -7 -12 12 0 19
3 21 12 12 9 -9 9 -15 0 -24z m1688 -4 c0 -8 -5 -12 -10 -9 -6 4 -8 11 -5 16
9 14 15 11 15 -7z m280 6 c0 -5 -5 -10 -11 -10 -5 0 -7 5 -4 10 3 6 8 10 11
10 2 0 4 -4 4 -10z m95 0 c3 -5 1 -10 -4 -10 -6 0 -11 5 -11 10 0 6 2 10 4 10
3 0 8 -4 11 -10z m-2073 -87 c5 -55 -6 -103 -23 -103 -5 0 -6 16 -4 35 4 26 1
35 -10 35 -8 0 -15 3 -15 7 0 12 35 82 41 83 4 0 9 -26 11 -57z m148 27 c0 -5
-2 -10 -4 -10 -3 0 -8 5 -11 10 -3 6 -1 10 4 10 6 0 11 -4 11 -10z m3486 -27
c-10 -10 -19 5 -10 18 6 11 8 11 12 0 2 -7 1 -15 -2 -18z m-3506 -14 c0 -23
-11 -30 -27 -17 -11 9 -16 9 -23 -3 -8 -11 -12 -11 -24 6 -22 29 -21 30 29 30
34 0 45 -4 45 -16z m1807 -21 c-3 -8 -6 -5 -6 6 -1 11 2 17 5 13 3 -3 4 -12 1
-19z m103 -48 c0 -5 -4 -10 -10 -10 -5 0 -10 5 -10 10 0 6 5 10 10 10 6 0 10
-4 10 -10z m-1323 -22 c-3 -8 -6 -5 -6 6 -1 11 2 17 5 13 3 -3 4 -12 1 -19z
m1203 18 c0 -11 -19 -15 -25 -6 -3 5 1 10 9 10 9 0 16 -2 16 -4z m-1890 -70
c0 -27 -17 -43 -31 -29 -12 12 1 53 17 53 8 0 14 -10 14 -24z m1830 14 c0 -5
-4 -10 -10 -10 -5 0 -10 5 -10 10 0 6 5 10 10 10 6 0 10 -4 10 -10z m3320 0
c0 -5 -4 -10 -10 -10 -5 0 -10 5 -10 10 0 6 5 10 10 10 6 0 10 -4 10 -10z
m-5203 -43 c-6 -20 -27 -19 -27 2 0 14 5 19 15 14 9 -3 14 -10 12 -16z m5233
-11 c0 -3 -4 -8 -10 -11 -5 -3 -10 -1 -10 4 0 6 5 11 10 11 6 0 10 -2 10 -4z
m75 -15 c7 -12 -22 -41 -41 -41 -12 0 -12 4 3 25 19 26 29 30 38 16z m-3655
-11 c0 -5 -4 -10 -10 -10 -5 0 -10 5 -10 10 0 6 5 10 10 10 6 0 10 -4 10 -10z
m-1494 -124 c14 -14 10 -46 -6 -46 -15 0 -32 30 -26 45 7 19 14 19 32 1z
m1884 -136 c0 -5 -4 -10 -10 -10 -5 0 -10 5 -10 10 0 6 5 10 10 10 6 0 10 -4
10 -10z m-310 -20 c0 -5 -4 -10 -10 -10 -5 0 -10 5 -10 10 0 6 5 10 10 10 6 0
10 -4 10 -10z m45 -10 c3 -5 -1 -10 -9 -10 -9 0 -16 5 -16 10 0 6 4 10 9 10 6
0 13 -4 16 -10z m-415 -10 c-6 -4 4 -22 25 -44 38 -41 40 -55 6 -36 -27 14
-41 6 -41 -24 0 -12 -5 -27 -12 -34 -17 -17 6 -23 73 -20 57 3 57 3 55 -26 -1
-15 4 -34 11 -42 12 -12 10 -16 -11 -26 -21 -9 -26 -18 -26 -47 0 -28 3 -32
12 -23 7 7 13 20 13 30 0 26 47 28 63 2 10 -17 11 -25 1 -36 -6 -8 -8 -18 -4
-22 4 -4 10 -1 12 6 9 23 18 12 18 -20 0 -23 5 -33 15 -33 9 0 16 -11 17 -25
2 -14 5 -47 9 -75 8 -71 8 -85 0 -126 -6 -28 -3 -46 13 -77 25 -49 26 -62 6
-62 -9 0 -15 -10 -15 -26 0 -14 -5 -35 -11 -47 -9 -16 -9 -22 0 -25 8 -3 6 -9
-6 -17 -19 -14 -20 -14 27 -28 11 -3 8 -8 -10 -15 l-25 -11 28 0 c15 -1 30 -7
33 -15 3 -8 13 -12 22 -10 13 5 13 2 -2 -10 -11 -9 -28 -16 -37 -16 -10 0 -21
-5 -25 -11 -4 -7 0 -9 14 -5 13 4 24 2 29 -7 4 -8 15 -16 23 -19 10 -3 1 -11
-25 -22 -29 -12 -36 -19 -26 -25 7 -5 11 -13 7 -19 -3 -6 -2 -13 4 -17 24 -15
7 -24 -20 -10 -16 8 -38 15 -50 15 -11 0 -28 4 -38 9 -51 28 -252 121 -261
121 -16 0 -120 68 -158 103 -19 18 -29 35 -26 44 5 12 1 14 -17 8 -15 -5 -20
-4 -16 4 4 6 1 11 -6 11 -14 0 -98 150 -98 175 0 8 -4 15 -8 15 -22 0 -54 103
-42 133 8 20 9 20 9 -7 1 -28 2 -29 16 -10 14 19 14 19 15 -1 l1 -20 9 20 c12
27 13 124 1 106 -13 -20 -24 22 -16 59 8 36 17 37 56 9 42 -29 63 -11 55 45
-10 69 -19 221 -12 215 3 -3 13 -43 22 -90 9 -46 21 -90 27 -98 12 -14 54
-110 89 -201 12 -30 30 -68 40 -85 10 -16 18 -36 18 -43 0 -7 13 -24 28 -37
15 -13 34 -35 41 -49 10 -17 23 -26 40 -26 18 0 22 3 14 11 -7 7 -9 26 -6 45
4 25 1 40 -12 54 -16 18 -16 18 4 13 39 -10 14 38 -34 65 -10 5 -15 15 -11 21
4 6 13 8 19 4 19 -12 47 -14 47 -3 0 6 -9 10 -20 10 -11 0 -20 6 -20 14 0 8
-5 16 -12 18 -6 2 -8 10 -4 16 12 19 26 14 26 -10 0 -17 3 -19 12 -10 9 9 16
8 32 -6 20 -16 20 -16 7 1 -10 13 -11 20 -2 31 9 11 8 15 -4 20 -11 4 -14 13
-10 26 5 15 0 23 -19 32 -14 6 -26 14 -26 18 0 14 44 19 57 8 22 -18 25 -3 4
16 -15 14 -24 15 -39 7 -16 -9 -21 -7 -25 9 -3 13 -14 20 -29 21 l-23 0 23 11
c18 9 29 8 53 -6 25 -15 29 -15 29 -2 0 9 -7 16 -15 16 -27 0 -55 32 -49 57 4
14 2 23 -5 23 -19 0 -12 18 9 25 19 6 29 35 13 35 -5 1 -18 9 -31 20 -31 25
-21 41 19 30 36 -11 37 9 1 25 -39 17 -25 33 28 32 28 0 45 -4 40 -7z m472
-27 c10 -9 18 -20 18 -25 0 -5 6 -15 13 -22 57 -60 68 -83 42 -92 -8 -4 -12
-10 -9 -16 3 -5 11 -4 20 3 11 9 14 8 14 -6 0 -11 5 -15 15 -11 9 3 15 -1 15
-11 0 -13 7 -14 43 -9 23 4 46 11 52 17 5 5 25 9 45 9 32 -1 33 -2 17 -14 -17
-13 -16 -15 12 -32 31 -18 40 -34 21 -34 -5 0 -10 -6 -10 -14 0 -8 -5 -16 -11
-18 -17 -6 0 -34 29 -46 l27 -12 -31 5 c-28 4 -31 2 -26 -21 5 -26 -15 -33
-36 -12 -17 17 -25 3 -12 -21 8 -16 17 -20 35 -15 14 3 25 2 25 -4 0 -20 -65
-31 -72 -12 -1 5 -23 12 -48 16 -42 6 -44 5 -25 -10 11 -8 30 -16 43 -16 26 0
79 -44 64 -54 -5 -3 -22 4 -37 16 -15 12 -40 21 -56 21 -17 0 -29 6 -29 13 0
8 -6 11 -15 8 -8 -4 -15 -1 -15 5 0 6 -9 11 -20 11 -17 0 -12 -8 26 -45 25
-25 50 -45 55 -45 5 0 9 -7 9 -15 0 -18 -12 -19 -29 -2 -11 10 -12 8 -7 -9 4
-14 2 -24 -8 -27 -9 -4 -16 2 -20 16 -5 20 -6 20 -26 2 -15 -14 -17 -21 -9
-32 9 -10 8 -13 -5 -13 -9 0 -16 7 -16 16 0 9 -6 14 -12 11 -7 -2 -22 -1 -33
3 -10 4 -31 1 -45 -7 -33 -17 -36 -17 -46 10 -6 18 -8 15 -11 -20 -5 -50 -21
-57 -29 -13 -4 17 -12 30 -19 30 -8 0 -19 14 -27 30 -7 17 -18 30 -24 30 -6 0
-18 7 -25 16 -12 15 -10 16 20 9 31 -7 33 -5 26 15 -4 12 -1 35 5 51 12 28 11
32 -21 60 -29 26 -35 28 -38 13 -2 -10 7 -25 20 -35 16 -12 21 -21 14 -28 -12
-12 -24 -5 -53 33 -26 34 -28 56 -6 56 12 0 14 7 9 30 -6 29 -6 30 26 28 32
-3 34 -1 34 31 0 19 -6 36 -13 39 -8 2 -11 13 -9 23 3 11 1 22 -4 25 -5 3 -7
10 -3 15 3 5 9 7 14 4 4 -3 13 2 20 10 7 8 23 15 36 15 14 0 24 6 24 14 0 8 7
17 16 20 13 5 14 9 4 21 -13 16 -10 18 35 28 11 3 22 5 24 6 3 0 13 -6 23 -16z
m-956 -45 c-7 -42 -52 -112 -101 -158 -15 -14 -41 -45 -58 -69 -17 -25 -33
-39 -35 -32 -2 7 3 20 13 31 12 13 15 27 10 52 -5 28 0 43 32 90 35 52 116
128 137 128 5 0 6 -19 2 -42z m1119 12 c3 -5 1 -10 -4 -10 -6 0 -11 5 -11 10
0 6 2 10 4 10 3 0 8 -4 11 -10z m-577 -67 c5 -18 -10 -16 -34 2 -18 15 -18 15
5 13 14 -2 26 -9 29 -15z m162 -14 c0 -6 -4 -7 -10 -4 -5 3 -10 11 -10 16 0 6
5 7 10 4 6 -3 10 -11 10 -16z m-45 1 c3 -5 -1 -10 -9 -10 -9 0 -16 5 -16 10 0
6 4 10 9 10 6 0 13 -4 16 -10z m83 -50 c2 -32 -1 -40 -14 -40 -12 0 -15 6 -10
23 3 12 6 30 6 40 0 35 16 16 18 -23z m429 20 c1 -16 -4 -20 -33 -20 -40 0
-47 20 -6 21 24 0 25 1 7 9 -18 8 -18 9 5 9 19 1 26 -4 27 -19z m-521 -22 c-3
-13 -6 -27 -6 -31 0 -5 -4 -5 -10 -2 -17 10 -12 55 6 55 12 0 15 -6 10 -22z
m644 -22 c0 -11 -19 -15 -25 -6 -3 5 1 10 9 10 9 0 16 -2 16 -4z m-590 -67 c0
-23 -15 -25 -24 -4 -3 8 -12 15 -21 15 -15 0 -21 21 -9 33 11 11 54 -25 54
-44z m1965 41 c3 -5 -1 -10 -10 -10 -9 0 -13 5 -10 10 3 6 8 10 10 10 2 0 7
-4 10 -10z m-1378 -70 c2 -20 -8 -26 -20 -13 -4 3 -2 12 4 20 15 17 14 17 16
-7z m-1388 -36 c-9 -22 -13 -25 -16 -12 -5 19 18 69 24 52 2 -6 -2 -24 -8 -40z
m1436 16 c3 -5 -1 -10 -10 -10 -9 0 -13 5 -10 10 3 6 8 10 10 10 2 0 7 -4 10
-10z m-907 -22 c-6 -18 -28 -21 -28 -4 0 9 7 16 16 16 9 0 14 -5 12 -12z m-58
-63 c0 -8 -7 -15 -15 -15 -8 0 -15 7 -15 15 0 8 7 15 15 15 8 0 15 -7 15 -15z
m-500 -31 c0 -8 -4 -12 -10 -9 -5 3 -10 13 -10 21 0 8 5 12 10 9 6 -3 10 -13
10 -21z m890 -9 c0 -8 -4 -15 -10 -15 -5 0 -10 7 -10 15 0 8 5 15 10 15 6 0
10 -7 10 -15z m398 -48 c3 -16 1 -17 -17 -5 -25 16 -27 31 -4 26 10 -2 19 -11
21 -21z m42 -27 c0 -5 -7 -10 -15 -10 -8 0 -15 5 -15 10 0 6 7 10 15 10 8 0
15 -4 15 -10z m-60 -40 c0 -5 -4 -10 -10 -10 -5 0 -10 5 -10 10 0 6 5 10 10
10 6 0 10 -4 10 -10z m-30 -54 c-14 -14 -24 0 -16 21 6 15 8 15 16 3 6 -9 5
-19 0 -24z m58 16 c2 -7 -3 -12 -12 -12 -9 0 -16 7 -16 16 0 17 22 14 28 -4z
m-228 -13 c0 -14 -27 -10 -33 5 -4 10 0 12 14 9 10 -3 19 -9 19 -14z m-122 -8
c3 -8 -1 -12 -9 -9 -7 2 -15 10 -17 17 -3 8 1 12 9 9 7 -2 15 -10 17 -17z
m-48 -17 c0 -8 -4 -12 -10 -9 -5 3 -10 10 -10 16 0 5 5 9 10 9 6 0 10 -7 10
-16z m275 6 c3 -5 -1 -10 -10 -10 -9 0 -13 5 -10 10 3 6 8 10 10 10 2 0 7 -4
10 -10z m-240 -280 c-3 -5 -10 -10 -16 -10 -5 0 -9 5 -9 10 0 6 7 10 16 10 8
0 12 -4 9 -10z"/>
<path d="M1695 1480 l-30 -7 29 -12 c29 -12 62 1 50 20 -6 10 -6 10 -49 -1z"/>
<path d="M1855 1351 c-3 -5 -1 -12 4 -15 5 -3 11 1 15 9 6 16 -9 21 -19 6z"/>
<path d="M1760 1290 c0 -6 7 -10 15 -10 8 0 15 2 15 4 0 2 -7 6 -15 10 -8 3
-15 1 -15 -4z"/>
<path d="M1850 1279 c0 -11 5 -17 10 -14 6 3 10 13 10 21 0 8 -4 14 -10 14 -5
0 -10 -9 -10 -21z"/>
<path d="M1845 1230 c-8 -13 4 -32 16 -25 12 8 12 35 0 35 -6 0 -13 -4 -16
-10z"/>
<path d="M1913 1233 c-16 -6 -17 -33 -3 -33 11 0 26 28 19 34 -2 2 -10 1 -16
-1z"/>
<path d="M1317 1152 c-3 -16 2 -32 15 -46 19 -21 20 -21 34 -2 18 26 18 46 -2
46 -8 0 -13 4 -10 9 3 5 -3 11 -13 14 -14 3 -20 -2 -24 -21z"/>
<path d="M1847 1153 c-12 -11 -8 -23 8 -23 8 0 15 7 15 15 0 16 -12 20 -23 8z"/>
<path d="M1922 1107 c2 -58 20 -93 31 -63 4 9 2 18 -4 22 -6 3 -8 18 -4 33 3
16 0 34 -10 46 -14 19 -15 16 -13 -38z"/>
<path d="M1880 1045 c0 -8 5 -15 10 -15 6 0 10 7 10 15 0 8 -4 15 -10 15 -5 0
-10 -7 -10 -15z"/>
<path d="M1922 993 c5 -25 28 -28 28 -4 0 12 -6 21 -16 21 -9 0 -14 -7 -12
-17z"/>
<path d="M1843 965 c9 -8 17 -20 20 -27 2 -8 8 -9 13 -4 5 5 4 11 -3 13 -7 3
-13 11 -13 19 0 8 -7 14 -16 14 -14 0 -14 -2 -1 -15z"/>
<path d="M1960 934 c0 -8 5 -12 10 -9 6 3 10 10 10 16 0 5 -4 9 -10 9 -5 0
-10 -7 -10 -16z"/>
<path d="M1913 903 c-3 -10 -8 -21 -10 -25 -2 -5 2 -8 9 -8 8 0 15 11 16 25 2
29 -6 33 -15 8z"/>
<path d="M1818 703 c7 -3 16 -2 19 1 4 3 -2 6 -13 5 -11 0 -14 -3 -6 -6z"/>
<path d="M2193 1613 c-18 -7 -16 -23 2 -23 8 0 15 7 15 15 0 8 -1 15 -2 14 -2
0 -9 -3 -15 -6z"/>
<path d="M2206 1541 c-4 -5 -3 -16 0 -25 6 -15 8 -15 19 1 13 18 11 33 -5 33
-5 0 -11 -4 -14 -9z"/>
<path d="M2117 1534 c-11 -11 5 -34 24 -34 11 0 21 -9 25 -24 3 -13 21 -37 40
-52 19 -16 34 -34 34 -40 0 -6 9 -19 20 -29 18 -16 20 -16 20 -2 0 10 -4 17
-10 17 -5 0 -10 9 -10 20 0 12 -9 24 -22 29 -19 7 -67 70 -60 79 8 9 -1 23
-12 19 -8 -3 -17 1 -20 9 -6 15 -18 18 -29 8z"/>
<path d="M2063 1523 c-12 -2 -24 -11 -27 -20 -9 -24 1 -28 22 -10 10 10 24 17
30 17 7 0 12 5 12 10 0 6 -3 9 -7 9 -5 -1 -18 -4 -30 -6z"/>
<path d="M2250 1516 c0 -9 5 -16 10 -16 6 0 10 4 10 9 0 6 -4 13 -10 16 -5 3
-10 -1 -10 -9z"/>
<path d="M2130 1405 c-20 -24 -6 -28 15 -5 10 11 13 20 8 20 -6 0 -16 -7 -23
-15z"/>
<path d="M2282 1408 c5 -15 28 -23 28 -10 0 5 -7 13 -16 16 -10 4 -14 1 -12
-6z"/>
<path d="M2368 1403 c7 -3 16 -2 19 1 4 3 -2 6 -13 5 -11 0 -14 -3 -6 -6z"/>
<path d="M2405 1400 c-3 -5 1 -10 10 -10 9 0 13 5 10 10 -3 6 -8 10 -10 10 -2
0 -7 -4 -10 -10z"/>
<path d="M2437 1384 c-12 -12 3 -22 23 -17 11 3 17 9 14 14 -6 10 -28 12 -37
3z"/>
<path d="M2025 1360 c4 -6 11 -8 16 -5 14 9 11 15 -7 15 -8 0 -12 -5 -9 -10z"/>
<path d="M2350 1355 c0 -8 4 -15 10 -15 5 0 7 7 4 15 -4 8 -8 15 -10 15 -2 0
-4 -7 -4 -15z"/>
<path d="M2390 1364 c0 -3 10 -14 22 -24 l22 -18 -32 -7 c-18 -3 -32 -11 -32
-17 0 -6 8 -7 18 -3 9 4 25 10 35 12 9 3 17 12 17 21 0 8 -8 21 -17 28 -19 14
-33 18 -33 8z"/>
<path d="M2080 1314 c0 -8 5 -12 10 -9 6 3 10 10 10 16 0 5 -4 9 -10 9 -5 0
-10 -7 -10 -16z"/>
<path d="M2450 1300 c0 -5 5 -10 10 -10 6 0 10 5 10 10 0 6 -4 10 -10 10 -5 0
-10 -4 -10 -10z"/>
<path d="M2125 1277 c-4 -10 -5 -21 -1 -24 10 -10 18 4 13 24 -4 17 -4 17 -12
0z"/>
<path d="M2310 1279 c0 -7 -12 -10 -30 -7 -22 3 -30 0 -30 -10 0 -11 -9 -13
-40 -9 -43 6 -52 -5 -20 -25 14 -9 18 -19 13 -36 -4 -18 -2 -23 8 -20 8 3 14
16 14 29 0 13 6 24 13 24 7 0 16 5 20 11 7 12 47 27 71 28 23 1 25 26 2 26
-12 0 -21 -5 -21 -11z"/>
<path d="M2070 1241 c0 -14 5 -18 20 -14 24 6 26 19 4 27 -23 9 -24 8 -24 -13z"/>
<path d="M2117 1206 c-7 -18 3 -56 14 -56 12 0 11 17 -1 25 -7 4 -7 13 0 26 6
11 7 19 1 19 -5 0 -11 -6 -14 -14z"/>
<path d="M2241 1164 c-26 -26 -17 -32 13 -9 11 8 28 15 38 15 10 0 18 5 18 10
0 19 -45 8 -69 -16z"/>
<path d="M2060 1146 c0 -8 7 -22 16 -31 23 -22 40 -4 22 24 -15 24 -38 28 -38
7z"/>
<path d="M2300 1140 c-8 -5 -11 -12 -7 -16 4 -4 13 -2 19 4 15 15 7 24 -12 12z"/>
</g>
</svg>
