<?xml version="1.0" standalone="no"?>
<!DOCTYPE svg PUBLIC "-//W3C//DTD SVG 20010904//EN"
 "http://www.w3.org/TR/2001/REC-SVG-20010904/DTD/svg10.dtd">
<svg version="1.0" xmlns="http://www.w3.org/2000/svg"
 width="600.000000pt" height="600.000000pt" viewBox="0 0 600.000000 600.000000"
 preserveAspectRatio="xMidYMid meet">
<metadata>
Created by potrace 1.16, written by Peter Selinger 2001-2019
</metadata>
<g transform="translate(0.000000,600.000000) scale(0.100000,-0.100000)"
fill="#000000" stroke="none">
<path d="M3120 5903 c-46 -8 -95 -25 -163 -59 -37 -19 -72 -34 -78 -34 -16 0
-336 -118 -381 -141 -103 -52 -197 -122 -261 -193 -62 -69 -127 -180 -127
-216 0 -8 -9 -29 -19 -46 -10 -17 -22 -53 -26 -81 -5 -36 -24 -79 -68 -152
-134 -222 -169 -314 -206 -551 -10 -67 -6 -491 8 -680 6 -91 19 -210 28 -265
9 -55 19 -138 22 -185 5 -64 13 -98 33 -136 20 -37 32 -87 47 -193 27 -182 27
-270 1 -355 -32 -101 -28 -100 -315 -107 -251 -7 -344 -19 -445 -59 -52 -20
-260 -155 -382 -246 -83 -63 -110 -74 -206 -85 -192 -23 -422 -78 -422 -101 0
-21 93 -244 147 -353 335 -671 900 -1188 1599 -1463 213 -84 415 -137 684
-179 165 -26 655 -26 820 0 367 58 605 131 925 287 451 220 842 557 1139 984
71 101 79 131 44 163 -80 72 -307 180 -653 309 -133 49 -206 86 -285 144 -36
26 -93 62 -127 79 -60 30 -113 49 -443 163 -203 71 -214 80 -167 149 38 56 74
123 82 149 7 26 47 91 76 125 23 27 134 237 177 335 34 79 111 296 128 360 8
30 24 91 35 135 12 44 38 114 59 155 47 94 100 225 100 250 0 40 54 185 115
311 75 155 85 194 85 337 1 105 1 108 35 162 52 81 46 115 -41 250 -33 51 -35
60 -31 115 4 52 0 71 -31 144 -28 66 -44 89 -75 112 -22 16 -46 29 -53 29 -7
0 -32 25 -55 56 -22 31 -61 68 -86 82 -25 15 -64 41 -87 59 -23 18 -77 58
-121 89 -44 32 -101 76 -126 98 -25 23 -71 54 -103 70 -31 16 -78 48 -104 71
-65 58 -79 64 -179 75 -48 5 -139 16 -202 25 -106 14 -262 18 -321 8z m-910
-546 c0 -4 -38 -87 -49 -106 -4 -8 -13 -17 -19 -19 -15 -5 1 49 28 93 18 29
40 46 40 32z m741 -973 c10 -9 37 -20 60 -25 24 -6 50 -15 58 -22 21 -18 122
-38 241 -48 185 -15 316 -34 297 -42 -10 -4 -34 -7 -53 -7 -23 0 -34 -5 -34
-14 0 -9 -15 -17 -38 -21 -35 -6 -39 -10 -61 -66 -22 -53 -23 -69 -18 -157 8
-120 21 -158 69 -210 29 -31 46 -41 84 -47 26 -3 83 -23 128 -43 94 -41 186
-49 242 -19 43 22 119 39 149 31 35 -9 53 -64 50 -149 -2 -59 -8 -79 -36 -127
-19 -32 -39 -58 -46 -58 -6 0 -16 -13 -21 -29 -6 -16 -19 -32 -29 -35 -11 -3
-27 -21 -37 -39 -48 -90 -62 -113 -79 -125 -20 -16 -50 -76 -54 -112 -25 -204
-32 -226 -119 -328 -30 -35 -54 -68 -54 -73 0 -15 -84 -10 -106 6 -29 22 -41
18 -53 -16 -7 -21 -7 -37 0 -50 7 -15 6 -19 -5 -19 -8 0 -17 -9 -21 -20 -13
-40 -114 -143 -143 -145 -31 -2 -112 -29 -112 -37 0 -4 -9 -8 -21 -8 -17 0
-19 4 -13 22 6 20 5 21 -10 9 -9 -7 -16 -25 -16 -38 0 -15 -5 -23 -12 -21 -7
3 -20 -2 -28 -10 -13 -14 -15 -14 -18 2 -3 12 -10 16 -23 13 -23 -6 -75 18
-83 38 -3 8 -12 15 -21 15 -8 0 -15 5 -15 10 0 6 -4 10 -10 10 -5 0 -10 -7
-10 -15 0 -8 -6 -15 -12 -15 -7 0 -23 -3 -35 -6 -17 -5 -22 -1 -25 18 -2 12
-9 22 -16 20 -7 -1 -15 12 -19 28 -3 19 -11 29 -18 26 -18 -6 -35 13 -27 32 4
11 1 14 -9 10 -11 -4 -15 4 -15 33 -1 30 -9 45 -34 69 -19 17 -46 34 -60 37
-21 4 -27 11 -27 29 0 25 -41 66 -59 59 -7 -2 -10 4 -7 16 7 24 -19 26 -38 3
-7 -8 -20 -13 -30 -11 -23 6 -121 -12 -136 -25 -13 -11 -35 1 -60 32 -11 13
-12 13 -13 0 0 -11 -6 -9 -19 8 -11 12 -23 22 -29 22 -17 0 -43 37 -36 53 3 9
-5 30 -19 49 -33 44 -40 70 -42 148 -7 257 -19 431 -30 426 -17 -6 -37 108
-25 140 13 32 41 179 60 312 13 89 40 145 92 192 22 20 48 55 58 78 11 23 23
42 28 42 5 0 15 15 22 33 21 52 49 78 72 66 11 -6 26 -8 34 -5 8 3 14 1 14 -4
0 -12 48 -6 62 8 7 7 25 12 40 12 15 0 28 4 28 8 0 9 135 52 165 53 11 0 40 8
65 19 57 23 99 24 121 4z m786 -411 c48 -20 58 -38 16 -26 -16 5 -63 8 -105 7
-78 0 -103 10 -50 22 15 3 32 7 37 9 25 8 63 4 102 -12z m-117 -90 c0 -48 11
-64 52 -80 l33 -13 -37 5 c-62 9 -59 -23 4 -49 41 -17 58 -36 33 -36 -27 0
-58 20 -97 62 -40 42 -49 64 -23 54 14 -5 14 -4 0 16 -16 23 -20 60 -8 71 3 4
15 7 25 7 14 0 18 -8 18 -37z m50 17 c0 -5 -5 -10 -11 -10 -5 0 -7 5 -4 10 3
6 8 10 11 10 2 0 4 -4 4 -10z m-1800 -70 c0 -39 17 -47 32 -15 10 21 16 25 37
20 14 -3 32 -13 39 -22 18 -24 15 -95 -7 -143 -22 -50 -18 -76 15 -84 19 -5
24 -13 25 -39 1 -17 0 -36 -2 -42 -1 -5 -2 -21 -1 -35 5 -129 -7 -205 -33
-197 -35 12 -98 174 -124 321 -12 64 -15 234 -5 260 9 24 24 9 24 -24z m197
-898 c6 -4 25 -41 41 -82 17 -41 40 -93 51 -116 11 -22 23 -52 26 -67 4 -15
11 -27 15 -27 15 0 43 -101 32 -112 -14 -14 1 -43 40 -76 20 -17 27 -30 23
-43 -4 -10 -2 -27 4 -36 9 -16 10 -16 11 5 0 32 22 23 35 -14 5 -16 15 -32 21
-36 7 -5 22 -28 34 -53 12 -25 26 -45 31 -45 19 0 49 -80 49 -130 0 -50 3 -54
43 -51 9 1 17 -4 17 -13 0 -8 5 -16 12 -18 6 -2 8 -10 4 -17 -6 -9 -11 -8 -22
6 -15 20 -15 20 -20 -19 -2 -21 2 -28 14 -29 9 -1 24 -2 32 -3 8 0 16 -12 18
-26 1 -14 7 -51 13 -82 7 -43 7 -62 -2 -77 -11 -17 -7 -24 32 -61 85 -80 112
-100 136 -100 15 0 23 -6 23 -16 0 -22 63 -91 78 -86 7 2 12 -1 12 -7 0 -6 6
-11 13 -11 7 0 17 -13 23 -29 8 -20 24 -33 58 -46 42 -16 46 -21 46 -51 0 -31
3 -33 38 -37 20 -2 -1 -2 -47 0 -105 6 -169 23 -289 74 -224 95 -464 286 -609
483 -55 74 -117 201 -138 281 -22 85 -19 215 6 311 23 86 40 191 59 357 7 59
16 107 19 107 3 0 11 -4 18 -8z m263 -267 c0 -8 -7 -15 -15 -15 -8 0 -15 7
-15 15 0 8 7 15 15 15 8 0 15 -7 15 -15z m190 -497 c0 -16 -3 -19 -11 -11 -6
6 -8 16 -5 22 11 17 16 13 16 -11z m25 -38 c3 -5 1 -10 -4 -10 -6 0 -11 5 -11
10 0 6 2 10 4 10 3 0 8 -4 11 -10z m115 -341 c0 -5 -7 -6 -15 -3 -8 4 -15 13
-15 21 0 13 3 13 15 3 8 -7 15 -16 15 -21z"/>
<path d="M2855 4270 c-3 -5 -2 -10 4 -10 5 0 13 5 16 10 3 6 2 10 -4 10 -5 0
-13 -4 -16 -10z"/>
<path d="M3052 4269 c-13 -5 -34 -6 -46 -3 -38 9 -106 -15 -143 -51 l-35 -34
27 -17 c14 -9 22 -20 18 -24 -4 -4 -39 -15 -76 -25 -113 -27 -217 -95 -217
-141 0 -18 7 -23 43 -28 98 -15 102 -14 105 22 4 34 26 44 36 15 3 -10 9 -24
12 -30 3 -8 -1 -13 -10 -13 -9 0 -16 -4 -16 -10 0 -13 13 -13 27 1 12 12 36 3
28 -11 -3 -5 10 -6 30 -3 31 5 35 3 35 -16 0 -14 8 -22 28 -27 15 -3 35 -8 45
-11 32 -8 147 8 147 22 0 7 7 18 16 26 12 10 15 26 12 68 -2 31 -6 61 -9 66
-2 6 1 11 6 12 6 1 12 12 15 25 4 15 14 24 31 26 34 4 56 60 37 92 -20 34
-118 79 -146 69z m-202 -168 l25 -8 -25 -10 c-14 -6 -52 -18 -85 -28 -33 -9
-75 -26 -94 -36 -18 -11 -36 -18 -38 -15 -8 8 83 69 130 87 48 19 53 20 87 10z"/>
<path d="M2645 4255 c-27 -7 -54 -9 -60 -4 -12 9 -55 -26 -80 -65 -16 -24 -16
-29 -4 -37 28 -17 76 -4 104 29 15 18 33 32 40 32 7 0 15 9 18 19 2 11 15 21
28 23 13 2 20 6 14 9 -5 3 -32 0 -60 -6z"/>
<path d="M3457 3586 c-3 -8 -4 -26 -1 -40 5 -29 -53 -99 -101 -121 -47 -22
-118 -45 -140 -45 -20 -1 -20 -1 -1 -15 16 -12 17 -17 6 -30 -7 -8 -18 -15
-25 -15 -21 0 -44 -135 -26 -153 8 -8 11 -6 11 9 0 30 41 64 77 64 25 0 36 -7
53 -36 16 -25 27 -33 39 -29 9 4 30 9 46 12 35 7 105 42 105 52 0 4 7 8 15 8
8 0 12 -4 9 -8 -2 -4 9 -10 26 -14 16 -4 32 -11 35 -16 9 -13 37 -10 59 6 17
13 18 19 6 94 -9 56 -19 88 -34 104 -31 34 -73 99 -81 125 -3 12 -11 22 -16
22 -5 0 -9 6 -9 14 0 13 -20 26 -40 26 -4 0 -10 -6 -13 -14z m33 -124 c0 -15
-2 -15 -10 -2 -13 20 -13 33 0 25 6 -3 10 -14 10 -23z"/>
<path d="M2951 3514 c-19 -13 -55 -43 -81 -66 -78 -71 -113 -98 -161 -125 -40
-23 -79 -69 -79 -93 0 -16 35 -16 60 -1 41 25 113 83 149 121 18 19 57 60 86
90 29 30 55 65 58 78 3 12 4 22 4 21 -1 0 -17 -12 -36 -25z"/>
<path d="M3035 3426 c-11 -8 -16 -19 -12 -30 9 -22 37 -32 47 -16 6 9 25 13
54 11 36 -1 46 1 46 14 0 32 -99 48 -135 21z"/>
<path d="M2767 3078 c-9 -5 -17 -17 -17 -28 0 -20 89 -100 113 -100 8 0 30 -7
50 -15 33 -13 35 -13 40 5 7 26 37 26 70 0 14 -11 29 -20 34 -20 4 0 17 -8 28
-17 15 -12 16 -14 3 -10 -15 5 -16 3 -6 -19 l11 -24 131 5 c72 4 173 7 223 8
113 3 128 14 147 106 13 62 13 63 -11 72 -53 20 -69 20 -95 0 -31 -25 -46 -26
-76 -6 -12 9 -54 20 -94 24 -40 5 -82 12 -92 17 -13 5 -23 2 -32 -11 -20 -27
-90 -30 -190 -6 -55 12 -104 18 -126 15 -20 -4 -50 -2 -66 4 -18 6 -35 6 -45
0z m333 -77 c25 -13 51 -28 58 -34 7 -5 28 -11 47 -13 39 -3 75 -20 75 -34 0
-15 -87 -12 -101 3 -7 7 -28 11 -49 9 -28 -3 -44 2 -67 22 -17 14 -41 26 -54
26 -12 0 -30 7 -40 16 -17 15 -19 15 -35 0 -22 -23 -48 -16 -52 12 -3 23 -2
23 85 19 67 -3 99 -9 133 -26z"/>
<path d="M3630 3001 c0 -5 7 -12 16 -15 22 -9 24 -8 24 9 0 8 -9 15 -20 15
-11 0 -20 -4 -20 -9z"/>
<path d="M3025 2890 c3 -5 14 -10 23 -10 15 0 15 2 2 10 -20 13 -33 13 -25 0z"/>
<path d="M3401 2799 c-24 -5 -73 -22 -110 -39 -57 -27 -75 -31 -146 -29 -105
1 -116 -3 -104 -44 5 -18 9 -44 9 -60 0 -18 11 -37 33 -58 30 -28 36 -30 90
-24 165 15 175 17 180 36 4 13 18 20 55 25 l50 6 11 56 c6 30 11 75 11 99 0
48 0 48 -79 32z"/>
<path d="M2270 2770 c0 -5 5 -10 11 -10 5 0 7 5 4 10 -3 6 -8 10 -11 10 -2 0
-4 -4 -4 -10z"/>
<path d="M2230 2276 c0 -9 5 -16 10 -16 6 0 10 4 10 9 0 6 -4 13 -10 16 -5 3
-10 -1 -10 -9z"/>
<path d="M894 5148 l-19 -23 23 19 c21 18 27 26 19 26 -2 0 -12 -10 -23 -22z"/>
<path d="M5095 5150 c10 -11 20 -20 23 -20 3 0 -3 9 -13 20 -10 11 -20 20 -23
20 -3 0 3 -9 13 -20z"/>
</g>
</svg>
