<?xml version="1.0" standalone="no"?>
<!DOCTYPE svg PUBLIC "-//W3C//DTD SVG 20010904//EN"
 "http://www.w3.org/TR/2001/REC-SVG-20010904/DTD/svg10.dtd">
<svg version="1.0" xmlns="http://www.w3.org/2000/svg"
 width="600.000000pt" height="600.000000pt" viewBox="0 0 600.000000 600.000000"
 preserveAspectRatio="xMidYMid meet">
<metadata>
Created by potrace 1.16, written by Peter Selinger 2001-2019
</metadata>
<g transform="translate(0.000000,600.000000) scale(0.100000,-0.100000)"
fill="#000000" stroke="none">
<path d="M2123 5835 c-29 -13 -53 -28 -53 -34 0 -6 -13 -25 -28 -43 -16 -18
-32 -48 -36 -67 -3 -19 -14 -43 -23 -53 -15 -17 -15 -20 2 -53 18 -32 18 -36
2 -70 -26 -54 -23 -69 13 -62 23 5 28 3 23 -8 -3 -8 -9 -15 -13 -15 -17 0 -40
-32 -40 -56 0 -27 42 -100 62 -106 23 -8 92 12 114 33 22 21 74 39 111 39 20
0 22 -4 17 -30 -4 -18 -2 -30 4 -30 5 0 13 20 16 44 6 36 12 46 41 62 19 10
35 20 35 22 0 11 -46 62 -56 62 -27 0 -33 33 -13 72 10 20 19 39 19 42 0 6
-99 -31 -132 -49 -14 -8 -31 -15 -38 -15 -7 0 -25 -11 -42 -25 -35 -30 -58
-32 -58 -6 0 19 18 31 48 31 8 0 24 7 34 17 21 19 40 30 126 74 41 20 68 42
78 61 14 28 14 30 -5 35 -29 7 -26 20 9 38 35 18 39 41 10 50 -28 9 -13 28 16
21 14 -4 24 -2 24 4 0 5 -19 10 -42 10 -24 1 -70 7 -103 15 -72 18 -59 19
-122 -10z m155 -72 c2 -9 -7 -13 -27 -13 -32 0 -50 15 -29 24 21 8 51 2 56
-11z m-1 -39 c-3 -3 -12 -4 -19 -1 -8 3 -5 6 6 6 11 1 17 -2 13 -5z"/>
<path d="M3475 5822 c-3 -3 -5 -12 -5 -20 0 -10 7 -12 23 -8 14 3 32 -1 43 -9
16 -13 17 -16 4 -25 -15 -10 -28 -9 -64 5 -17 7 -18 4 -14 -36 3 -28 -1 -52
-10 -66 -13 -21 -13 -23 6 -23 27 0 142 -50 142 -61 0 -5 6 -9 14 -9 7 0 30
-13 51 -30 21 -16 44 -30 51 -30 7 0 27 -18 44 -39 18 -22 41 -42 53 -45 17
-4 19 -8 9 -18 -9 -9 -18 -7 -42 10 -16 12 -33 22 -38 22 -5 0 -25 14 -43 30
-19 17 -59 42 -89 55 -30 14 -68 32 -83 40 -33 18 -63 7 -76 -28 -9 -23 12
-51 53 -72 11 -6 31 -26 44 -45 12 -19 42 -56 67 -82 39 -43 43 -51 38 -84
l-6 -36 34 7 c51 11 84 31 104 62 10 15 29 40 43 55 14 15 22 33 19 42 -4 9 5
28 18 45 14 16 25 32 25 35 0 3 -20 32 -45 65 -25 32 -45 64 -45 70 0 21 -39
89 -62 108 -13 10 -28 28 -34 38 -6 11 -32 33 -58 50 -38 23 -61 29 -107 31
-32 0 -61 -1 -64 -4z"/>
<path d="M3188 5813 c7 -3 16 -2 19 1 4 3 -2 6 -13 5 -11 0 -14 -3 -6 -6z"/>
<path d="M1930 5599 c0 -5 5 -7 10 -4 6 3 10 8 10 11 0 2 -4 4 -10 4 -5 0 -10
-5 -10 -11z"/>
<path d="M3095 5520 c3 -5 15 -10 26 -10 10 0 19 5 19 10 0 6 -12 10 -26 10
-14 0 -23 -4 -19 -10z"/>
<path d="M2835 5510 c-16 -7 -13 -9 16 -9 19 -1 40 -6 47 -13 9 -9 12 -9 12 0
0 11 -32 33 -47 31 -4 0 -17 -4 -28 -9z"/>
<path d="M2672 5488 c2 -6 12 -16 21 -22 13 -8 20 -7 27 4 12 20 3 30 -26 30
-15 0 -24 -5 -22 -12z"/>
<path d="M2574 5475 c-3 -8 -3 -19 1 -25 8 -13 45 -13 45 0 0 6 -7 10 -16 10
-10 0 -14 6 -10 15 3 8 1 15 -5 15 -5 0 -12 -7 -15 -15z"/>
<path d="M2454 5448 c-4 -6 -1 -13 5 -17 6 -4 9 -15 5 -24 -5 -13 0 -17 21
-17 21 0 26 4 21 16 -3 9 -6 21 -6 29 0 16 -38 27 -46 13z"/>
<path d="M3142 5429 c-13 -5 -21 -13 -18 -17 11 -18 -21 -44 -56 -47 -20 -2
-45 -8 -56 -14 -35 -19 -61 -13 -68 14 -8 34 -30 32 -49 -5 -20 -40 -45 -51
-86 -41 -144 36 -144 36 -195 7 -36 -20 -55 -25 -81 -20 l-34 6 6 -35 c6 -29
3 -37 -16 -51 -13 -9 -32 -16 -42 -16 -14 0 -18 -5 -14 -20 7 -26 -21 -42 -61
-34 -20 4 -34 1 -45 -11 -23 -22 -21 -35 3 -35 20 0 19 -2 -7 -36 -15 -19 -41
-42 -56 -50 -19 -10 -27 -21 -23 -30 3 -9 1 -25 -5 -36 -10 -18 -18 -20 -70
-15 -45 4 -59 2 -59 -8 0 -29 13 -45 37 -45 41 0 25 -34 -20 -41 -50 -8 -65
-23 -49 -49 6 -11 12 -25 12 -32 0 -15 -64 -83 -154 -163 -27 -25 -27 -27 -10
-40 16 -12 17 -16 5 -39 -8 -14 -22 -28 -32 -31 -14 -5 -17 -13 -13 -34 8 -39
-16 -57 -57 -42 -37 13 -72 -1 -67 -27 2 -12 15 -18 41 -20 20 -2 37 -7 37
-11 0 -5 -21 -25 -46 -44 l-46 -36 26 -12 c33 -16 33 -22 -6 -54 -29 -25 -31
-28 -15 -40 21 -15 22 -48 1 -66 -14 -11 -18 -10 -30 5 -15 21 -24 17 -94 -43
l-35 -30 31 -1 c18 0 38 8 49 20 10 11 29 20 42 20 34 0 30 -35 -6 -50 -16 -6
-41 -25 -55 -41 -14 -16 -31 -29 -36 -29 -6 0 -10 -7 -10 -15 0 -9 9 -15 25
-15 30 0 32 -11 7 -33 -24 -22 -40 -21 -80 3 -35 22 -67 26 -77 10 -10 -17 56
-68 97 -75 52 -9 48 -25 -6 -25 -23 0 -57 -5 -74 -11 -27 -9 -30 -14 -22 -29
6 -12 24 -20 47 -22 l37 -3 -45 -30 c-24 -16 -46 -30 -48 -32 -2 -1 2 -9 9
-18 10 -12 9 -16 -6 -20 -11 -4 -30 -13 -44 -21 -14 -7 -37 -19 -52 -26 -33
-14 -37 -38 -8 -45 23 -6 25 -16 6 -32 -10 -9 -25 -7 -61 9 -25 11 -55 20 -66
20 -17 0 -18 -3 -9 -20 6 -11 24 -27 41 -36 35 -18 31 -26 -24 -44 -26 -8 -37
-17 -37 -31 0 -13 -7 -19 -21 -19 -27 0 -79 -31 -79 -46 0 -7 9 -16 20 -19 25
-8 26 -33 2 -42 -9 -3 -25 -14 -35 -25 -12 -12 -32 -18 -61 -18 -35 0 -45 -4
-49 -20 -4 -16 -11 -18 -41 -13 -29 4 -36 2 -36 -11 0 -9 -8 -16 -20 -16 -10
0 -24 -9 -30 -21 -9 -17 -8 -25 7 -41 18 -20 17 -20 -2 -17 -11 2 -30 -6 -41
-17 -13 -13 -41 -24 -71 -28 -31 -4 -89 -26 -149 -57 -132 -68 -215 -97 -337
-115 -56 -8 -141 -24 -189 -36 l-88 -20 0 -95 c0 -75 3 -93 13 -85 11 9 131
28 149 24 4 -1 5 4 2 12 -5 14 25 23 92 29 17 1 39 10 48 20 10 9 22 14 27 11
6 -3 13 3 16 15 5 22 12 24 49 22 12 -1 30 8 40 21 17 20 28 23 93 23 65 0 78
3 98 23 13 13 23 21 23 18 0 -3 16 2 35 10 39 16 57 12 48 -11 -4 -12 3 -15
31 -15 21 0 36 -5 36 -12 0 -9 3 -8 13 1 9 11 9 14 0 18 -25 9 -13 21 28 27
27 4 46 2 60 -7 15 -11 28 -12 67 -2 63 15 160 6 196 -20 20 -15 28 -30 29
-55 2 -31 -1 -35 -25 -38 -15 -2 -30 -11 -33 -21 -5 -17 -51 -42 -101 -56 -12
-3 -30 -21 -40 -40 -14 -27 -25 -35 -46 -35 -21 0 -44 -15 -86 -56 -31 -30
-73 -63 -92 -72 -19 -9 -40 -23 -47 -32 -7 -8 -13 -11 -13 -7 0 4 -9 3 -21 -3
-16 -9 -19 -18 -14 -37 4 -16 2 -22 -5 -18 -5 3 -10 3 -10 -2 0 -12 -49 -33
-64 -27 -14 5 -42 -23 -33 -32 10 -10 -20 -34 -41 -34 -11 0 -38 -17 -60 -39
-21 -21 -55 -44 -75 -52 -19 -7 -38 -21 -40 -31 -3 -10 -14 -18 -26 -18 -11 0
-28 -11 -36 -24 -9 -13 -28 -26 -43 -29 -15 -3 -45 -22 -66 -42 -22 -19 -43
-35 -47 -35 -4 0 -9 -8 -11 -18 -6 -23 -69 -55 -82 -41 -35 34 -36 22 -36
-560 l0 -569 31 29 c51 47 167 53 226 11 59 -42 68 -77 68 -272 0 -158 -2
-179 -21 -215 -12 -22 -34 -48 -51 -57 -67 -40 -181 -31 -229 17 l-24 24 0
-60 0 -60 44 -18 43 -19 7 -111 8 -111 324 0 c314 0 324 1 324 19 0 11 5 23
10 26 17 11 -9 35 -36 35 -28 0 -30 8 -7 25 15 11 15 13 -6 20 -21 6 -21 7 -4
20 15 11 16 17 6 33 -6 11 -9 30 -6 42 4 16 0 27 -12 36 -17 13 -17 14 0 41
12 18 14 28 7 31 -7 2 -12 14 -12 26 0 12 -13 35 -29 50 l-29 28 -5 -28 c-2
-16 -5 40 -6 124 -1 136 1 152 16 152 9 0 24 7 33 15 15 14 18 12 32 -24 15
-37 15 -40 -3 -44 -17 -5 -19 -15 -19 -101 0 -119 23 -188 80 -240 66 -60 177
-81 273 -52 26 8 47 10 47 5 0 -5 154 -9 364 -9 199 0 391 -3 425 -6 61 -7 62
-7 56 -33 -16 -58 -21 -56 119 -56 l130 0 32 80 c31 74 33 88 34 198 l0 117
-110 0 -110 0 0 80 c0 73 2 80 20 80 19 0 20 7 20 141 0 132 -1 141 -20 146
-17 5 -20 14 -20 64 l0 59 -110 0 c-104 0 -110 1 -110 20 0 20 -5 20 -157 18
l-158 -3 -3 -73 c-2 -62 -5 -73 -18 -68 -9 3 -27 6 -40 6 -22 0 -24 4 -24 50
l0 50 -160 0 -160 0 0 -59 0 -60 -32 10 c-52 15 -152 13 -207 -6 -33 -10 -66
-32 -94 -61 l-44 -44 -26 21 c-25 19 -27 26 -27 93 l0 72 -52 19 c-100 36
-201 21 -260 -38 -13 -12 -22 -21 -21 -19 0 2 -2 16 -7 31 -4 15 -3 35 2 44 5
10 6 23 1 30 -13 22 -12 41 4 59 10 11 12 18 4 18 -8 0 -9 13 -5 40 6 38 5 40
-20 40 -17 0 -26 5 -26 15 0 20 30 31 40 15 5 -8 9 8 11 40 4 55 2 59 -32 65
-30 6 -34 12 -19 30 9 10 9 15 1 15 -7 0 -9 9 -7 22 3 13 7 34 8 48 2 14 9 31
16 38 6 7 12 20 12 27 0 8 7 18 15 22 10 6 17 29 19 66 5 65 10 77 34 77 21 0
56 55 46 71 -3 6 3 17 15 25 13 10 21 26 21 44 0 33 16 44 78 55 38 6 47 14
43 38 -1 4 7 11 16 14 10 4 23 13 29 22 6 8 18 11 27 8 9 -3 23 0 31 8 8 8 20
15 26 15 6 0 16 14 22 31 6 16 13 28 15 25 3 -3 18 1 33 9 28 15 45 8 50 -20
3 -20 10 -17 20 10 7 20 7 31 -1 41 -9 11 -6 14 19 14 16 0 35 7 42 15 7 8 18
15 26 15 7 0 14 14 16 32 2 27 9 34 36 42 17 5 32 15 32 22 0 9 12 14 31 14
28 0 31 3 27 25 -4 18 -1 25 11 25 9 0 25 12 35 27 11 14 15 23 9 20 -6 -4
-16 -1 -22 7 -9 11 -6 15 14 20 14 4 25 14 25 22 0 13 -7 15 -30 11 -23 -5
-32 -2 -40 13 -14 26 -13 40 3 40 8 0 19 10 26 23 12 23 65 35 76 17 10 -17
23 -11 18 8 -3 12 4 22 21 30 29 13 35 32 10 32 -9 0 -14 7 -12 18 2 11 11 16
25 14 13 -2 27 4 34 16 8 12 20 17 34 14 16 -3 25 2 29 15 5 15 13 18 34 15
18 -2 33 2 41 12 8 9 21 16 30 16 9 0 36 7 60 15 24 9 51 13 61 10 19 -6 36
20 19 31 -6 4 -6 11 2 20 14 17 67 14 101 -7 60 -38 75 -40 107 -13 20 17 32
21 37 13 3 -6 0 -15 -7 -20 -11 -7 -11 -9 -1 -9 21 0 25 30 7 50 -10 11 -15
28 -12 40 3 11 1 20 -4 20 -5 0 -9 4 -9 10 0 5 15 1 33 -10 17 -11 44 -25 60
-31 15 -6 27 -14 27 -19 0 -4 21 -15 48 -25 26 -10 76 -31 111 -48 36 -16 85
-32 110 -35 43 -4 45 -3 26 12 -11 8 -24 16 -28 16 -9 0 -135 57 -157 70 -8 5
-34 18 -57 29 -50 23 -83 71 -48 71 17 0 115 -52 160 -84 16 -11 61 -37 100
-57 47 -24 70 -41 69 -52 -1 -10 5 -17 14 -17 9 0 71 -27 137 -60 136 -68 200
-84 386 -101 136 -11 265 -5 318 17 44 18 109 18 127 -1 21 -21 34 -19 34 5 0
23 13 26 28 7 8 -10 5 -16 -11 -27 -12 -7 -30 -14 -40 -15 -11 -1 -22 -6 -25
-12 -4 -6 -27 -18 -52 -26 -135 -46 -129 -59 20 -47 93 7 109 6 143 -11 22
-11 37 -14 37 -8 0 16 62 3 76 -16 6 -8 19 -15 29 -15 14 0 15 -3 6 -14 -11
-13 -58 -31 -73 -28 -5 1 -8 -5 -8 -14 0 -9 6 -14 13 -11 19 7 57 -11 57 -27
0 -7 9 -16 20 -19 13 -3 18 -11 14 -20 -6 -16 39 -33 57 -21 5 3 21 -2 35 -11
14 -9 29 -14 32 -10 4 3 0 10 -8 15 -8 6 -13 10 -10 11 35 7 62 5 98 -7 23 -8
56 -14 72 -14 25 0 30 -4 30 -24 0 -14 5 -28 11 -31 5 -4 14 -18 19 -30 8 -21
14 -23 44 -18 29 5 35 2 41 -18 9 -29 25 -44 53 -53 13 -4 22 -16 22 -27 0
-19 6 -20 100 -16 88 4 100 2 100 -12 0 -15 32 -51 45 -51 2 0 2 14 -1 30 -4
19 -2 30 5 30 6 0 11 -8 11 -18 0 -18 18 -42 31 -42 4 0 9 9 12 20 6 25 57 29
57 4 0 -9 5 -12 12 -8 7 5 25 7 40 6 20 -2 26 1 22 12 -9 22 25 34 86 30 41
-3 51 -1 40 7 -11 8 -7 9 20 5 19 -3 42 -15 51 -25 8 -10 29 -22 45 -25 25 -6
33 -2 52 24 13 16 28 30 34 30 7 0 4 -6 -6 -13 -23 -17 -9 -23 49 -22 32 0 42
5 52 25 11 22 18 21 14 -2 0 -5 5 -8 12 -8 7 0 26 -13 42 -30 15 -16 32 -27
37 -24 4 3 8 0 8 -5 0 -6 14 -11 30 -11 25 0 30 4 30 25 0 16 6 25 15 25 8 0
15 -7 15 -15 0 -26 21 -16 33 15 13 33 27 40 27 12 0 -22 37 -56 43 -39 2 7
10 1 17 -12 7 -14 21 -34 32 -45 10 -11 23 -37 29 -58 12 -45 27 -49 35 -9 5
23 10 28 28 23 11 -3 25 -12 29 -19 7 -12 12 -12 28 3 10 9 19 13 19 7 0 -13
59 -29 88 -25 16 2 22 8 18 18 -4 12 -2 12 14 4 23 -12 25 -21 8 -38 -9 -9 -8
-12 8 -12 18 -1 18 -1 1 -14 -16 -12 -16 -14 -1 -20 9 -3 22 -2 28 3 7 6 26 8
44 6 20 -3 30 0 26 6 -7 12 15 41 27 34 4 -3 6 -12 2 -20 -3 -10 1 -15 13 -15
18 -1 18 -2 -1 -16 -11 -9 -32 -20 -47 -26 -15 -5 -30 -18 -33 -29 -4 -10 -11
-19 -16 -19 -5 0 -9 -4 -9 -9 0 -5 13 -4 29 2 25 9 33 8 51 -8 12 -11 19 -26
17 -35 -2 -9 2 -21 10 -28 7 -8 13 -8 13 -2 0 14 57 13 63 -2 3 -9 9 -7 19 6
19 24 48 15 48 -14 0 -11 7 -23 15 -26 18 -7 20 -34 3 -34 -9 0 -8 -3 2 -9 8
-6 18 -7 22 -5 4 3 5 -1 2 -9 -8 -22 14 -31 64 -28 27 2 48 -2 52 -10 5 -6 15
-9 24 -6 14 6 16 35 16 239 l0 233 -33 35 c-106 116 -303 268 -432 332 -130
66 -541 210 -650 228 -94 16 -110 25 -124 70 -6 21 -18 43 -26 50 -8 7 -15 20
-15 29 0 9 -20 56 -45 106 -25 49 -45 99 -45 112 0 13 -6 23 -14 23 -11 0 -13
9 -9 35 7 43 -15 125 -33 125 -13 0 -19 25 -15 58 3 18 -39 73 -50 67 -5 -4
-9 -15 -9 -25 0 -13 -9 -22 -25 -26 -20 -5 -25 -12 -25 -39 0 -18 -2 -39 -5
-47 -3 -7 1 -22 10 -33 15 -20 15 -20 30 -1 11 15 17 16 28 7 8 -6 22 -9 31
-5 11 4 16 1 16 -13 0 -20 -63 -58 -79 -48 -10 6 -68 -21 -94 -44 -15 -12 -22
-13 -37 -3 -35 22 -50 15 -50 -23 0 -40 0 -39 -35 -23 -22 10 -25 17 -21 37
11 46 9 106 -4 131 l-12 23 -19 -24 c-10 -13 -19 -30 -19 -36 0 -18 -15 -16
-31 3 -12 14 -10 19 14 38 15 12 27 30 27 40 0 10 7 17 18 15 46 -4 62 2 77
32 l16 31 -63 -4 c-35 -2 -72 -8 -83 -13 -16 -6 -18 -6 -7 6 6 7 12 21 12 31
0 10 6 21 14 24 24 9 15 53 -16 79 -24 20 -29 33 -30 67 0 24 -4 48 -10 55 -5
6 -8 45 -6 86 4 77 -3 98 -35 110 -24 9 -17 43 8 40 27 -2 52 13 58 37 7 26
-8 34 -55 31 l-37 -2 1 43 c1 24 6 49 11 56 7 8 4 12 -10 12 -18 0 -20 7 -21
58 -1 101 -5 116 -34 130 -16 7 -28 18 -28 24 0 7 -16 8 -45 4 -47 -7 -50 -5
-45 37 1 10 -6 27 -15 37 -21 24 -15 113 9 118 21 4 21 20 -1 18 -10 0 -19 10
-25 29 -7 26 -4 33 17 50 14 12 25 30 25 42 0 12 5 25 10 28 6 3 10 10 10 16
0 17 -20 9 -42 -16 -13 -16 -32 -25 -50 -25 -31 0 -36 16 -13 46 19 25 19 31
-5 37 -28 7 -35 33 -19 64 22 41 3 101 -28 89 -8 -3 -28 1 -44 10 -41 21 -37
58 6 62 17 2 36 8 43 14 13 11 16 46 6 72 -7 19 -24 21 -24 3 0 -7 -9 -18 -20
-25 -11 -6 -17 -18 -14 -26 6 -17 -25 -29 -50 -20 -17 7 -18 9 -20 68 -1 36
-3 39 -30 40 -30 2 -66 36 -66 65 -1 9 -17 26 -36 38 l-35 23 6 -23 c4 -12 24
-48 46 -79 21 -31 39 -61 39 -66 0 -4 26 -36 59 -71 73 -78 72 -96 -4 -105
-30 -3 -64 -2 -77 3 -13 5 -43 15 -68 22 -25 6 -56 19 -70 27 -14 9 -51 17
-82 19 -32 1 -61 3 -65 4 -5 1 -23 1 -41 0 -27 -1 -35 -7 -49 -41 -14 -32 -27
-44 -75 -65 -64 -29 -75 -40 -58 -59 7 -9 8 -32 5 -60 -5 -32 -3 -46 5 -46 7
0 9 -8 5 -20 -5 -14 -2 -20 9 -20 9 0 16 8 16 18 0 40 69 82 134 82 50 0 51
-1 35 -31 -10 -19 -9 -19 10 -9 15 8 27 8 41 0 11 -6 25 -8 31 -5 14 9 59 -3
59 -16 0 -7 -14 -10 -35 -7 -22 3 -35 0 -35 -8 0 -17 20 -30 69 -45 39 -12 45
-11 57 5 7 11 18 15 25 10 9 -5 7 -11 -6 -21 -17 -12 -14 -13 27 -13 28 0 53
-6 62 -15 8 -8 32 -15 54 -15 32 0 45 6 65 30 33 38 57 39 57 3 0 -16 3 -51 6
-80 6 -45 4 -54 -17 -75 -24 -24 -30 -53 -17 -74 12 -18 -3 -82 -23 -100 -11
-9 -19 -27 -19 -39 0 -13 -9 -29 -21 -36 -11 -8 -22 -28 -24 -44 -2 -17 -15
-82 -28 -145 -14 -63 -23 -118 -21 -122 2 -3 -11 -15 -28 -25 -25 -15 -47 -18
-91 -15 -54 4 -59 6 -86 45 -31 44 -73 90 -134 145 -25 22 -47 32 -68 32 l-32
0 27 21 c14 11 26 31 26 43 0 25 3 23 -131 43 -27 4 -44 -1 -74 -21 -33 -23
-45 -26 -84 -20 -25 4 -74 22 -109 40 -65 35 -88 39 -155 28 -35 -6 -38 -9
-35 -37 3 -28 0 -31 -36 -39 -25 -5 -42 -5 -46 2 -3 5 -19 -10 -34 -35 -16
-24 -37 -47 -48 -51 -10 -3 -35 -23 -54 -44 -31 -34 -41 -38 -73 -35 -51 5
-92 15 -119 28 -19 9 -25 8 -32 -3 -16 -24 -11 -43 20 -90 16 -25 30 -51 30
-57 0 -7 9 -13 21 -13 20 0 33 -8 120 -77 40 -32 72 -42 83 -24 3 5 23 11 43
14 65 8 213 50 207 58 -2 5 -20 11 -39 15 -19 3 -35 10 -35 14 0 4 -10 10 -22
14 -74 19 102 57 179 38 26 -6 74 -10 105 -8 39 2 61 -1 69 -10 6 -7 25 -16
42 -20 18 -3 37 -10 42 -14 6 -4 22 -10 38 -14 18 -4 27 -13 27 -26 0 -11 -4
-20 -10 -20 -21 0 -8 -26 26 -52 33 -25 34 -27 14 -33 -29 -9 -20 -28 20 -41
41 -14 49 -29 18 -37 -22 -6 -22 -7 -4 -20 18 -13 17 -14 -12 -20 -19 -4 -42
-21 -63 -47 -36 -45 -46 -48 -65 -22 -12 16 -13 16 -27 -2 -12 -16 -15 -17
-29 -3 -12 12 -18 13 -28 4 -10 -10 -12 -8 -7 5 8 23 -21 40 -44 25 -9 -5 -25
-7 -35 -3 -16 6 -16 9 -4 16 18 11 18 12 -42 16 -43 3 -47 1 -53 -24 -5 -19
-2 -30 11 -39 26 -19 83 -17 91 3 5 15 8 15 17 2 19 -25 104 -67 132 -65 22 2
29 -3 34 -23 6 -22 11 -25 48 -22 22 2 49 -1 59 -6 21 -12 68 5 98 34 10 11
22 20 27 20 4 1 12 2 17 3 5 0 16 14 24 30 13 25 13 31 1 35 -25 10 -15 34 35
85 44 45 65 57 94 52 5 -1 20 7 35 17 15 11 37 21 48 24 40 10 46 -3 38 -84
-6 -74 -8 -77 -57 -127 -27 -28 -58 -52 -68 -52 -11 -1 -25 -2 -31 -3 -17 -1
-40 -34 -35 -49 3 -11 -39 -68 -137 -181 -103 -120 -167 -174 -214 -182 -15
-3 -45 -11 -66 -20 -35 -14 -41 -14 -55 0 -14 15 -14 16 3 16 9 0 26 5 37 11
16 8 18 13 8 25 -16 20 -42 17 -57 -6 -14 -22 -59 -26 -125 -11 -32 8 -39 6
-51 -11 -13 -18 -15 -19 -52 -2 -22 9 -51 16 -67 15 -55 -5 -207 91 -207 129
0 10 -6 23 -14 29 -8 7 -17 30 -21 51 -5 28 -16 47 -38 65 -18 14 -37 30 -44
35 -42 34 -28 -19 25 -96 27 -38 47 -75 44 -82 -2 -7 2 -10 12 -6 11 4 16 0
16 -14 0 -32 -21 -42 -65 -32 -43 10 -65 32 -65 64 0 20 -20 61 -20 42 0 -5
-20 12 -45 38 -25 27 -45 52 -45 56 0 5 -9 11 -19 15 -11 3 -21 16 -23 28 -2
14 -11 23 -25 25 -13 2 -20 8 -17 17 3 7 -4 20 -16 28 -14 10 -18 17 -10 22 8
5 4 12 -10 22 -17 12 -21 24 -18 55 2 29 -2 44 -15 53 -21 15 -22 31 -3 38 13
5 12 12 -4 44 -20 42 -18 53 11 53 12 0 23 -10 29 -25 5 -14 16 -25 24 -25 10
0 13 6 10 15 -4 8 -10 15 -15 15 -5 0 -9 9 -9 21 0 18 -4 20 -26 15 -25 -7
-54 7 -54 25 0 4 10 11 23 15 39 12 57 35 57 74 0 29 -6 41 -26 55 -30 20 -42
14 -19 -9 10 -10 15 -28 13 -48 -2 -28 -8 -34 -30 -36 -24 -3 -28 0 -28 22 0
19 5 26 20 26 11 0 20 5 20 10 0 6 -7 10 -16 10 -12 0 -14 10 -12 50 3 53 11
60 38 35 16 -14 18 -14 24 0 6 17 -6 24 -48 29 -31 3 -31 4 -21 35 5 17 0 38
-16 72 -13 27 -27 49 -32 49 -4 0 -6 -3 -5 -7 1 -5 -2 -23 -6 -41 -12 -49 -27
-25 -26 39 2 87 1 92 -5 125 -7 38 9 84 28 84 9 0 17 15 21 39 4 27 12 40 26
44 23 6 27 25 7 33 -11 4 -11 18 3 82 9 42 21 88 27 102 6 14 14 40 18 59 9
43 37 94 113 209 20 28 39 52 44 52 4 0 8 7 8 15 0 17 56 115 74 130 7 6 30
35 53 65 22 30 64 75 93 100 29 25 76 65 104 90 87 78 156 122 226 143 30 10
107 22 170 27 63 6 155 17 203 26 85 16 111 15 151 -1 15 -7 17 -5 12 11 -7
25 8 48 27 41 9 -3 27 8 46 29 39 42 77 46 91 8 9 -23 12 -24 25 -10 8 8 25
18 36 21 15 5 18 10 10 18 -13 13 -266 18 -299 6z m63 -49 c3 -5 1 -10 -4 -10
-6 0 -11 5 -11 10 0 6 2 10 4 10 3 0 8 -4 11 -10z m203 -860 c9 -5 34 -16 54
-24 35 -14 71 -56 48 -56 -10 0 -130 60 -160 80 -12 8 -9 10 13 10 15 0 35 -4
45 -10z m566 -508 c8 -13 -33 -74 -45 -67 -16 11 10 75 32 75 4 0 10 -4 13 -8z
m-2264 -36 c0 -3 -4 -8 -10 -11 -5 -3 -10 -1 -10 4 0 6 5 11 10 11 6 0 10 -2
10 -4z m2230 -71 c0 -15 -38 -40 -47 -32 -2 3 3 17 12 31 17 26 35 27 35 1z
m-2070 -155 c0 -5 -7 -10 -15 -10 -8 0 -15 5 -15 10 0 6 7 10 15 10 8 0 15 -4
15 -10z m2066 -19 c-10 -16 -36 -13 -36 3 0 17 21 27 34 16 4 -5 5 -13 2 -19z
m-2038 -25 c-7 -8 -15 -12 -17 -11 -5 6 10 25 20 25 5 0 4 -6 -3 -14z m2169
-63 c2 -6 -5 -13 -17 -16 -12 -3 -20 0 -20 7 0 26 29 33 37 9z m-107 -73 c12
-8 10 -14 -17 -36 -19 -14 -33 -35 -33 -47 0 -16 -3 -18 -12 -9 -8 8 -5 22 13
57 26 49 27 49 49 35z m78 -7 c-2 -12 -14 -19 -33 -21 l-30 -3 25 20 c31 25
42 26 38 4z m37 -69 c14 -22 15 -28 4 -35 -8 -5 -20 -9 -26 -9 -8 0 -13 -14
-13 -34 0 -43 -19 -57 -38 -28 -17 25 -32 29 -32 7 0 -7 -8 -18 -17 -24 -17
-9 -17 -12 1 -45 10 -19 15 -39 11 -46 -9 -15 23 -50 46 -50 10 0 24 9 32 20
16 23 27 16 27 -17 0 -16 -6 -23 -20 -23 -22 0 -61 -21 -96 -52 -18 -16 -22
-17 -27 -4 -3 8 3 22 14 32 12 11 16 21 10 28 -5 6 -11 22 -13 36 -2 21 -8 25
-38 25 -26 0 -36 5 -38 18 -3 15 0 18 18 12 29 -9 40 8 40 67 0 37 4 48 19 53
10 3 23 5 27 3 5 -1 26 6 48 15 35 16 38 20 32 47 -7 37 6 39 29 4z m-2825
-94 c0 -5 -4 -10 -10 -10 -5 0 -10 5 -10 10 0 6 5 10 10 10 6 0 10 -4 10 -10z
m2597 -22 c-3 -8 -6 -5 -6 6 -1 11 2 17 5 13 3 -3 4 -12 1 -19z m-2537 -18 c0
-5 -9 -10 -20 -10 -11 0 -20 5 -20 10 0 6 9 10 20 10 11 0 20 -4 20 -10z
m2770 -26 c11 -13 10 -19 -9 -37 -22 -21 -23 -21 -36 -3 -28 37 16 76 45 40z
m-2760 -34 c0 -5 -11 -10 -25 -10 -14 0 -25 5 -25 10 0 6 11 10 25 10 14 0 25
-4 25 -10z m1860 -24 c0 -6 -13 -11 -30 -11 -35 0 -34 -1 -15 19 17 16 45 11
45 -8z m-1982 -52 c-9 -9 -21 -13 -27 -9 -16 10 -3 25 22 25 20 0 20 -1 5 -16z
m2371 -56 c-2 -62 -57 -150 -108 -173 -51 -23 -62 -15 -49 35 7 27 24 51 52
75 22 20 52 47 65 60 30 31 41 32 40 3z m551 2 c0 -5 -7 -10 -15 -10 -8 0 -15
5 -15 10 0 6 7 10 15 10 8 0 15 -4 15 -10z m-3190 -28 c-25 -4 -35 2 -26 17 5
7 13 7 27 -2 20 -12 20 -12 -1 -15z m151 13 c0 -5 -9 -11 -21 -13 -20 -3 -27
8 -13 22 10 9 34 3 34 -9z m2989 -49 c0 -29 -12 -39 -34 -30 -20 8 -20 18 0
38 22 23 34 20 34 -8z m-3050 10 c0 -2 -7 -6 -15 -10 -8 -3 -15 -1 -15 4 0 6
7 10 15 10 8 0 15 -2 15 -4z m2990 -30 c0 -20 -19 -31 -32 -18 -6 6 -7 15 -4
21 10 16 36 13 36 -3z m110 -50 c0 -2 -6 -16 -14 -30 -13 -26 -14 -26 -19 -5
-3 13 -4 26 -1 31 5 8 34 12 34 4z m115 -56 c3 -5 1 -10 -4 -10 -6 0 -11 5
-11 10 0 6 2 10 4 10 3 0 8 -4 11 -10z m292 -1 c16 -16 3 -46 -40 -92 -34 -38
-36 -38 -47 -18 -9 17 -15 19 -30 11 -11 -6 -20 -19 -20 -29 0 -22 -29 -36
-44 -21 -7 7 -7 16 2 30 6 11 12 31 12 45 0 21 5 25 28 25 15 0 44 3 65 6 31
6 37 11 37 30 0 25 18 32 37 13z m-1110 -15 c-3 -3 -12 -4 -19 -1 -8 3 -5 6 6
6 11 1 17 -2 13 -5z m703 -20 c0 -8 -7 -14 -15 -14 -15 0 -21 21 -9 33 10 9
24 -2 24 -19z m45 -54 c3 -5 -1 -20 -9 -32 -16 -22 -16 -22 -16 10 0 31 12 42
25 22z m145 -21 c0 -20 -15 -26 -25 -9 -9 15 3 43 15 35 5 -3 10 -15 10 -26z
m-1945 -39 c-3 -5 -14 -6 -25 -3 -11 3 -18 9 -15 13 3 5 14 6 25 3 11 -3 18
-9 15 -13z m2200 -5 c0 -13 -7 -20 -20 -20 -30 0 -65 -23 -65 -44 0 -26 -10
-32 -32 -20 -15 8 -17 14 -9 22 6 6 11 21 11 33 0 26 10 34 54 45 45 11 61 6
61 -16z m-3035 -15 c0 -5 -7 -10 -16 -10 -8 0 -12 5 -9 10 3 6 10 10 16 10 5
0 9 -4 9 -10z m2868 -32 c19 -19 15 -25 -18 -30 -37 -6 -49 8 -24 27 23 18 27
18 42 3z m192 -27 c0 -16 3 -36 6 -44 3 -10 -3 -20 -15 -27 -31 -16 -42 -4
-26 27 8 15 12 38 9 50 -5 17 -2 23 10 23 11 0 16 -9 16 -29z m67 -53 c-3 -8
-6 -5 -6 6 -1 11 2 17 5 13 3 -3 4 -12 1 -19z m-277 -7 c0 -6 -4 -13 -10 -16
-5 -3 -10 1 -10 9 0 9 5 16 10 16 6 0 10 -4 10 -9z m-977 -208 c-7 -2 -21 -2
-30 0 -10 3 -4 5 12 5 17 0 24 -2 18 -5z m680 -391 c15 -2 27 -8 27 -14 0 -6
-15 -8 -35 -6 -22 2 -36 -1 -39 -9 -3 -7 -10 -13 -16 -13 -16 0 -12 57 5 74 8
8 16 21 16 28 1 7 4 -3 8 -22 5 -29 11 -36 34 -38z m397 2 c0 -8 -4 -12 -10
-9 -5 3 -10 10 -10 16 0 5 5 9 10 9 6 0 10 -7 10 -16z m-4150 -284 c0 -5 -7
-7 -15 -4 -8 4 -15 8 -15 10 0 2 7 4 15 4 8 0 15 -4 15 -10z m5420 -140 c0 -5
-4 -10 -10 -10 -5 0 -10 5 -10 10 0 6 5 10 10 10 6 0 10 -4 10 -10z m-5500
-440 c0 -5 -4 -10 -10 -10 -5 0 -10 5 -10 10 0 6 5 10 10 10 6 0 10 -4 10 -10z
m30 0 c0 -5 -2 -10 -4 -10 -3 0 -8 5 -11 10 -3 6 -1 10 4 10 6 0 11 -4 11 -10z
m1430 -230 l0 -50 -70 0 -70 0 0 43 c0 24 3 47 7 50 3 4 35 7 70 7 l63 0 0
-50z m-1152 -34 c2 -28 -1 -42 -12 -48 -20 -11 -21 -38 -1 -38 12 0 15 -13 15
-55 0 -42 -3 -55 -15 -55 -13 0 -15 -32 -15 -225 l0 -225 -70 0 -70 0 0 225
c0 143 -4 225 -10 225 -5 0 -10 25 -10 55 0 30 5 55 10 55 6 0 10 18 10 40 0
30 7 47 25 66 22 22 32 25 83 22 l57 -3 3 -39z m752 -31 l0 -74 25 24 c18 19
35 25 68 25 55 0 93 -27 107 -78 5 -21 10 -143 10 -274 l0 -238 -70 0 -70 0 0
229 c0 195 -2 232 -16 245 -8 9 -17 16 -19 16 -2 0 -11 -7 -19 -16 -14 -13
-16 -50 -16 -245 l0 -229 -70 0 -70 0 0 345 0 345 70 0 70 0 0 -75z m620 15
c0 -53 2 -60 20 -60 18 0 20 -7 20 -55 0 -48 -2 -55 -20 -55 -19 0 -20 -7 -20
-180 0 -173 1 -180 20 -180 17 0 20 -7 20 -49 l0 -50 -45 -7 c-50 -7 -81 -2
-110 20 -19 13 -20 28 -23 230 -3 206 -4 216 -23 216 -16 0 -19 7 -19 55 0 48
2 55 20 55 18 0 20 7 20 60 l0 60 70 0 70 0 0 -60z m-879 -62 c41 -23 69 -75
69 -128 l0 -30 -70 0 -69 0 -7 36 c-5 28 -10 35 -28 32 -13 -2 -22 -11 -24
-26 -4 -23 2 -29 107 -114 66 -53 94 -102 95 -172 1 -108 -64 -171 -179 -171
-108 0 -163 55 -168 166 l-2 54 70 0 70 0 5 -50 c4 -42 8 -50 27 -53 17 -3 24
3 29 23 10 42 -13 78 -91 139 -82 64 -105 102 -105 171 0 93 60 144 169 145
47 0 73 -6 102 -22z m659 -273 l0 -295 -70 0 -70 0 0 295 0 295 70 0 70 0 0
-295z m-1036 220 c-4 -8 -10 -15 -15 -15 -5 0 -9 7 -9 15 0 8 7 15 15 15 9 0
12 -6 9 -15z m1476 -454 c0 -37 -7 -77 -20 -105 -18 -44 -21 -46 -60 -46 -35
0 -41 3 -36 18 20 67 19 72 -8 72 -25 0 -26 3 -26 53 0 30 3 57 7 60 3 4 37 7
75 7 l68 0 0 -59z"/>
<path d="M2760 5400 c0 -5 7 -10 16 -10 8 0 12 5 9 10 -3 6 -10 10 -16 10 -5
0 -9 -4 -9 -10z"/>
<path d="M3931 5383 c17 -45 70 -133 80 -133 5 0 9 2 9 5 0 13 -53 122 -67
137 -24 26 -34 22 -22 -9z"/>
<path d="M2590 5396 c0 -2 7 -6 15 -10 8 -3 15 -1 15 4 0 6 -7 10 -15 10 -8 0
-15 -2 -15 -4z"/>
<path d="M3500 5347 c0 -8 7 -21 16 -28 14 -11 15 -10 12 11 -3 26 -28 41 -28
17z"/>
<path d="M2350 5310 c0 -11 5 -20 10 -20 6 0 10 9 10 20 0 11 -4 20 -10 20 -5
0 -10 -9 -10 -20z"/>
<path d="M2388 5273 c7 -3 16 -2 19 1 4 3 -2 6 -13 5 -11 0 -14 -3 -6 -6z"/>
<path d="M3260 5255 c0 -7 51 -65 74 -84 11 -9 29 -26 41 -39 19 -19 24 -20
35 -7 15 18 9 38 -14 41 -10 1 -33 10 -52 19 -27 13 -34 22 -34 45 0 25 -4 30
-25 30 -14 0 -25 -2 -25 -5z"/>
<path d="M3908 5253 c7 -3 16 -2 19 1 4 3 -2 6 -13 5 -11 0 -14 -3 -6 -6z"/>
<path d="M3939 5243 c-4 -27 6 -51 28 -70 30 -26 79 -127 99 -203 17 -65 19
-140 3 -140 -7 0 -9 -9 -5 -23 7 -29 -18 -42 -82 -46 -37 -2 -43 1 -52 24 -11
28 -5 51 16 59 8 3 14 12 14 21 0 17 25 21 35 5 3 -5 11 -10 17 -10 5 0 1 14
-9 32 -16 27 -25 32 -61 34 -52 3 -72 18 -72 55 0 24 -4 29 -24 29 -31 0 -53
25 -37 44 14 16 5 87 -14 112 -19 26 -34 8 -28 -32 5 -28 2 -39 -10 -46 -21
-11 -22 -51 -2 -68 10 -9 16 -29 15 -59 -1 -75 10 -111 36 -121 21 -8 22 -12
13 -46 -6 -21 -7 -58 -3 -88 4 -28 9 -43 12 -33 2 9 7 17 12 17 11 0 17 -120
8 -162 -8 -39 9 -54 33 -32 15 13 19 12 36 -12 25 -34 39 -26 48 29 4 23 12
57 18 75 10 30 9 36 -9 50 -30 25 -37 52 -18 73 12 14 22 16 40 9 17 -7 35 -4
66 10 52 24 72 25 88 5 17 -20 29 -8 31 30 3 41 -9 73 -32 85 -16 9 -17 15 -9
31 16 29 -2 112 -43 200 -19 41 -38 86 -42 99 -4 14 -14 34 -21 45 -14 19 -14
19 -14 -2 0 -22 -29 -36 -50 -23 -6 4 -10 15 -8 25 2 10 -3 20 -9 22 -7 3 -14
1 -14 -4z m-89 -338 c0 -3 -7 -5 -15 -5 -19 0 -38 37 -30 58 5 13 10 9 25 -16
11 -18 20 -35 20 -37z m20 -39 c0 -8 -4 -17 -9 -21 -12 -7 -24 12 -16 25 9 15
25 12 25 -4z m256 -51 c-3 -9 -11 -13 -16 -10 -8 5 -7 11 1 21 14 18 24 11 15
-11z m-236 -65 c0 -11 -4 -20 -10 -20 -5 0 -10 9 -10 20 0 11 5 20 10 20 6 0
10 -9 10 -20z m0 -160 c0 -5 -4 -10 -10 -10 -5 0 -10 5 -10 10 0 6 5 10 10 10
6 0 10 -4 10 -10z"/>
<path d="M2018 5203 c7 -3 16 -2 19 1 4 3 -2 6 -13 5 -11 0 -14 -3 -6 -6z"/>
<path d="M2186 5195 c4 -8 12 -15 20 -15 8 0 11 6 8 15 -4 8 -12 15 -20 15 -8
0 -11 -6 -8 -15z"/>
<path d="M3558 5175 c-27 -18 -35 -29 -31 -45 3 -11 9 -20 13 -20 15 0 74 34
64 37 -6 2 -9 15 -6 28 5 30 6 30 -40 0z"/>
<path d="M3666 5129 c-25 -20 -37 -69 -17 -69 21 0 72 57 65 73 -8 22 -16 21
-48 -4z"/>
<path d="M5779 5076 c-8 -9 1 -55 12 -62 10 -6 10 10 0 44 -3 13 -9 21 -12 18z"/>
<path d="M3883 5037 c4 -53 23 -69 56 -48 11 7 9 14 -9 39 -33 45 -49 48 -47
9z"/>
<path d="M1930 5040 c0 -5 5 -10 10 -10 6 0 10 5 10 10 0 6 -4 10 -10 10 -5 0
-10 -4 -10 -10z"/>
<path d="M3490 5027 c0 -19 16 -31 24 -18 3 5 -1 14 -9 21 -12 10 -15 10 -15
-3z"/>
<path d="M2012 5004 c-12 -8 -22 -19 -22 -25 0 -12 38 12 44 28 7 16 5 16 -22
-3z"/>
<path d="M3573 5004 c-3 -9 -1 -20 6 -27 6 -6 11 -19 11 -28 0 -9 7 -22 15
-29 22 -18 43 30 27 64 -13 28 -51 41 -59 20z"/>
<path d="M3689 4988 c-2 -25 3 -53 13 -65 5 -7 7 -16 4 -21 -3 -6 0 -15 8 -21
22 -18 29 16 15 71 -12 44 -37 67 -40 36z"/>
<path d="M1666 4978 c-3 -7 -7 -33 -11 -58 -3 -24 -15 -59 -26 -77 -21 -33
-23 -84 -3 -90 6 -2 26 18 44 44 19 27 37 50 42 53 8 6 4 40 -13 103 -10 37
-26 49 -33 25z"/>
<path d="M5800 4958 c1 -17 39 -67 40 -51 0 18 -22 63 -32 63 -4 0 -8 -6 -8
-12z"/>
<path d="M1845 4940 c3 -5 17 -9 30 -8 31 3 21 18 -11 18 -14 0 -22 -4 -19
-10z"/>
<path d="M1760 4890 c0 -5 5 -10 10 -10 6 0 10 5 10 10 0 6 -4 10 -10 10 -5 0
-10 -4 -10 -10z"/>
<path d="M2029 4883 c-13 -16 -12 -17 4 -4 9 7 17 15 17 17 0 8 -8 3 -21 -13z"/>
<path d="M1955 4867 c-23 -14 -36 -29 -30 -36 3 -2 11 1 18 7 7 7 24 13 38 15
13 2 23 8 22 13 -3 14 -26 14 -48 1z"/>
<path d="M1815 4800 c4 -6 11 -8 16 -5 14 9 11 15 -7 15 -8 0 -12 -5 -9 -10z"/>
<path d="M1970 4760 c-10 -6 -40 -56 -40 -66 0 -2 7 -4 15 -4 8 0 15 4 15 8 0
4 14 16 30 25 17 10 30 22 30 26 0 12 -36 20 -50 11z"/>
<path d="M2418 4755 c-3 -3 -41 -12 -84 -19 -66 -11 -90 -20 -148 -59 -39 -26
-62 -47 -53 -47 9 0 17 -6 17 -14 0 -7 7 -19 15 -26 13 -10 22 -10 53 3 20 9
72 21 115 27 63 9 81 9 94 -2 9 -7 24 -12 34 -10 9 2 20 -1 23 -7 4 -5 -19
-17 -49 -25 -30 -9 -79 -23 -107 -31 -61 -17 -118 -49 -118 -66 0 -16 128 -3
156 16 19 12 24 12 39 -5 12 -13 31 -20 54 -20 43 0 58 9 75 41 7 13 19 23 26
21 66 -15 70 -15 70 7 0 25 18 27 86 9 40 -11 47 -11 55 4 5 8 19 18 31 22 13
3 29 15 36 26 13 21 13 21 -35 36 -7 2 -13 13 -13 25 0 12 -14 34 -30 49 -49
44 -207 52 -236 12 -8 -10 -17 -13 -30 -7 -10 4 -23 7 -27 6 -5 -1 -16 8 -25
19 -10 12 -20 19 -24 15z m50 -72 c2 -8 -6 -13 -22 -13 -17 0 -26 5 -26 16 0
19 41 16 48 -3z m27 -143 c3 -5 1 -10 -4 -10 -6 0 -11 5 -11 10 0 6 2 10 4 10
3 0 8 -4 11 -10z"/>
<path d="M1677 4732 c-10 -10 -14 -22 -10 -25 7 -8 43 21 43 35 0 14 -16 9
-33 -10z"/>
<path d="M1764 4665 c1 -22 10 -43 25 -58 l23 -22 -3 25 c-2 14 0 30 4 37 7
11 -28 53 -43 53 -4 0 -6 -16 -6 -35z"/>
<path d="M4096 4652 c-3 -5 2 -21 9 -36 8 -16 12 -32 9 -37 -6 -11 13 -39 27
-39 5 0 9 14 9 30 0 17 -4 30 -10 30 -5 0 -9 3 -9 8 4 26 -3 52 -15 52 -8 0
-17 -4 -20 -8z"/>
<path d="M1647 4605 c-15 -15 -25 -30 -22 -36 7 -11 45 -12 45 -1 0 4 10 12
23 17 12 6 22 17 22 25 0 25 -38 22 -68 -5z"/>
<path d="M4005 4600 c-3 -5 1 -10 9 -10 9 0 16 5 16 10 0 6 -4 10 -9 10 -6 0
-13 -4 -16 -10z"/>
<path d="M4220 4575 c0 -8 4 -24 9 -37 5 -13 12 -35 15 -50 7 -33 26 -37 26
-7 0 36 -22 98 -36 103 -8 3 -14 -1 -14 -9z"/>
<path d="M1563 4549 c-16 -16 -17 -45 -2 -55 17 -10 26 8 20 39 -5 23 -8 26
-18 16z"/>
<path d="M4017 4519 c-18 -27 -27 -54 -27 -80 0 -43 -5 -47 -32 -22 -17 15
-18 15 -18 -3 0 -11 -4 -24 -9 -29 -5 -6 -13 -27 -17 -49 l-7 -39 34 19 c45
25 78 62 86 93 3 14 15 36 27 49 27 30 31 102 6 102 -9 0 -28 -18 -43 -41z"/>
<path d="M1737 4537 c-8 -21 6 -38 23 -27 13 8 13 11 -1 25 -14 14 -17 14 -22
2z"/>
<path d="M1807 4533 c-16 -15 -6 -33 18 -33 27 0 32 9 13 28 -14 14 -22 15
-31 5z"/>
<path d="M5060 4494 c0 -38 15 -74 30 -74 13 0 13 40 -1 79 -15 42 -29 39 -29
-5z"/>
<path d="M1632 4471 c-28 -24 -31 -30 -17 -41 12 -10 16 -9 21 5 4 9 18 21 31
26 14 5 23 14 21 21 -7 21 -22 18 -56 -11z"/>
<path d="M4155 4453 c-7 -21 -23 -28 -49 -24 -5 1 -6 -5 -3 -12 3 -8 0 -20 -6
-26 -8 -8 -8 -11 0 -11 20 0 74 62 70 79 -4 12 -6 11 -12 -6z"/>
<path d="M1519 4448 c-7 -29 -2 -56 12 -72 11 -11 21 -17 24 -14 9 9 -10 81
-23 86 -7 2 -12 2 -13 0z"/>
<path d="M5190 4394 c0 -8 5 -12 10 -9 6 4 8 11 5 16 -9 14 -15 11 -15 -7z"/>
<path d="M4043 4385 c4 -9 7 -21 7 -26 0 -15 17 -10 24 6 3 9 -3 19 -16 26
-18 10 -20 9 -15 -6z"/>
<path d="M1599 4341 c-27 -22 -25 -27 15 -37 22 -5 27 -4 24 7 -3 8 -1 22 4
32 12 24 -13 23 -43 -2z"/>
<path d="M1680 4338 c-32 -34 -23 -42 15 -12 19 14 35 28 35 30 0 12 -32 1
-50 -18z"/>
<path d="M4252 4344 c-28 -19 -20 -34 19 -34 25 0 30 4 27 22 -4 28 -18 32
-46 12z"/>
<path d="M5170 4341 c0 -10 7 -21 15 -25 10 -3 15 1 15 13 0 10 -7 21 -15 25
-10 3 -15 -1 -15 -13z"/>
<path d="M1500 4304 c0 -23 20 -54 34 -54 11 0 5 45 -8 63 -18 24 -26 21 -26
-9z"/>
<path d="M4051 4306 c-11 -13 -11 -20 -3 -28 15 -15 24 -5 20 23 -3 21 -4 21
-17 5z"/>
<path d="M5765 4263 c-27 -31 -68 -64 -89 -74 -35 -15 -40 -22 -41 -52 -3 -67
-27 -126 -67 -166 l-39 -39 58 -12 c32 -7 84 -14 116 -15 32 -2 59 -4 61 -6 1
-2 17 -30 35 -62 18 -31 36 -55 40 -52 15 9 69 130 76 170 4 24 18 52 36 71
l29 30 -21 20 c-23 20 -49 76 -49 104 0 18 62 80 80 80 6 0 10 5 10 10 0 7
-28 8 -80 4 -79 -7 -79 -7 -89 20 -6 14 -12 26 -13 25 -2 0 -25 -25 -53 -56z"/>
<path d="M1990 4300 c0 -7 -7 -22 -17 -32 -9 -10 -18 -30 -19 -45 -2 -15 -11
-34 -21 -41 -16 -12 -16 -14 -2 -22 12 -7 15 -22 12 -62 -2 -29 0 -60 4 -68 4
-8 12 -39 17 -69 6 -30 16 -56 23 -58 20 -7 24 32 9 98 -9 35 -13 79 -10 97 3
19 0 40 -7 48 -10 12 -9 16 8 20 19 5 21 13 19 69 0 35 -4 67 -8 71 -5 4 -8 1
-8 -6z"/>
<path d="M3954 4267 c-34 -35 -46 -64 -35 -85 7 -13 6 -23 -1 -30 -9 -9 -9
-15 1 -24 20 -20 63 38 55 74 -4 19 1 33 16 48 21 21 19 41 -3 39 -7 0 -22
-10 -33 -22z"/>
<path d="M4331 4268 c-5 -13 -12 -31 -15 -40 -3 -11 -15 -18 -30 -18 -28 0
-33 -18 -27 -88 4 -58 23 -49 36 18 9 49 13 55 42 62 40 10 44 17 35 53 -10
37 -29 43 -41 13z"/>
<path d="M1442 4271 c-7 -4 -15 -21 -18 -39 -5 -25 -3 -32 9 -32 13 0 47 46
47 63 0 9 -27 15 -38 8z"/>
<path d="M5200 4245 c-10 -19 -21 -25 -48 -25 -31 0 -34 -2 -27 -22 27 -91 27
-132 -3 -155 -10 -9 -13 -23 -9 -47 5 -34 5 -35 -26 -33 -18 2 -41 8 -52 15
-20 11 -20 12 3 18 30 9 28 28 -5 44 -29 15 -73 57 -73 71 0 5 -9 13 -21 19
-20 11 -20 10 -14 -47 13 -111 31 -139 159 -246 74 -62 110 -99 125 -129 41
-81 95 -85 59 -5 -7 15 -23 30 -34 33 -25 6 -38 57 -22 87 5 10 7 25 4 33 -3
8 1 14 9 14 19 0 30 21 16 30 -9 5 -7 10 4 20 12 10 18 11 24 2 4 -7 16 0 33
22 l26 33 -32 11 c-39 14 -56 47 -64 121 -4 44 -2 56 13 67 21 16 13 64 -11
64 -10 0 -14 6 -10 15 9 25 -10 17 -24 -10z"/>
<path d="M3026 4245 c-6 -18 13 -65 27 -65 5 0 6 7 3 16 -3 9 -6 27 -6 40 0
27 -15 32 -24 9z"/>
<path d="M1652 4215 c-31 -29 -34 -36 -22 -45 21 -13 20 -14 63 25 37 32 42
55 11 55 -8 0 -31 -16 -52 -35z"/>
<path d="M5374 4113 c2 -60 -1 -113 -5 -119 -6 -7 -4 -22 4 -37 19 -37 38 -17
26 26 -13 48 -11 65 12 88 22 22 22 42 -3 112 -7 20 -18 37 -25 37 -9 0 -11
-29 -9 -107z"/>
<path d="M4047 4183 c-13 -13 -7 -32 8 -27 8 4 15 12 15 20 0 15 -12 19 -23 7z"/>
<path d="M3998 4174 c-5 -4 -8 -21 -8 -38 0 -21 3 -27 11 -19 6 6 9 23 7 38
-2 15 -6 23 -10 19z"/>
<path d="M1550 4131 c0 -11 5 -23 10 -26 6 -4 10 5 10 19 0 14 -4 26 -10 26
-5 0 -10 -9 -10 -19z"/>
<path d="M4355 4130 c-10 -16 -11 -121 -2 -127 16 -9 28 20 23 55 -3 17 -2 32
2 32 18 1 32 18 26 33 -7 19 -39 23 -49 7z"/>
<path d="M1435 4120 c-3 -5 -2 -10 4 -10 5 0 13 5 16 10 3 6 2 10 -4 10 -5 0
-13 -4 -16 -10z"/>
<path d="M1397 4076 c-27 -21 -20 -26 33 -26 44 0 50 3 50 20 0 18 -3 19 -21
10 -13 -8 -24 -8 -32 -2 -8 7 -18 6 -30 -2z"/>
<path d="M4175 4050 c3 -5 8 -10 11 -10 2 0 4 5 4 10 0 6 -5 10 -11 10 -5 0
-7 -4 -4 -10z"/>
<path d="M1500 4031 c0 -10 7 -24 15 -31 8 -7 15 -19 15 -27 0 -20 25 -26 50
-13 17 9 19 14 9 26 -6 8 -20 14 -30 14 -12 0 -23 10 -29 25 -11 29 -30 33
-30 6z"/>
<path d="M4108 4038 c17 -8 26 -8 34 0 9 9 4 12 -22 11 -33 0 -34 -1 -12 -11z"/>
<path d="M4254 4003 c-20 -4 -50 -50 -40 -60 7 -7 76 6 76 15 0 4 3 17 6 30 7
23 3 24 -42 15z"/>
<path d="M4420 3978 c0 -42 -12 -60 -33 -52 -31 11 -71 -14 -83 -52 l-11 -35
31 3 c18 2 31 9 31 17 0 8 9 19 20 25 11 6 23 15 26 20 4 5 12 -1 19 -14 20
-37 33 -9 26 54 -8 62 -26 86 -26 34z"/>
<path d="M1404 3950 c-1 -34 15 -39 39 -12 25 27 21 42 -10 42 -24 0 -28 -4
-29 -30z"/>
<path d="M1345 3940 c3 -5 8 -10 11 -10 2 0 4 5 4 10 0 6 -5 10 -11 10 -5 0
-7 -4 -4 -10z"/>
<path d="M1840 3920 c0 -11 4 -20 8 -20 4 0 8 9 9 20 1 11 -2 20 -8 20 -5 0
-9 -9 -9 -20z"/>
<path d="M4121 3868 c-1 -59 13 -77 28 -36 9 24 3 58 -9 58 -5 0 -11 8 -13 18
-3 9 -5 -9 -6 -40z"/>
<path d="M1326 3902 c-3 -6 -1 -14 5 -17 15 -10 25 3 12 16 -7 7 -13 7 -17 1z"/>
<path d="M1391 3834 c-23 -29 -20 -44 10 -44 23 0 59 34 59 55 0 25 -46 18
-69 -11z"/>
<path d="M1985 3850 c-7 -12 2 -30 16 -30 12 0 12 27 0 35 -5 3 -12 1 -16 -5z"/>
<path d="M4231 3837 c-11 -14 -11 -91 0 -102 14 -14 28 23 20 52 -5 17 -5 37
1 46 11 21 -5 23 -21 4z"/>
<path d="M4433 3823 c-7 -2 -13 -12 -13 -22 0 -9 -7 -26 -15 -37 -22 -29 -18
-34 25 -34 l40 0 0 50 c0 49 -6 56 -37 43z"/>
<path d="M1287 3789 c-8 -31 25 -85 44 -73 11 6 -14 87 -27 91 -7 2 -14 -6
-17 -18z"/>
<path d="M1206 3725 c-26 -48 -10 -58 25 -15 34 40 36 50 11 50 -10 0 -26 -15
-36 -35z"/>
<path d="M4321 3751 c-9 -6 -11 -16 -5 -32 4 -13 8 -41 8 -61 1 -40 14 -51 30
-26 9 16 -1 128 -12 128 -4 0 -13 -4 -21 -9z"/>
<path d="M1386 3709 c-14 -11 -26 -27 -26 -35 0 -25 30 -28 54 -5 12 11 28 21
34 21 7 0 12 9 12 20 0 27 -39 27 -74 -1z"/>
<path d="M1258 3651 c-4 -30 15 -51 47 -51 21 0 19 43 -3 63 -27 24 -39 21
-44 -12z"/>
<path d="M4465 3659 c-4 -6 -13 -8 -20 -5 -21 8 -38 -21 -32 -53 3 -15 1 -33
-6 -40 -8 -8 -7 -11 5 -11 22 0 39 23 36 51 -2 18 1 23 15 21 12 -2 17 4 17
23 0 27 -5 31 -15 14z"/>
<path d="M4176 3630 c-27 -17 -28 -20 -12 -26 13 -5 23 -1 31 10 7 9 26 21 42
26 l28 8 -30 0 c-16 0 -43 -8 -59 -18z"/>
<path d="M1160 3619 c0 -9 -11 -24 -24 -32 -27 -18 -50 -73 -35 -83 5 -3 14 8
20 25 9 24 17 31 38 31 29 0 77 42 67 58 -3 5 -19 12 -36 14 -23 4 -30 1 -30
-13z"/>
<path d="M4225 3619 c-12 -19 5 -23 22 -6 16 16 16 17 1 17 -9 0 -20 -5 -23
-11z"/>
<path d="M5286 3611 c-3 -4 4 -17 16 -27 20 -18 21 -18 15 -1 -4 10 -7 23 -7
28 0 11 -17 12 -24 0z"/>
<path d="M2840 3550 c0 -5 10 -14 22 -21 18 -10 20 -9 15 4 -3 9 -1 18 6 21 7
2 0 5 -15 5 -16 1 -28 -3 -28 -9z"/>
<path d="M4355 3550 c-4 -6 -15 -8 -25 -5 -27 9 -67 -4 -74 -23 -3 -10 -8 -22
-11 -28 -8 -16 73 -28 91 -14 7 6 10 19 7 27 -4 9 1 21 12 29 10 8 16 16 13
20 -3 3 -9 0 -13 -6z"/>
<path d="M2908 3523 c7 -3 16 -2 19 1 4 3 -2 6 -13 5 -11 0 -14 -3 -6 -6z"/>
<path d="M1150 3497 c-14 -6 -30 -18 -36 -26 -10 -12 -15 -13 -27 -3 -12 10
-17 8 -30 -11 -14 -22 -14 -26 8 -53 25 -31 23 -32 40 22 4 11 12 14 29 10 54
-13 97 29 64 62 -14 14 -16 14 -48 -1z"/>
<path d="M4176 3502 c-11 -18 -14 -97 -4 -115 17 -33 36 -3 30 51 -5 53 -16
80 -26 64z"/>
<path d="M4476 3471 c-3 -5 -26 -12 -51 -15 -70 -11 -103 -59 -49 -72 35 -9
74 10 74 37 0 12 8 23 20 26 11 3 20 12 20 19 0 16 -6 18 -14 5z"/>
<path d="M4260 3364 c0 -27 -5 -37 -20 -41 -18 -5 -18 -7 8 -33 37 -38 52 -23
52 51 0 52 -2 59 -20 59 -16 0 -20 -7 -20 -36z"/>
<path d="M2764 3382 c10 -17 67 -24 111 -14 l40 10 -40 1 c-22 1 -58 4 -79 8
-28 4 -37 3 -32 -5z"/>
<path d="M4467 3353 c-8 -10 -17 -31 -19 -47 -3 -26 1 -31 30 -40 45 -13 55 4
34 60 -18 49 -22 51 -45 27z"/>
<path d="M1020 3339 c0 -21 36 -58 57 -59 25 0 24 23 -3 51 -33 34 -54 37 -54
8z"/>
<path d="M5498 3353 c6 -2 12 -12 12 -22 0 -17 34 -53 76 -82 112 -74 188
-137 225 -186 24 -32 62 -76 84 -99 22 -22 54 -62 70 -88 l30 -48 3 56 c2 30
-2 65 -8 76 -6 11 -8 29 -5 39 4 14 -2 22 -25 31 -16 7 -30 17 -30 22 0 8 18
5 58 -9 6 -3 12 2 12 10 0 18 -80 57 -115 57 -12 0 -28 7 -35 16 -8 8 -27 22
-44 30 -64 30 -92 47 -116 69 -14 13 -35 26 -46 29 -12 4 -38 22 -57 41 -20
19 -43 35 -50 35 -8 0 -17 7 -21 15 -3 8 -11 15 -18 14 -10 0 -10 -2 0 -6z"/>
<path d="M955 3304 c-11 -18 -14 -29 -7 -36 13 -13 66 37 57 52 -11 18 -32 11
-50 -16z"/>
<path d="M4365 3300 c-3 -6 -5 -23 -4 -38 1 -15 -2 -35 -6 -45 -9 -22 10 -46
24 -31 14 14 17 117 4 121 -6 2 -14 -1 -18 -7z"/>
<path d="M3365 3259 c-11 -17 1 -21 15 -4 8 9 8 15 2 15 -6 0 -14 -5 -17 -11z"/>
<path d="M4287 3085 c-18 -25 -18 -25 8 -35 15 -6 42 -10 61 -10 27 0 34 4 34
19 0 11 6 23 13 28 8 5 2 10 -18 14 -58 13 -80 9 -98 -16z"/>
<path d="M1158 2433 c6 -2 18 -2 25 0 6 3 1 5 -13 5 -14 0 -19 -2 -12 -5z"/>
<path d="M1050 2270 c0 -5 5 -10 10 -10 6 0 10 5 10 10 0 6 -4 10 -10 10 -5 0
-10 -4 -10 -10z"/>
<path d="M3713 2225 c0 -10 10 -15 29 -15 18 0 28 5 28 15 0 10 -10 15 -28 15
-19 0 -29 -5 -29 -15z"/>
<path d="M4181 2014 c0 -11 3 -14 6 -6 3 7 2 16 -1 19 -3 4 -6 -2 -5 -13z"/>
<path d="M5036 1778 c-3 -13 -6 -35 -6 -49 0 -15 -11 -35 -26 -48 -21 -18 -24
-25 -13 -32 17 -10 4 -23 -24 -24 -23 0 -34 -26 -36 -82 -1 -32 -14 -43 -26
-23 -11 17 -28 11 -20 -7 4 -10 8 -22 9 -28 1 -5 5 -20 9 -31 4 -12 3 -41 -3
-65 -6 -24 -15 -64 -20 -89 -17 -81 -20 -91 -29 -85 -12 7 -34 -61 -28 -86 3
-10 1 -19 -4 -19 -5 0 -9 5 -9 12 0 9 -3 9 -12 0 -7 -7 -36 -12 -64 -12 l-53
0 -3 -52 c-3 -52 -3 -52 -42 -60 -22 -5 -54 -20 -72 -33 l-32 -25 -59 31 c-94
48 -224 40 -294 -18 -25 -22 -34 -24 -48 -15 -9 7 -38 24 -66 37 -59 29 -164
34 -220 11 -31 -13 -35 -13 -35 0 0 11 -15 14 -69 14 l-70 0 -3 43 -3 42 -13
-42 -12 -41 -118 -4 c-113 -3 -120 -4 -157 -32 -70 -53 -80 -94 -80 -311 0
-138 4 -202 14 -233 13 -39 13 -46 -3 -70 -9 -15 -24 -42 -34 -60 l-17 -34 35
-29 c19 -16 60 -41 90 -56 49 -25 66 -28 157 -28 l103 0 10 -55 c19 -99 29
-102 29 -10 1 84 2 86 30 103 16 9 41 31 55 47 l25 31 63 -22 c100 -34 194
-22 279 34 26 17 26 17 22 -8 -3 -14 -11 -25 -18 -25 -17 0 -75 -33 -75 -42 0
-5 6 -8 14 -8 7 0 19 -6 25 -14 10 -12 8 -17 -8 -25 -11 -6 -31 -11 -45 -11
-16 0 -32 -9 -42 -25 -11 -16 -23 -24 -33 -20 -10 3 -27 -4 -39 -16 -15 -13
-29 -18 -43 -14 -15 5 -22 2 -26 -14 -3 -12 -9 -21 -14 -21 -5 0 -9 -7 -9 -15
0 -13 96 -15 804 -15 l803 0 -3 52 c-2 47 -5 53 -26 53 -18 0 -23 6 -23 25 0
18 5 25 19 25 11 0 21 -6 24 -12 2 -8 -5 -13 -17 -13 -12 0 -21 -5 -21 -11 0
-19 35 -5 45 19 5 12 15 22 21 22 6 0 15 15 20 33 l10 32 99 3 98 3 36 -35
c20 -19 45 -36 56 -38 10 -2 22 -14 26 -28 l7 -25 1 28 c1 25 4 27 41 27 39 0
40 -1 39 -32 -2 -31 -2 -31 -6 -5 -5 34 -23 36 -23 2 0 -14 -4 -25 -10 -25 -5
0 -10 11 -10 25 0 14 -4 25 -10 25 -5 0 -10 -11 -10 -25 0 -14 4 -25 9 -25 4
0 38 -22 74 -50 36 -27 73 -50 82 -50 13 0 15 22 15 158 l0 157 -67 0 c-53 0
-76 5 -104 23 -62 38 -69 66 -69 271 0 162 2 186 20 221 27 53 80 80 160 80
l60 0 0 45 0 45 -70 0 c-71 0 -129 -16 -162 -46 -15 -15 -20 -14 -51 10 -43
33 -117 48 -177 35 -56 -12 -57 -12 -100 -1 -19 5 -85 7 -146 4 l-111 -4 -7
37 c-5 27 -11 35 -22 31 -9 -4 -19 4 -26 19 -8 18 -17 24 -29 20 -20 -7 -20
-5 -20 85 0 58 37 239 52 255 5 5 9 21 9 36 0 15 7 29 15 33 8 3 15 10 15 16
0 6 -4 8 -10 5 -5 -3 -10 0 -10 8 0 7 11 19 25 25 14 7 25 20 25 31 0 11 3 28
6 38 4 10 -7 3 -24 -17 -25 -27 -32 -31 -37 -18 -4 9 -5 22 -4 29 5 30 -13 68
-34 71 -13 2 -23 13 -28 30 -4 15 -14 36 -22 48 l-14 21 -7 -23z m-126 -1113
l0 -345 -70 0 c-66 0 -70 1 -70 23 -1 19 -2 20 -13 6 -45 -59 -137 -46 -174
24 -14 27 -16 61 -15 240 2 222 7 249 54 281 25 18 113 22 123 6 15 -25 25 -5
25 50 l0 60 70 0 70 0 0 -345z m-1360 225 c11 -11 22 -20 25 -20 3 0 5 9 5 20
0 18 7 20 71 20 l70 0 -3 -289 c-3 -276 -4 -291 -24 -318 -12 -15 -35 -36 -52
-46 -62 -36 -197 -32 -260 9 l-23 15 22 37 c12 20 23 38 24 40 1 1 21 -5 45
-13 23 -8 50 -15 60 -15 26 0 57 31 65 65 6 29 6 29 -13 12 -27 -25 -85 -32
-123 -17 -56 23 -69 71 -69 250 0 173 9 220 47 250 35 27 106 27 133 0z m490
-2 c70 -48 75 -62 78 -240 2 -89 1 -181 -3 -205 -23 -156 -269 -183 -331 -36
-20 46 -20 357 0 404 28 67 79 98 162 99 47 0 69 -5 94 -22z m400 -1 c68 -45
75 -70 75 -277 0 -208 -7 -235 -75 -275 -48 -28 -152 -28 -198 0 -63 38 -72
71 -72 276 0 175 1 184 25 224 31 54 73 74 151 75 47 0 69 -5 94 -23z m850 -3
l0 -27 25 27 c34 37 111 38 147 1 l25 -25 23 25 c33 35 120 36 155 1 38 -39
45 -86 45 -333 l0 -233 -75 0 -75 0 0 240 c0 214 -2 241 -16 247 -38 14 -44
-20 -44 -259 l0 -228 -70 0 -70 0 0 228 c0 188 -3 232 -15 248 -15 19 -15 19
-35 -5 -19 -22 -20 -38 -20 -247 l0 -224 -70 0 -70 0 0 288 c0 159 3 292 7
295 3 4 35 7 70 7 61 0 63 -1 63 -26z m-348 -754 c3 -17 1 -30 -4 -30 -4 0 -8
11 -8 25 0 14 -4 25 -10 25 -5 0 -10 -11 -10 -25 0 -14 -4 -25 -10 -25 -5 0
-10 11 -10 25 0 34 -18 32 -23 -2 -4 -26 -4 -26 -6 5 -1 31 0 32 38 32 35 0
39 -3 43 -30z m58 15 c0 -8 -7 -15 -15 -15 -8 0 -15 -5 -15 -11 0 -6 7 -9 15
-5 8 3 15 1 15 -4 0 -16 -40 -11 -46 5 -9 23 3 45 26 45 11 0 20 -7 20 -15z
m98 -17 c2 -16 -1 -28 -7 -28 -6 0 -11 12 -11 27 0 29 -15 22 -23 -12 -4 -15
-5 -13 -6 8 -1 34 -21 36 -21 2 0 -14 -4 -25 -10 -25 -5 0 -10 14 -10 31 0 29
1 30 43 27 38 -3 42 -6 45 -30z m62 20 c16 -10 24 -10 40 0 37 23 52 16 48
-25 -2 -31 -7 -39 -25 -41 -19 -3 -23 1 -23 22 0 24 -4 26 -41 26 -23 0 -38
-4 -34 -10 3 -5 13 -6 22 -3 11 4 14 3 9 -5 -4 -7 -16 -12 -27 -12 -14 0 -19
7 -19 30 0 33 16 39 50 18z m148 -5 c2 -8 -5 -13 -17 -13 -25 0 -28 -17 -3
-23 16 -4 16 -5 -1 -6 -20 -1 -32 22 -23 45 7 18 37 15 44 -3z m60 -15 c2 -16
-1 -28 -7 -28 -6 0 -11 11 -11 25 0 34 -18 32 -23 -2 -4 -26 -4 -25 -6 5 -1
29 2 33 22 30 16 -2 23 -11 25 -30z"/>
<path d="M4715 788 c-3 -8 -4 -90 -3 -183 l3 -170 25 0 25 0 0 180 c0 179 0
180 -23 183 -12 2 -24 -3 -27 -10z"/>
<path d="M3520 791 c-11 -21 -14 -241 -4 -278 9 -32 42 -30 54 3 17 43 13 246
-6 272 -19 27 -30 28 -44 3z"/>
<path d="M3916 784 c-10 -27 -7 -324 4 -345 6 -10 17 -19 25 -19 8 0 19 9 25
19 11 21 14 300 4 339 -7 26 -48 31 -58 6z"/>
<path d="M4317 794 c-4 -4 -7 -85 -7 -179 0 -180 5 -204 44 -189 15 6 16 27
14 188 -3 174 -4 181 -23 184 -12 2 -24 0 -28 -4z"/>
<path d="M5210 130 c0 -11 5 -20 10 -20 6 0 10 9 10 20 0 11 -4 20 -10 20 -5
0 -10 -9 -10 -20z"/>
<path d="M283 1532 c1 -14 5 -18 11 -12 7 7 6 14 -1 21 -9 9 -12 7 -10 -9z"/>
<path d="M5962 1459 c2 -6 8 -10 13 -10 5 0 11 4 13 10 2 6 -4 11 -13 11 -9 0
-15 -5 -13 -11z"/>
<path d="M2453 1002 l-153 -3 0 -347 c0 -191 -3 -364 -6 -384 l-7 -38 72 0 71
0 0 -72 c1 -81 10 -77 30 15 l13 57 173 0 c113 0 174 4 176 11 2 7 13 7 33 -2
45 -18 173 -15 220 5 50 21 90 59 118 111 20 36 22 58 25 231 4 211 -2 249
-48 312 -50 70 -101 95 -200 100 -80 4 -89 2 -144 -27 -59 -31 -59 -31 -80
-12 -44 41 -86 48 -293 43z m77 -118 l0 -27 21 27 c17 21 29 26 68 26 52 0 84
-22 102 -67 5 -13 9 -137 9 -274 l0 -249 -70 0 -70 0 -2 238 -3 237 -25 0 -25
0 -3 -237 -2 -238 -70 0 -70 0 0 295 0 295 70 0 c69 0 70 0 70 -26z m521 4
c68 -38 79 -76 79 -278 0 -154 -2 -178 -20 -216 -27 -55 -74 -79 -155 -79 -72
0 -120 24 -150 75 -18 32 -20 52 -20 220 0 207 7 232 75 277 46 32 137 32 191
1z"/>
<path d="M2937 793 c-4 -3 -7 -86 -7 -184 0 -154 2 -178 16 -183 38 -15 44 9
44 179 0 90 -3 170 -6 179 -6 16 -35 22 -47 9z"/>
<path d="M127 794 c-4 -4 -7 -85 -7 -179 0 -141 3 -175 15 -185 12 -10 18 -10
30 0 13 11 15 41 13 189 -3 169 -4 176 -23 179 -12 2 -24 0 -28 -4z"/>
<path d="M5907 794 c-4 -4 -7 -85 -7 -179 0 -180 5 -204 44 -189 15 6 16 27
14 188 -3 174 -4 181 -23 184 -12 2 -24 0 -28 -4z"/>
<path d="M5450 135 c0 -8 2 -15 4 -15 2 0 6 7 10 15 3 8 1 15 -4 15 -6 0 -10
-7 -10 -15z"/>
<path d="M750 110 c0 -5 7 -10 15 -10 8 0 15 5 15 10 0 6 -7 10 -15 10 -8 0
-15 -4 -15 -10z"/>
</g>
</svg>
