<?xml version="1.0" standalone="no"?>
<!DOCTYPE svg PUBLIC "-//W3C//DTD SVG 20010904//EN"
 "http://www.w3.org/TR/2001/REC-SVG-20010904/DTD/svg10.dtd">
<svg version="1.0" xmlns="http://www.w3.org/2000/svg"
 width="600.000000pt" height="600.000000pt" viewBox="0 0 600.000000 600.000000"
 preserveAspectRatio="xMidYMid meet">
<metadata>
Created by potrace 1.16, written by Peter Selinger 2001-2019
</metadata>
<g transform="translate(0.000000,600.000000) scale(0.100000,-0.100000)"
fill="#000000" stroke="none">
<path d="M2690 5989 c-47 -5 -132 -17 -190 -26 l-105 -18 -3 -238 c-1 -130 -6
-237 -10 -237 -4 0 -90 83 -191 184 l-183 184 -132 -52 c-241 -97 -441 -209
-658 -368 l-68 -50 0 -571 0 -572 -280 285 c-168 172 -282 281 -287 275 -30
-39 -140 -206 -179 -271 -207 -351 -346 -778 -393 -1209 -15 -138 -13 -498 4
-640 59 -503 214 -923 496 -1345 461 -692 1207 -1164 2044 -1292 131 -20 187
-23 445 -23 258 0 314 3 445 23 847 131 1580 597 2054 1307 124 185 215 359
302 577 l40 102 -182 182 -183 183 218 223 c121 123 239 242 263 266 l43 43
-2 167 c-1 118 -3 146 -7 94 l-6 -72 -258 257 -257 258 180 180 c98 98 181
177 183 175 2 -3 12 -25 21 -50 9 -27 14 -33 10 -15 -17 91 -144 386 -235 549
-96 171 -133 225 -150 216 -8 -4 -30 -10 -51 -14 -20 -4 -39 -13 -42 -21 -7
-19 -40 -19 -56 0 -7 8 -16 15 -20 15 -5 0 12 -30 36 -67 24 -37 44 -73 44
-80 0 -19 1 -25 11 -50 7 -19 5 -23 -9 -23 -10 0 -23 5 -30 12 -6 6 0 -25 13
-69 32 -104 45 -174 38 -202 -6 -22 -6 -22 -20 -1 -22 31 -34 24 -27 -17 3
-23 -1 -55 -10 -82 -9 -24 -16 -58 -16 -75 0 -17 -7 -56 -15 -86 -11 -43 -12
-63 -3 -92 10 -34 8 -41 -17 -79 -15 -23 -28 -51 -30 -63 -2 -11 -10 -41 -19
-65 -9 -24 -16 -52 -16 -62 0 -25 -40 -65 -49 -50 -5 8 -12 6 -24 -6 -13 -16
-88 -160 -152 -296 -26 -55 -28 -40 -5 29 48 137 82 292 92 419 11 138 12 262
2 308 -4 20 -2 27 10 27 12 0 14 11 11 61 -4 59 -15 96 -15 51 0 -13 -6 -22
-15 -22 -18 0 -19 -5 -4 -32 8 -15 8 -22 -1 -28 -10 -6 -10 -18 -1 -53 14 -56
15 -167 1 -167 -6 0 -10 -45 -10 -114 0 -63 -6 -147 -14 -188 -21 -111 -94
-319 -195 -556 -196 -460 -307 -625 -556 -827 -49 -40 -130 -108 -178 -151
-49 -44 -109 -92 -135 -109 -42 -28 -52 -30 -141 -30 -95 0 -216 23 -271 50
-38 20 -112 96 -224 234 -88 108 -217 275 -279 361 -10 14 -16 18 -13 8 2 -9
-2 -56 -11 -105 -22 -127 -16 -163 46 -263 29 -47 70 -109 92 -139 24 -34 39
-66 39 -84 0 -54 50 -416 75 -544 45 -231 119 -450 172 -514 14 -16 23 -29 21
-29 -2 0 -33 11 -69 25 -35 14 -89 32 -119 40 -76 19 -292 80 -365 103 l-60
18 1 70 c1 38 6 132 12 209 7 77 14 212 17 300 7 212 10 248 60 655 37 303 41
324 56 315 13 -9 12 -5 -22 76 -38 93 -78 245 -86 326 -5 56 -8 61 -24 53 -10
-6 -22 -10 -28 -10 -35 0 -146 148 -214 285 -61 124 -70 178 -62 355 7 171 16
219 48 267 38 57 60 46 129 -68 23 -37 55 -151 78 -275 15 -84 19 -94 14 -44
-16 189 -97 441 -137 427 -7 -2 -20 0 -30 5 -15 7 -25 2 -53 -27 -29 -32 -35
-34 -39 -18 -3 10 -26 59 -50 109 -25 50 -45 95 -45 101 0 5 -9 18 -19 27 -16
15 -18 21 -8 37 9 15 8 29 -5 66 -12 34 -14 51 -6 60 8 10 5 13 -13 13 -13 0
-30 4 -38 9 -11 7 -4 14 27 30 70 36 112 79 112 115 0 17 4 36 8 41 4 6 36 11
72 10 71 0 131 24 183 73 43 41 32 44 -24 7 -79 -54 -173 -70 -248 -44 l-33
12 27 17 27 17 -40 -1 c-29 0 -49 7 -76 28 -21 15 -35 30 -33 32 2 2 30 11 62
19 65 17 145 58 171 86 16 18 15 19 -24 19 -54 0 -61 14 -14 28 21 6 46 19 57
28 17 13 17 15 3 10 -24 -7 -23 20 2 62 11 18 20 38 20 44 0 7 12 25 28 41 24
27 25 28 4 18 -20 -10 -29 -8 -72 20 -28 18 -50 36 -50 40 0 3 25 10 56 14 95
12 195 71 292 172 50 52 78 89 72 93 -26 16 132 111 209 126 35 7 39 19 14 46
-17 19 -16 19 22 16 38 -3 39 -2 47 35 15 72 48 105 48 50 0 -62 15 -62 79 1
49 48 60 55 63 40 3 -12 14 10 28 54 13 39 27 72 32 72 18 0 30 -47 26 -101
l-4 -58 37 30 c42 33 51 36 42 13 -4 -12 5 -9 33 10 21 14 67 40 100 56 34 17
67 37 74 45 18 22 28 18 32 -9 l3 -25 69 30 c75 34 101 29 72 -12 -26 -38 -18
-50 13 -18 32 31 64 42 40 12 -13 -15 -11 -15 19 1 17 9 32 19 32 22 0 16
-491 174 -542 174 -4 0 -8 -32 -8 -72 l0 -72 -33 32 c-18 18 -36 32 -40 32 -4
0 -4 -18 -1 -40 9 -56 -17 -119 -65 -158 -33 -26 -41 -29 -51 -17 -9 10 -8 21
4 44 24 46 19 54 -17 27 l-33 -26 -154 155 -154 155 -150 -1 c-83 -1 -189 -5
-236 -10z m-310 -1146 l-1 -607 -305 305 -304 304 302 302 c167 167 304 303
306 303 1 0 2 -273 2 -607z m-1230 -1235 l0 -613 -307 307 -308 308 305 305
c168 168 306 305 307 305 2 0 3 -276 3 -612z m1240 0 l0 -613 -310 310 -310
310 302 302 c167 167 306 303 310 303 5 0 8 -276 8 -612z m2805 -188 c12 -20
-6 -65 -33 -84 -15 -10 -49 -47 -76 -82 -27 -35 -50 -64 -52 -64 -7 0 98 204
114 223 17 19 38 22 47 7z m-78 -273 c-30 -74 -66 -156 -81 -181 -37 -64 -194
-246 -212 -246 -18 0 -17 2 1 47 9 20 42 64 74 97 65 69 94 113 67 103 -11 -5
-4 15 23 66 21 39 42 86 46 102 3 17 17 44 31 60 l25 30 -6 -30 c-4 -16 -11
-45 -17 -63 -5 -18 -8 -36 -5 -39 8 -8 42 64 63 132 21 69 37 98 42 73 2 -9
-21 -77 -51 -151z m-3967 -769 l0 -613 -307 307 -308 308 305 305 c168 168
306 305 307 305 2 0 3 -276 3 -612z m1230 0 l0 -613 -307 307 -308 308 305
305 c168 168 306 305 307 305 2 0 3 -276 3 -612z m2477 -1121 l-2 -149 -163
157 c-89 87 -161 161 -160 166 2 5 74 82 160 172 l156 164 -189 189 c-104 104
-189 194 -189 200 0 7 31 45 69 85 77 84 140 177 206 308 31 62 53 95 72 105
l28 14 7 -631 c4 -348 7 -699 5 -780z m-3714 133 c-5 -4 -93 -10 -198 -14
l-190 -6 195 195 195 195 3 -182 c1 -100 -1 -185 -5 -188z m1307 330 c-8 -5
-82 -32 -165 -59 -82 -27 -222 -75 -310 -106 -497 -175 -619 -213 -613 -193 2
5 80 36 173 68 94 32 222 77 285 100 63 23 192 67 285 97 94 30 202 65 240 78
74 25 133 33 105 15z m53 -97 c-10 -28 -88 -135 -118 -163 -18 -16 -8 3 25 50
97 137 106 147 93 113z m-213 -59 c0 -25 -10 -45 -103 -204 -53 -90 -102 -150
-124 -150 -18 0 -17 54 2 116 12 41 12 52 1 75 -13 26 -11 29 63 102 42 42 87
77 101 80 55 9 60 8 60 -19z m-1201 -270 l61 -7 0 -98 c0 -53 -3 -104 -6 -112
-7 -19 -85 -12 -139 13 -22 11 -80 31 -130 46 -72 21 -101 25 -152 21 -61 -6
-63 -5 -63 16 0 36 39 107 63 117 26 10 277 13 366 4z m1858 -374 c310 -63
285 -54 436 -157 107 -73 218 -133 245 -133 22 0 102 -45 217 -121 61 -40 152
-92 204 -117 104 -50 104 -52 0 -77 -170 -40 -368 -1 -634 124 -141 67 -327
191 -459 306 -86 76 -88 78 -82 114 3 20 6 44 6 54 0 20 3 20 67 7z"/>
<path d="M3163 5993 c15 -2 37 -2 50 0 12 2 0 4 -28 4 -27 0 -38 -2 -22 -4z"/>
<path d="M3388 5973 c6 -2 18 -2 25 0 6 3 1 5 -13 5 -14 0 -19 -2 -12 -5z"/>
<path d="M4371 5638 c-14 -23 -14 -23 8 -4 22 20 25 26 13 26 -4 0 -13 -10
-21 -22z"/>
<path d="M4589 5537 c-1 -6 -1 -15 -1 -18 1 -4 -19 -12 -44 -19 -53 -15 -73
-36 -23 -24 19 4 62 10 97 13 l63 6 -46 27 c-28 18 -45 23 -46 15z"/>
<path d="M3360 5456 c0 -2 7 -7 16 -10 8 -3 12 -2 9 4 -6 10 -25 14 -25 6z"/>
<path d="M4830 5326 c-19 -17 -46 -39 -59 -49 -34 -23 -19 -33 16 -11 82 53
103 72 90 82 -9 8 -22 2 -47 -22z"/>
<path d="M4820 5250 l-45 -7 40 -2 c37 -2 39 -3 21 -16 -18 -14 -18 -15 -2
-15 10 0 14 -5 10 -11 -9 -14 38 10 48 25 13 19 9 36 -9 34 -10 0 -38 -4 -63
-8z"/>
<path d="M979 5223 c-13 -16 -12 -17 4 -4 16 13 21 21 13 21 -2 0 -10 -8 -17
-17z"/>
<path d="M4962 5204 c3 -3 30 -11 58 -19 61 -16 55 -4 -6 13 -46 13 -60 15
-52 6z"/>
<path d="M3252 5146 c-51 -59 -67 -124 -65 -265 2 -107 -1 -127 -15 -139 -16
-12 -15 -13 6 -9 12 3 25 -1 30 -8 4 -8 7 48 7 123 0 75 4 148 8 162 6 19 6
21 -2 10 -10 -13 -11 -13 -11 0 0 20 47 121 67 142 9 10 14 18 11 18 -3 0 -19
-15 -36 -34z"/>
<path d="M4745 5165 c-22 -8 -53 -14 -68 -14 l-28 -1 20 -22 c11 -11 18 -25
15 -29 -10 -16 85 -60 142 -66 l56 -6 -23 -19 c-13 -10 -49 -26 -79 -35 -30
-9 -47 -18 -38 -20 35 -8 98 19 145 61 51 47 55 68 6 40 -23 -13 -39 -15 -78
-9 -30 5 -42 10 -30 13 34 7 41 22 10 22 -15 0 -49 12 -74 27 l-46 27 52 15
c28 9 55 19 59 24 9 8 10 9 -41 -8z"/>
<path d="M5085 5113 c27 -22 87 -107 121 -169 20 -38 53 -85 72 -106 19 -20
39 -46 46 -59 17 -35 156 -109 156 -84 0 9 -107 150 -184 242 -36 43 -63 68
-67 62 -11 -18 -25 -8 -76 55 -26 33 -55 61 -63 64 -9 2 -11 0 -5 -5z"/>
<path d="M3245 5074 c-9 -14 -14 -28 -12 -31 3 -3 13 9 22 26 19 38 14 41 -10
5z"/>
<path d="M3537 5063 c-3 -16 -8 -57 -12 -93 -10 -108 -15 -130 -30 -130 -7 0
-16 6 -18 13 -4 9 -8 9 -15 -1 -23 -34 -43 108 -22 162 5 14 6 26 1 26 -13 0
-31 -57 -31 -95 0 -18 -16 -67 -35 -109 -19 -42 -38 -96 -41 -119 -4 -23 -13
-47 -21 -54 -8 -6 -15 -27 -16 -47 -1 -30 -3 -33 -16 -23 -12 10 -13 9 -2 -10
15 -28 31 -30 31 -3 0 11 5 20 10 20 6 0 10 -5 10 -11 0 -5 5 -7 10 -4 6 3 10
36 10 73 0 53 6 80 30 130 16 34 33 62 38 62 4 0 28 -29 51 -65 50 -75 67 -91
57 -51 -11 46 9 28 40 -35 28 -59 84 -119 112 -119 9 0 10 5 2 19 -5 11 -10
36 -10 56 0 22 -4 34 -10 30 -5 -3 -10 -17 -10 -31 0 -40 -27 -28 -59 27 -37
65 -55 186 -49 316 3 51 4 93 3 93 -1 0 -5 -12 -8 -27z"/>
<path d="M749 4993 c-13 -16 -12 -17 4 -4 9 7 17 15 17 17 0 8 -8 3 -21 -13z"/>
<path d="M4087 4946 c40 -77 163 -177 217 -175 17 0 25 3 18 6 -6 2 -10 8 -7
13 2 4 -5 16 -18 26 l-22 19 19 -22 19 -23 -28 0 c-22 0 -48 20 -120 93 -56
55 -87 81 -78 63z"/>
<path d="M4190 4951 c0 -6 4 -13 10 -16 6 -3 7 1 4 9 -7 18 -14 21 -14 7z"/>
<path d="M689 4923 c-13 -16 -12 -17 4 -4 9 7 17 15 17 17 0 8 -8 3 -21 -13z"/>
<path d="M4702 4928 c6 -18 74 -42 95 -33 14 5 7 11 -32 26 -59 22 -68 23 -63
7z"/>
<path d="M4210 4914 c0 -5 14 -25 31 -44 l30 -35 -27 40 c-16 22 -29 42 -31
44 -2 2 -3 0 -3 -5z"/>
<path d="M4990 4908 c0 -2 7 -28 15 -58 8 -30 14 -89 14 -130 -1 -67 -2 -71
-11 -41 -5 19 -16 44 -24 55 -8 11 -14 31 -14 43 0 13 -4 23 -9 23 -5 0 -11
-39 -13 -87 -5 -99 -28 -162 -81 -223 -17 -21 -47 -56 -65 -79 -41 -51 -53
-52 -40 -3 20 78 18 85 -9 32 -44 -86 -80 -134 -115 -154 -32 -19 -33 -19 -17
0 21 25 31 54 19 54 -24 0 -9 98 26 175 44 96 64 159 63 205 0 27 -6 17 -25
-50 -48 -163 -161 -345 -243 -393 -35 -20 -40 -10 -16 33 8 14 14 34 15 44 0
14 -11 6 -41 -28 -44 -50 -85 -76 -115 -74 -18 2 -19 5 -6 72 11 57 11 77 1
101 l-12 30 -6 -25 c-6 -22 -8 -23 -14 -7 -4 10 -11 16 -17 12 -12 -7 -96 104
-122 162 -17 38 -38 64 -38 48 0 -4 7 -31 16 -61 29 -102 14 -102 -52 -2 -62
94 -84 142 -84 184 0 13 -5 26 -11 30 -9 5 -10 -11 -5 -59 10 -88 -1 -177 -20
-170 -9 3 -14 -2 -14 -15 0 -32 -18 -35 -25 -4 -9 42 -43 94 -57 86 -8 -5 -9
-2 -5 10 4 10 3 15 -3 11 -6 -3 -22 21 -36 54 -25 57 -43 77 -45 49 0 -7 -4
-4 -8 7 -5 11 -7 36 -4 55 3 32 1 31 -26 -24 -17 -32 -36 -64 -42 -72 -7 -8
-9 -17 -6 -21 3 -3 16 11 28 31 11 20 23 36 25 36 2 0 11 -17 19 -37 8 -21 26
-47 39 -58 55 -46 118 -137 119 -170 1 -29 4 -33 25 -31 32 4 40 19 48 89 4
31 10 60 14 62 11 7 98 -89 110 -120 6 -15 10 -38 10 -53 0 -34 17 -18 34 32
l13 37 47 -62 c52 -71 73 -128 56 -158 -8 -15 -6 -20 7 -23 13 -2 11 -8 -11
-35 l-28 -33 34 0 c18 1 49 7 70 14 31 11 35 11 31 -1 -4 -11 1 -13 23 -7 47
11 95 43 160 107 40 38 64 55 69 47 12 -19 -5 -79 -28 -101 l-22 -22 37 6 c68
10 221 130 295 230 19 26 39 45 43 42 5 -3 20 -26 35 -52 23 -42 25 -53 16
-86 -8 -35 -8 -38 9 -34 17 4 17 2 5 -34 -8 -22 -10 -39 -6 -39 4 0 29 16 54
35 54 41 51 46 62 -90 10 -126 26 -115 18 13 -5 98 -4 116 15 159 11 26 23 75
27 108 4 33 9 68 11 78 3 9 1 17 -5 17 -6 0 -11 -15 -11 -32 0 -18 -9 -51 -19
-73 -17 -36 -20 -37 -21 -15 -2 20 -4 17 -15 -17 -14 -45 -63 -133 -73 -133
-4 0 -5 25 -4 56 2 32 -1 61 -7 67 -6 6 -11 19 -11 29 0 10 -4 18 -10 18 -5 0
-10 -5 -10 -11 0 -17 -19 0 -35 31 -14 26 -14 36 2 90 9 33 20 60 25 60 4 0 8
-28 8 -62 l1 -63 21 40 c16 31 21 58 21 120 0 80 -19 191 -35 201 -4 3 -8 4
-8 2z"/>
<path d="M2761 4870 c-59 -39 -65 -48 -13 -19 24 13 48 29 54 36 14 18 9 16
-41 -17z"/>
<path d="M3127 4633 c-5 -29 -12 -52 -15 -52 -19 3 -22 -3 -12 -21 10 -18 4
-27 -46 -74 -52 -47 -58 -58 -59 -94 0 -22 -7 -47 -14 -56 -14 -17 -24 -72
-20 -116 4 -49 1 -66 -25 -159 -14 -52 -26 -104 -25 -115 1 -12 12 20 24 69
13 50 31 110 39 135 10 27 13 46 7 48 -6 2 -7 12 -1 27 6 15 5 25 -2 27 -6 2
-4 18 7 43 10 22 19 49 20 60 2 11 6 28 10 38 4 10 3 17 -5 17 -18 0 28 59 69
85 46 31 63 70 59 137 l-3 53 -8 -52z"/>
<path d="M3600 4211 c66 -21 118 -47 146 -72 28 -26 194 -90 194 -75 0 19 -81
92 -129 116 -52 26 -159 50 -221 49 l-45 0 55 -18z"/>
<path d="M2745 4159 c-16 -10 -36 -17 -42 -14 -7 2 -17 -5 -23 -15 -9 -16 -8
-20 5 -20 21 0 19 -9 -10 -52 -31 -46 -31 -48 0 -48 29 0 101 27 93 35 -3 3
-21 -2 -41 -10 -20 -8 -41 -15 -46 -15 -14 0 49 111 78 137 31 27 26 28 -14 2z"/>
<path d="M4508 4024 c-26 -9 -62 -29 -80 -45 l-33 -28 67 -1 c51 0 81 6 124
25 31 14 81 28 111 32 77 9 45 24 -61 29 -57 3 -95 -1 -128 -12z"/>
<path d="M3655 3948 c22 -11 60 -36 84 -56 40 -33 43 -34 36 -11 -12 37 -23
47 -81 69 -70 26 -90 25 -39 -2z"/>
<path d="M3355 3950 c-57 -15 -85 -29 -80 -43 3 -7 -10 -35 -30 -62 -39 -56
-42 -72 -19 -116 20 -39 27 -33 14 12 -6 18 -10 39 -10 46 0 24 62 83 116 109
47 23 64 26 117 22 35 -3 81 -15 104 -26 80 -41 132 -134 118 -210 -4 -23 -3
-32 4 -27 6 3 11 14 12 23 0 11 2 12 6 4 2 -6 9 -10 14 -6 5 3 3 17 -5 32 -33
67 -27 104 14 82 29 -16 25 1 -14 51 -42 55 -111 93 -197 108 -73 12 -119 13
-164 1z"/>
<path d="M4380 3839 c-61 -33 -120 -86 -120 -106 0 -8 28 10 63 39 35 29 77
63 93 75 40 30 29 28 -36 -8z"/>
<path d="M5872 3860 c0 -8 6 -31 13 -50 7 -19 13 -28 13 -20 0 8 -6 31 -13 50
-7 19 -13 28 -13 20z"/>
<path d="M3389 3821 c-24 -24 -29 -38 -29 -76 0 -39 5 -52 30 -77 27 -27 36
-30 71 -25 67 9 100 54 62 83 -17 13 -17 14 5 20 26 8 28 30 5 64 -24 35 -33
40 -76 40 -29 0 -46 -7 -68 -29z"/>
<path d="M2672 3810 c11 -28 12 -44 2 -85 -7 -27 -12 -61 -12 -75 0 -28 2 -22
18 38 12 47 25 53 41 18 9 -18 7 -31 -10 -64 -23 -46 -25 -52 -13 -52 5 0 15
11 22 25 15 27 26 32 33 13 2 -7 2 1 -1 17 -6 38 -61 165 -80 185 -12 13 -12
10 0 -20z"/>
<path d="M2892 3790 c0 -14 2 -19 5 -12 2 6 2 18 0 25 -3 6 -5 1 -5 -13z"/>
<path d="M4475 3781 c-22 -10 -46 -25 -53 -33 -10 -12 2 -10 45 8 32 13 74 24
93 24 26 0 31 3 20 10 -23 15 -61 12 -105 -9z"/>
<path d="M5901 3754 c0 -11 3 -14 6 -6 3 7 2 16 -1 19 -3 4 -6 -2 -5 -13z"/>
<path d="M2891 3654 c0 -54 4 -117 8 -139 5 -24 6 13 3 95 -2 74 -6 137 -8
139 -2 2 -4 -40 -3 -95z"/>
<path d="M4516 3729 c-27 -6 -63 -19 -79 -31 -26 -18 -27 -22 -13 -30 16 -9
16 -11 0 -36 -9 -15 -28 -39 -42 -54 -21 -23 -23 -30 -12 -43 19 -23 30 -18
30 13 0 40 60 106 115 127 65 25 160 17 213 -18 92 -61 123 -143 78 -209 -14
-21 -21 -38 -17 -38 11 0 71 67 71 80 0 4 -9 30 -21 56 -11 27 -18 58 -14 71
4 17 -3 28 -29 48 -73 55 -189 82 -280 64z"/>
<path d="M5912 3715 c0 -11 4 -31 8 -45 6 -20 8 -21 8 -5 0 11 -4 31 -8 45 -6
20 -8 21 -8 5z"/>
<path d="M4550 3622 c-23 -11 -39 -29 -48 -54 -13 -33 -12 -41 4 -75 33 -67
96 -81 146 -31 20 20 20 22 4 34 -20 14 -14 34 10 34 37 0 -2 83 -47 99 -18 6
-32 11 -33 11 -1 0 -17 -8 -36 -18z"/>
<path d="M5931 3624 c0 -11 3 -14 6 -6 3 7 2 16 -1 19 -3 4 -6 -2 -5 -13z"/>
<path d="M3325 3590 c-10 -15 73 -50 120 -49 l40 0 -53 14 c-28 8 -63 22 -76
30 -16 11 -26 13 -31 5z"/>
<path d="M5942 3575 c0 -16 2 -22 5 -12 2 9 2 23 0 30 -3 6 -5 -1 -5 -18z"/>
<path d="M2747 3562 c-10 -10 -17 -25 -17 -33 1 -9 7 -7 19 8 10 12 22 19 25
15 4 -3 4 1 0 11 -8 21 -7 21 -27 -1z"/>
<path d="M4170 3550 c-12 -23 -60 -244 -59 -275 0 -37 69 179 76 238 6 60 1
71 -17 37z"/>
<path d="M2760 3525 c-16 -19 -8 -121 12 -160 15 -28 15 -28 22 33 7 62 0 128
-14 137 -4 3 -13 -2 -20 -10z"/>
<path d="M5952 3525 c-1 -11 3 -38 7 -60 7 -34 9 -35 9 -10 0 35 -15 101 -16
70z"/>
<path d="M2912 3415 c0 -16 2 -22 5 -12 2 9 2 23 0 30 -3 6 -5 -1 -5 -18z"/>
<path d="M5973 3385 c0 -22 2 -30 4 -17 2 12 2 30 0 40 -3 9 -5 -1 -4 -23z"/>
<path d="M2882 3380 c0 -19 2 -27 5 -17 2 9 2 25 0 35 -3 9 -5 1 -5 -18z"/>
<path d="M4565 3346 c35 -17 91 -21 100 -6 4 6 -11 10 -37 10 -24 0 -54 3 -68
5 -22 5 -21 3 5 -9z"/>
<path d="M2890 3335 c-11 -13 -10 -14 4 -9 9 3 16 10 16 15 0 13 -6 11 -20 -6z"/>
<path d="M5983 3295 c0 -27 2 -38 4 -22 2 15 2 37 0 50 -2 12 -4 0 -4 -28z"/>
<path d="M2831 3253 l21 -38 -36 34 c-20 19 -38 32 -41 29 -4 -3 21 -30 54
-59 34 -30 64 -62 67 -72 3 -10 8 -16 11 -14 6 6 -73 143 -87 152 -6 4 -1 -11
11 -32z"/>
<path d="M2911 3105 c0 -11 4 -29 9 -40 l9 -20 0 20 c0 11 -4 29 -9 40 l-9 20
0 -20z"/>
<path d="M4075 3073 c-3 -21 -15 -55 -26 -76 -22 -41 -19 -58 6 -37 12 10 15
9 15 -6 1 -18 1 -18 15 0 10 13 15 44 15 88 0 73 -15 92 -25 31z"/>
<path d="M3850 3042 c-24 -8 -40 -24 -34 -34 3 -5 12 -4 20 3 10 8 14 8 14 0
0 -19 17 -12 23 9 6 23 -1 30 -23 22z"/>
<path d="M5992 2790 c0 -19 2 -27 5 -17 2 9 2 25 0 35 -3 9 -5 1 -5 -18z"/>
<path d="M5972 2600 c0 -14 2 -19 5 -12 2 6 2 18 0 25 -3 6 -5 1 -5 -13z"/>
<path d="M3691 2594 c-69 -15 -125 -45 -142 -75 -23 -44 74 -92 213 -104 40
-3 118 -13 173 -22 106 -16 169 -9 194 21 17 20 -6 61 -62 113 -50 46 -81 58
-190 73 -94 12 -104 12 -186 -6z m254 -34 c89 -21 143 -49 100 -51 -59 -3
-123 5 -239 27 -144 27 -165 35 -121 46 46 11 161 1 260 -22z m-62 -137 c-7
-2 -21 -2 -30 0 -10 3 -4 5 12 5 17 0 24 -2 18 -5z"/>
<path d="M5951 2474 c0 -11 3 -14 6 -6 3 7 2 16 -1 19 -3 4 -6 -2 -5 -13z"/>
<path d="M5941 2414 c0 -11 3 -14 6 -6 3 7 2 16 -1 19 -3 4 -6 -2 -5 -13z"/>
<path d="M5921 2324 c0 -11 3 -14 6 -6 3 7 2 16 -1 19 -3 4 -6 -2 -5 -13z"/>
<path d="M3735 2241 c-9 -15 45 -51 77 -51 16 0 52 10 80 22 42 18 47 23 32
29 -28 11 -182 11 -189 0z"/>
</g>
</svg>
